<svg width="80" height="80" viewBox="0 0 80 80" fill="none" xmlns="http://www.w3.org/2000/svg">
    <path fillRule="evenodd" clipRule="evenodd"
        d="M66.8993 39.1575L66.8993 39.1576L66.8993 39.1576C66.8423 39.3734 66.7948 39.5534 66.7132 39.7168C66.4929 40.162 66.2792 40.6116 66.0654 41.0614C65.5044 42.2417 64.9429 43.4229 64.261 44.5289C63.2796 46.1202 61.9067 47.3314 59.9055 47.5229C59.6035 47.5512 59.2886 47.5385 58.9879 47.4931C55.455 46.9626 52.853 46.7427 49.6321 48.3283C48.9585 48.6602 48.3373 48.6119 47.743 48.1978C47.4399 47.9862 47.1657 47.7311 46.8938 47.4783L46.8623 47.449C45.174 45.5279 42.2382 44.44 40.2472 44.44C35.9956 44.44 32.3927 47.9269 32.3927 47.9269C31.6396 48.5892 30.8695 48.697 29.9178 48.2361C26.792 46.72 23.4818 46.9726 20.0595 47.4888C18.7873 47.6803 17.6428 47.3498 16.6486 46.601C15.6147 45.8224 14.7566 44.875 14.2077 43.6624C13.6986 42.5377 13.1285 41.4399 12.5484 40.3507C12.0605 39.4359 12.025 38.541 12.5115 37.6262C12.6049 37.4505 12.6966 37.2736 12.7884 37.0966L12.7884 37.0965L12.7885 37.0964C12.9811 36.7249 13.1739 36.3531 13.3823 35.991C16.6358 30.3477 19.8893 24.7073 23.1541 19.0726C23.4619 18.5408 23.8221 18.0359 24.1866 17.5395C24.4774 17.1452 24.8943 16.9608 25.3907 16.9466C25.6152 16.9404 25.8396 16.9296 26.0639 16.9187C26.4053 16.9022 26.7464 16.8856 27.087 16.8856C35.4051 16.8828 43.7246 16.8828 52.0427 16.8828C52.2517 16.8828 52.4611 16.8882 52.6705 16.8936C52.8476 16.8982 53.0247 16.9028 53.2014 16.9041C54.1701 16.9126 54.8466 17.3664 55.3231 18.2018C56.0642 19.5038 56.8164 20.7989 57.5687 22.0942C57.9538 22.7574 58.339 23.4206 58.7227 24.0847L60.1603 26.5735L60.1743 26.5978C62.2654 30.2175 64.3566 33.8375 66.4366 37.4632C66.6099 37.7654 66.7333 38.0957 66.8485 38.4041C66.8993 38.54 66.9485 38.6717 66.9997 38.7949V38.7963C66.9599 38.9277 66.9284 39.0473 66.8993 39.1575ZM32.0963 36.4151C31.563 36.5285 31.1943 36.303 30.8581 36.0959C30.2029 35.6917 29.5505 35.2691 28.9534 34.7841C26.9452 33.1488 25.2035 31.2597 23.6973 29.1507C23.5243 28.9096 23.3087 28.6388 23.0506 28.5324C22.4677 28.2913 21.9472 28.5352 21.4948 28.9281C21.0806 29.2869 20.9757 29.7209 21.1473 30.2485C21.9326 32.6501 22.3261 35.1331 22.7194 37.6145L22.7195 37.6149C22.8134 38.2077 22.9074 38.8004 23.0066 39.392C23.1438 40.209 23.2205 41.0359 23.2972 41.8627L23.2972 41.8628L23.2972 41.8628C23.3441 42.3693 23.3911 42.8758 23.452 43.3801C23.5399 44.1105 23.808 44.3616 24.5341 44.4693C24.7954 44.5085 25.0585 44.5371 25.3215 44.5657C25.4681 44.5817 25.6147 44.5977 25.7609 44.6154C26.5395 44.7104 26.9069 44.3857 26.7835 43.6042C26.7529 43.4119 26.7229 43.2194 26.6928 43.027L26.6927 43.0263L26.6927 43.0263C26.4411 41.4148 26.1892 39.8014 25.6318 38.256C25.5186 37.9427 25.3989 37.6317 25.2792 37.3209L25.2792 37.3208L25.2791 37.3207L25.2791 37.3206L25.2791 37.3206L25.2791 37.3206L25.2791 37.3205L25.279 37.3205L25.279 37.3204L25.279 37.3204L25.279 37.3204L25.279 37.3203C25.1679 37.0318 25.0569 36.7434 24.9511 36.4534C24.8078 36.0605 24.8291 35.6761 25.1851 35.4024C25.5538 35.1188 25.9765 35.0209 26.4176 35.2266C26.5764 35.3003 26.7239 35.4194 26.8487 35.5442C28.1138 36.8136 29.5945 37.7879 31.1248 38.7027C33.5883 40.1749 36.1298 41.4612 38.955 42.0838C39.2925 42.159 39.6826 42.1732 40.0116 42.0838L40.2591 42.0166L40.2592 42.0166L40.2592 42.0166L40.2592 42.0166L40.2592 42.0166L40.2593 42.0166L40.2593 42.0166L40.2593 42.0165L40.2593 42.0165L40.2593 42.0165C41.194 41.763 42.1353 41.5077 43.024 41.135C46.3654 39.7352 49.521 38.0205 52.1774 35.4989C52.6667 35.0337 53.2241 35.0025 53.7248 35.3485C54.129 35.6279 54.1956 36.0733 53.929 36.7441C53.8698 36.8925 53.8088 37.0403 53.7477 37.1882C53.6418 37.4446 53.5359 37.701 53.4397 37.961C52.8182 39.6404 52.5409 41.3943 52.2636 43.1478L52.2636 43.1481L52.2636 43.1484L52.2635 43.1487L52.2635 43.149L52.2634 43.1492L52.2634 43.1495L52.2633 43.1498L52.2633 43.1501L52.2632 43.1504C52.2072 43.5047 52.1512 43.859 52.0923 44.2126C52.0143 44.6821 52.1987 44.8608 52.7135 44.831C52.9724 44.8154 53.2306 44.7867 53.4887 44.7579L53.4888 44.7579L53.4888 44.7579C53.7937 44.724 54.0985 44.6901 54.4041 44.6778C54.9246 44.6565 55.221 44.3899 55.3444 43.9233C55.4565 43.5035 55.56 43.0738 55.6025 42.6426C56.0181 38.4616 56.6606 34.3231 57.8079 30.274C58.0079 29.5663 57.8207 29.0841 57.1995 28.7082C56.5202 28.2969 55.9046 28.3594 55.3855 28.9139C55.1657 29.1488 54.9656 29.402 54.7649 29.656L54.7649 29.6561L54.7648 29.6562L54.7417 29.6854C52.8483 32.0851 50.7124 34.2338 48.1794 35.964C48.0994 36.0187 48.0199 36.085 47.9393 36.1521L47.9393 36.1522C47.6684 36.378 47.386 36.6135 47.0362 36.4463C46.6974 36.2844 46.7396 35.9417 46.7797 35.6156L46.7797 35.6155C46.7927 35.5103 46.8054 35.4068 46.8051 35.3117C46.7966 33.7386 46.7965 32.1655 46.7963 30.5924C46.7962 29.2552 46.7961 27.9181 46.7909 26.5809C46.7895 26.1738 46.7427 25.7554 46.6448 25.3612C46.5186 24.8463 46.1598 24.5939 45.6421 24.5513C44.7812 24.4833 44.1728 24.9811 44.0707 25.8561C44.039 26.1253 44.0134 26.3951 43.9878 26.6647C43.9526 27.0358 43.9174 27.4068 43.8664 27.7764C43.7927 28.3125 43.4268 28.4544 42.9928 28.1225C42.8317 27.9992 42.6951 27.8412 42.5604 27.6852L42.5092 27.6261C42.3353 27.4289 42.1639 27.2293 41.9925 27.0298C41.6437 26.6237 41.2949 26.2176 40.925 25.8306C40.6952 25.5888 40.4232 25.3858 40.1527 25.1839C40.0725 25.1241 39.9925 25.0644 39.9137 25.0038C39.6343 24.7896 39.3322 24.7924 39.0571 25.0038C38.9893 25.056 38.9209 25.1079 38.8525 25.1597L38.8524 25.1598C38.5512 25.388 38.2488 25.6172 37.9934 25.8887C37.6177 26.2877 37.2599 26.7041 36.9021 27.1205C36.6723 27.3879 36.4424 27.6554 36.2078 27.9183C36.0008 28.1495 35.7639 28.3863 35.4108 28.2587C35.1184 28.1532 35.0938 27.8848 35.0704 27.6302L35.0704 27.6301L35.0704 27.6301C35.0676 27.6006 35.065 27.5713 35.0619 27.5424C35.0322 27.2578 35.0059 26.9725 34.9796 26.6872V26.6872V26.6871V26.6871V26.6871V26.6871V26.6871V26.687V26.687V26.687L34.9796 26.6868C34.9468 26.3312 34.914 25.9755 34.8747 25.6207C34.808 25.0279 34.2591 24.5868 33.567 24.5485C32.9118 24.5116 32.4282 24.8222 32.2991 25.4292C32.2097 25.8533 32.1672 26.2944 32.1658 26.7284C32.1588 28.5457 32.1588 30.3637 32.1588 32.1815C32.1589 33.3001 32.1589 34.4187 32.1573 35.5372C32.1573 35.7414 32.1384 35.9457 32.1197 36.1481L32.1197 36.1482C32.1113 36.2395 32.1029 36.3304 32.0963 36.4207V36.4151ZM50.8942 39.4946C49.8155 40.2046 48.0069 41.0191 46.4161 41.7356C45.4425 42.174 44.5505 42.5758 43.9573 42.8943C45.611 43.3588 47.2447 44.2126 48.351 45.2887C48.7807 45.517 49.4219 45.1322 49.5453 44.6542C49.6432 44.2777 49.7819 43.8177 49.9348 43.3104L49.9348 43.3103L49.9348 43.3102C50.2871 42.1414 50.715 40.7218 50.8942 39.4946ZM35.3857 43.1667C35.3337 43.1349 35.0818 43.0431 34.6997 42.9038C33.2262 42.3668 29.8173 41.1245 28.4814 39.8982C28.5099 40.095 29.4196 43.8539 29.5444 44.3695L29.5447 44.3709L29.5449 44.3716L29.5563 44.419C29.745 45.148 30.057 45.7239 30.7335 45.4005C31.7743 44.6254 34.0757 43.2452 35.3857 43.1667ZM53.3773 62.835L53.3773 62.835C53.0836 62.7519 52.7055 62.645 52.3457 62.4925C50.5672 61.7422 49.3163 60.3779 48.2866 58.8121C47.6355 57.8207 47.0309 56.7984 46.4265 55.7765L46.4264 55.7763L46.4263 55.7762L46.4262 55.776L46.4253 55.7744C46.1914 55.3789 45.9575 54.9835 45.721 54.59C45.5839 54.3624 45.4473 54.1251 45.3084 53.884L45.3083 53.8839C44.6681 52.7724 43.9801 51.5779 42.9861 50.8681C40.7764 49.2896 38.4524 49.2839 36.2413 50.8483C35.006 51.7219 33.9863 53.3263 33.2034 54.6254C32.9507 55.0452 32.7018 55.4674 32.4528 55.8897C31.8649 56.8871 31.2769 57.8845 30.6392 58.849C29.6209 60.3892 28.3841 61.7309 26.634 62.4797C26.2582 62.64 25.8653 62.7818 25.4668 62.8712C24.8172 63.0172 24.2357 62.8258 23.7734 62.3507C23.3635 61.9294 23.115 61.2654 23.6412 61.0101C23.9419 60.8654 24.2525 60.7321 24.573 60.6413C25.9998 60.2371 27.089 59.3465 27.9541 58.1963C28.5883 57.3533 29.1713 56.4711 29.7541 55.5894L29.7542 55.5893L29.7548 55.5884C29.9238 55.3327 30.0928 55.0769 30.2631 54.8222C30.5087 54.4548 30.7463 54.0815 30.9839 53.7084C31.4239 53.0173 31.8636 52.3267 32.3536 51.6737C32.9104 50.9321 33.8551 50.0124 34.5741 49.3124L34.5742 49.3123L34.5743 49.3122L34.5744 49.3121L34.5745 49.312L34.5746 49.312C34.6502 49.2384 34.7233 49.1672 34.7932 49.0989C35.9803 47.9402 38.5627 47.135 40.2884 47.135C42.48 47.135 44.5369 48.7732 45.1904 49.6138C46.1256 50.5665 46.7191 51.637 47.3391 52.7554C47.5719 53.1753 47.8084 53.602 48.0682 54.0317C48.8667 55.3507 49.7105 56.647 50.6012 57.905C51.5585 59.2566 52.7782 60.3004 54.4277 60.7472C54.6744 60.8138 54.9113 60.9216 55.1425 61.0337C55.714 61.3102 55.5921 61.9294 55.1425 62.379C54.8021 62.718 54.3851 62.9052 53.6604 62.9194L53.6618 62.918C53.5819 62.8929 53.4855 62.8656 53.3778 62.8351L53.3773 62.835ZM33.5063 61.6C33.4455 61.6811 33.3839 61.7631 33.3187 61.8438C33.5363 62.2652 33.8474 62.356 34.1646 62.4486L34.1867 62.4551C35.6035 62.872 37.0572 63.0479 38.5266 63.1032C40.6199 63.1826 42.6934 63.0479 44.7201 62.4678C45.7498 62.1742 45.8491 61.8849 45.0931 61.1559C43.8224 59.9277 42.3814 58.9576 40.7107 58.335C39.8697 58.0216 39.0655 58.0315 38.2302 58.3449C36.5878 58.9619 35.1752 59.9291 33.9087 61.1219C33.7596 61.2624 33.6346 61.429 33.5063 61.6ZM59.5999 52.4053L59.5999 52.4054C59.4041 52.8275 59.1893 53.2907 58.7015 53.6272C58.3328 53.8825 57.8265 53.9267 57.3868 53.7797C55.5289 53.1597 53.7674 53.4747 52.0229 54.0615C51.1791 54.3456 51.0231 54.3091 50.5508 53.6847C50.2912 53.3398 50.0303 52.9928 49.8104 52.6325C49.5282 52.1683 49.6147 51.9031 50.1352 51.5837C50.9351 51.0929 51.8513 50.7978 52.8356 50.6022C54.546 50.2618 56.2352 50.1933 57.8874 50.7702C58.3072 50.9161 58.7114 51.0951 59.0986 51.2897C59.4929 51.4875 59.6503 51.8025 59.6801 52.2313H59.6815C59.6543 52.2881 59.6274 52.3461 59.6001 52.405L59.6 52.4051L59.6 52.4052L59.5999 52.4053ZM28.5529 50.9501C27.0921 50.2156 25.42 50.0209 23.9039 49.9115L23.9067 49.9105C22.6913 49.9336 21.5723 50.142 20.6674 50.4766C19.4576 50.9227 18.8804 51.3825 19.7541 52.5263C20.2873 53.2249 20.8135 53.3828 21.8432 53.1481C22.4487 53.0103 23.0926 52.9219 23.7252 52.8977C24.9094 52.8524 25.9987 53.1639 27.0652 53.5143C27.7389 53.7363 27.9516 53.6921 28.336 53.2334C28.5799 52.9408 28.804 52.6388 29.0181 52.3348C29.5046 51.6435 29.4152 51.3836 28.5529 50.9501ZM44.4107 57.7775L44.4103 57.7771C44.6173 57.6174 44.5925 57.2934 44.5149 57.0932C43.7554 55.1485 42.4923 53.6595 40.5878 52.7417C39.8358 52.3789 39.1076 52.3814 38.3568 52.7417C37.1804 53.3055 36.1898 54.1027 35.4604 55.1736C35.1579 55.6187 34.9218 56.1098 34.686 56.6003L34.6859 56.6004C34.5958 56.7878 34.5058 56.9751 34.4121 57.1598C34.2978 57.387 34.2815 57.6004 34.6494 57.6833C34.6966 57.6388 34.7439 57.5922 34.7919 57.5448C34.8985 57.4398 35.0087 57.3312 35.129 57.2351C35.2515 57.1369 35.3725 57.036 35.4936 56.935C35.8279 56.6563 36.1627 56.3771 36.5313 56.1541C37.9149 55.3167 39.3951 55.0116 40.982 55.5038C42.0705 55.8403 43.0058 56.4278 43.8144 57.225C43.9257 57.3347 44.0411 57.4397 44.173 57.5597C44.2463 57.6264 44.3247 57.6977 44.4103 57.7771L44.4082 57.7787L44.4107 57.7775ZM22.5755 58.2833C23.869 58.7059 25.2163 58.1159 25.8886 56.8225C24.9624 56.0793 23.9129 55.6624 22.7131 55.6921C22.3883 55.6992 22.0507 55.7928 21.7472 55.9177C21.1346 56.1701 21.0395 56.4382 21.2665 57.0735C21.492 57.7032 21.9642 58.0833 22.5755 58.2833ZM53.07 56.8504L53.0715 56.8491C53.5594 57.7539 54.2912 58.2332 55.2116 58.3949C56.2086 58.5707 57.2369 58.0616 57.6325 57.2674C57.9928 56.5469 57.8311 56.0845 57.0709 55.8505C56.688 55.7328 56.2625 55.669 55.864 55.6973C54.8463 55.7696 53.9291 56.1366 53.0715 56.8491L53.0714 56.849L53.07 56.8504ZM40.4438 36.3934C40.4434 36.0995 40.4431 35.8057 40.4431 35.5119H40.442C40.442 35.2066 40.4455 34.901 40.449 34.5953C40.4573 33.8715 40.4656 33.1476 40.4274 32.4286C40.3962 31.8301 40.2763 31.2089 40.0897 30.6642C39.8405 29.9338 39.3265 29.9239 39.0617 30.6472C38.8564 31.2089 38.6802 31.8542 38.6666 32.4697C38.6287 34.131 38.6399 35.7952 38.651 37.4591V37.4591V37.4594V37.4595V37.4596C38.6537 37.8523 38.6563 38.245 38.6583 38.6377C38.6614 39.2901 38.9992 39.7014 39.4986 39.7099C40.0073 39.7184 40.4379 39.2206 40.441 38.5966C40.4455 37.8622 40.4446 37.1278 40.4438 36.3934ZM42.2343 38.9211C42.2306 38.8421 42.2264 38.7678 42.2224 38.6965C42.2137 38.5425 42.2059 38.4031 42.2059 38.2644V38.263V38.2616C42.2046 36.1507 42.2033 34.0413 42.2059 31.9305C42.2059 31.6993 42.2175 31.4667 42.2485 31.2398C42.361 30.4101 43.293 30.3193 43.6692 30.7618C43.9859 31.1334 44.1643 31.5688 44.1656 32.0822C44.1656 32.5197 44.1664 32.9572 44.1672 33.3948V33.395V33.3955C44.1697 34.7083 44.1721 36.0216 44.1527 37.334C44.1488 37.6134 44.0157 37.9311 43.8567 38.1609C43.5606 38.592 42.8884 38.8813 42.2343 38.9225V38.9211ZM35.0632 38.1061C35.4449 38.6153 35.9523 38.8834 36.6116 38.984V38.1572V31.9892C36.6116 31.7836 36.6044 31.5779 36.5972 31.3723C36.5841 30.9751 36.4429 30.6887 36.1078 30.5568C35.7608 30.4206 35.4246 30.4788 35.2355 30.8362C35.0465 31.1907 34.855 31.6162 34.8454 32.0176C34.8048 33.789 34.8191 35.5632 34.8383 37.336C34.8419 37.597 34.9208 37.9175 35.0632 38.1061Z"
        fill="white" />
</svg>