<svg height="40" viewBox="0 0 1286 300" fill="none" xmlns="http://www.w3.org/2000/svg">
<path fill-rule="evenodd" clip-rule="evenodd" d="M162.724 181.214L151.269 192.668L107.976 149.376L119.42 137.932L106.884 125.395C106.884 125.395 105.438 123.95 103.993 125.395L100.916 128.472C98.844 130.544 96.176 131.915 93.2856 132.395L70 136.258L90.9822 115.276C92.4277 113.831 93.8733 112.385 96.7646 112.385H114.112C115.377 112.385 116.366 112.662 117.199 113.095L135.542 94.752C135.542 94.752 139.163 91.1311 144.594 89.3206L189.358 70.7102C194.79 68.8998 200.221 70.7103 203.842 74.3313L225.568 96.0571C229.189 99.6781 231 105.11 229.189 110.541L210.056 154.782C208.245 160.213 204.624 163.834 204.624 163.834L186.483 181.976C187.196 182.973 187.702 184.178 187.702 185.888V203.235C187.702 206.127 186.256 207.572 184.81 209.018L163.829 230L167.692 206.714C168.172 203.824 169.543 201.156 171.615 199.084L174.691 196.007C175.729 194.97 175.277 193.933 174.94 193.43L162.724 181.214ZM130.533 125.915L142.455 137.837V157.545L162.25 157.545L174.028 169.323L222.849 120.502C224.659 118.692 222.849 116.881 222.849 116.881L183.018 77.0506C183.018 77.0506 181.208 75.2401 179.397 77.0506L130.533 125.915Z" fill="#FBCB4A"/>
<path d="M98.7669 160.578C94.034 165.311 90.8559 171.373 89.6561 177.958L86.3637 196.028L111.674 170.719L100.15 159.195L98.7669 160.578Z" fill="#FBCB4A"/>
<path d="M122.943 211.327C129.528 210.128 135.591 206.949 140.324 202.217L141.706 200.834L130.183 189.31L104.873 214.62L122.943 211.327Z" fill="#FBCB4A"/>
<path d="M386.059 141.4C386.059 145.24 384.139 149.08 380.299 151L343.819 166.36C339.979 168.28 336.139 168.28 336.139 168.28H326.539C324.619 168.28 324.619 170.2 324.619 170.2V181.72C324.619 183.64 326.539 183.64 326.539 183.64H386.059V199H359.179C359.179 199 355.339 199 351.499 197.08L315.019 181.72C311.179 179.8 309.259 175.96 309.259 172.12V141.4C309.259 139.48 309.259 137.56 311.179 135.64L322.699 124.12C324.619 122.2 326.539 122.2 328.459 122.2H366.859C368.779 122.2 370.699 122.2 372.619 124.12L384.139 135.64C386.059 137.56 386.059 139 386.059 141.4ZM370.699 139.48C370.699 139.48 370.699 137.56 368.779 137.56H326.539C324.619 137.56 324.619 139.48 324.619 139.48V151C324.619 152.92 326.539 152.92 326.539 152.92H368.779C370.699 152.92 370.699 151 370.699 151V139.48ZM401.369 199V179.8C401.369 177.88 401.369 175.96 405.209 172.12L416.729 162.52C416.729 162.52 418.649 160.6 416.729 158.68L405.209 149.08C401.369 145.24 401.369 143.32 401.369 141.4V122.2H416.729V151C416.729 152.92 416.729 152.92 418.649 152.92H460.889C462.809 152.92 462.809 152.92 462.809 151V122.2H478.169V141.4C478.169 143.32 478.169 145.24 474.329 149.08L462.809 158.68C460.889 160.6 462.809 162.52 462.809 162.52L474.329 172.12C478.169 175.96 478.169 177.88 478.169 179.8V199H462.809V170.2C462.809 170.2 462.809 168.28 460.889 168.28H418.649C416.729 168.28 416.729 170.2 416.729 170.2V199H401.369ZM493.478 122.2H551.078C552.998 122.2 554.918 122.2 556.838 124.12L568.358 135.64C570.278 137.56 570.278 139.48 570.278 141.4V172.12C570.278 175.96 568.358 179.8 564.518 181.72L528.038 197.08C524.198 199 520.358 199 520.358 199H510.758C510.758 199 508.838 199 508.838 200.92V229.72H493.478V122.2ZM510.758 137.56C510.758 137.56 508.838 137.56 508.838 139.48V181.72C508.838 181.72 508.838 183.64 510.758 183.64H552.998C554.918 183.64 554.918 181.72 554.918 181.72V139.48C554.918 137.56 552.998 137.56 552.998 137.56H510.758ZM662.387 183.64V199H585.587V183.64H614.387C615.227 183.64 616.307 183.76 616.307 181.72V108.76C616.307 106.72 615.227 106.84 614.387 106.84H585.587V91.48H612.467C614.387 91.48 616.307 91.48 618.227 93.4L629.747 104.92C631.667 106.84 631.667 108.76 631.667 110.68V181.72C631.667 183.76 632.747 183.64 633.587 183.64H662.387ZM677.697 179.8V141.4C677.697 139.48 677.697 137.56 679.617 135.64L691.137 124.12C693.057 122.2 694.977 122.2 696.897 122.2H735.297C737.217 122.2 739.137 122.2 741.057 124.12L752.577 135.64C754.497 137.56 754.497 139.48 754.497 141.4V179.8C754.497 181.72 754.497 183.64 752.577 185.56L741.057 197.08C739.137 199 737.217 199 735.297 199H696.897C694.977 199 693.057 199 691.137 197.08L679.617 185.56C677.697 183.64 677.697 181.72 677.697 179.8ZM693.057 181.72C693.057 183.64 694.977 183.64 694.977 183.64H737.217C737.217 183.64 739.137 183.64 739.137 181.72V139.48C739.137 137.56 737.217 137.56 737.217 137.56H694.977C694.977 137.56 693.057 137.56 693.057 139.48V181.72ZM769.806 199V141.4C769.806 139.48 769.806 137.56 771.726 135.64L783.246 124.12C785.166 122.2 787.086 122.2 789.006 122.2H846.606V137.56H787.086C787.086 137.56 785.166 137.56 785.166 139.48V199H769.806ZM938.716 141.4C938.716 145.24 936.796 149.08 932.956 151L896.476 166.36C892.636 168.28 888.796 168.28 888.796 168.28H879.196C877.276 168.28 877.276 170.2 877.276 170.2V181.72C877.276 183.64 879.196 183.64 879.196 183.64H938.716V199H911.836C911.836 199 907.996 199 904.156 197.08L867.676 181.72C863.836 179.8 861.916 175.96 861.916 172.12V141.4C861.916 139.48 861.916 137.56 863.836 135.64L875.356 124.12C877.276 122.2 879.196 122.2 881.116 122.2H919.516C921.436 122.2 923.356 122.2 925.276 124.12L936.796 135.64C938.716 137.56 938.716 139 938.716 141.4ZM923.356 139.48C923.356 139.48 923.356 137.56 921.436 137.56H879.196C877.276 137.56 877.276 139.48 877.276 139.48V151C877.276 152.92 879.196 152.92 879.196 152.92H921.436C923.356 152.92 923.356 151 923.356 151V139.48ZM954.025 199V141.4C954.025 139.48 954.025 137.56 955.945 135.64L967.465 124.12C969.385 122.2 971.305 122.2 973.225 122.2H1030.82V137.56H971.305C971.305 137.56 969.385 137.56 969.385 139.48V199H954.025Z" fill="#FBCB4A"/>
</svg>
