<svg viewBox="0 0 1140 160" fill="none" xmlns="http://www.w3.org/2000/svg">
    <path
        d="M180.125 90.6054H185.05L185.079 90.6202V108.256H179.339C175.26 108.256 171.18 108.259 167.102 108.262C158.946 108.269 150.792 108.275 142.644 108.256C139.04 108.241 136.044 109.22 134.501 112.794C132.929 116.428 134.487 119.187 137.053 121.709C141.709 126.3 146.334 130.923 150.865 135.453C152.569 137.156 154.26 138.846 155.934 140.516C154.422 142.01 152.928 143.488 151.465 144.934C147.845 148.513 144.415 151.903 141.384 154.903C139.245 152.902 137.055 150.874 134.837 148.82C128.688 143.125 122.317 137.223 116.169 131.097C114.529 129.458 113.748 126.842 113.012 124.381C112.883 123.948 112.755 123.52 112.624 123.103C112.016 121.145 111.927 118.965 111.927 116.888C111.907 106.136 111.908 95.3804 111.908 84.6247C111.909 70.7961 111.909 56.9668 111.868 43.1422C111.853 37.6543 113.677 33.1008 117.43 29.111C123.088 23.0998 128.693 17.0349 134.261 11.0102C136.428 8.66553 138.589 6.32695 140.746 4L141.223 4.47887C146.186 9.45563 150.996 14.28 156.127 19.4107C155.916 19.6321 155.685 19.879 155.441 20.1412C154.965 20.6519 154.436 21.2202 153.887 21.769L136.593 39.0634C134.234 41.4217 132.974 44.1657 134.338 47.4288C135.688 50.6622 138.566 51.1665 141.725 51.1665C146.808 51.1494 151.891 51.1542 156.973 51.159C165.106 51.1667 173.239 51.1745 181.371 51.0923C184.382 51.0627 185.658 51.8488 185.391 55.008C185.154 57.7075 185.139 60.4515 185.391 63.1509C185.717 66.6513 184.59 67.8824 180.912 67.8082C173.416 67.6599 165.921 67.683 158.426 67.7061C154.678 67.7176 150.931 67.7291 147.183 67.7192C143.341 67.7192 139.722 68.357 137.023 71.3086C133.834 74.7646 132.87 78.8582 134.665 83.2931C136.563 87.9949 140.256 90.5015 145.285 90.5609C153.672 90.6466 162.06 90.6317 170.448 90.6168C173.674 90.6111 176.9 90.6054 180.125 90.6054Z"
        fill="#FBCB4A" />
    <path
        d="M31.9809 138.243C31.2159 139.008 30.4535 139.77 29.6939 140.53L29.7235 140.515C33.462 144.243 37.0479 147.819 40.6337 151.394C42.1694 152.925 43.7052 154.457 45.2529 156C47.0325 154.213 48.8275 152.402 50.6368 150.576C55.7186 145.449 60.9129 140.209 66.196 135.057C71.3724 129.999 73.7604 123.888 73.7604 116.784C73.7668 106.244 73.7649 95.7049 73.7631 85.1655C73.7607 71.1131 73.7583 57.0606 73.7752 43.0081C73.7901 37.535 71.8915 32.9074 68.1093 28.9768C66.2758 27.0661 64.4799 25.1113 62.6849 23.1576C61.721 22.1085 60.7575 21.0597 59.7884 20.0182C57.8373 17.9289 55.8861 15.8418 53.967 13.789C50.9406 10.5519 47.994 7.39998 45.2529 4.45916C39.9874 9.70977 34.9593 14.7231 29.768 19.8847C31.5722 21.6844 33.4004 23.5121 35.2467 25.358C39.5477 29.658 43.9468 34.056 48.3676 38.425C50.8743 40.9019 52.7728 43.5717 51.2896 47.265C49.8212 50.8989 46.6323 51.1658 43.2654 51.1658C32.551 51.1288 21.8469 51.1432 11.136 51.1576C8.99151 51.1605 6.84675 51.1634 4.70157 51.1658C3.78895 51.1658 2.87633 51.2268 1.86998 51.294C1.3062 51.3316 0.713007 51.3712 0.0739169 51.4032C0.0739169 52.7314 0.0872213 54.0264 0.100282 55.2976C0.13083 58.271 0.160047 61.1147 0.0145867 63.9512C-0.133736 66.8435 0.83036 67.8076 3.76714 67.7779C15.1435 67.6444 26.5049 67.6741 37.8813 67.7779C40.1803 67.8076 42.6276 68.0301 44.7486 68.8458C49.7619 70.774 52.5503 76.0691 51.6011 81.0824C50.548 86.6297 45.9352 90.5306 39.9874 90.5751C32.1267 90.6386 24.2735 90.6265 16.4171 90.6144C13.2741 90.6096 10.1305 90.6047 6.98573 90.6047H0.326065V108.24H4.62741C8.87547 108.24 13.1219 108.244 17.3672 108.247C25.8545 108.253 34.3375 108.26 42.8204 108.24C46.5581 108.225 49.6729 109.219 51.1858 113.016C52.669 116.724 50.9336 119.409 48.3973 121.901C42.8532 127.367 37.3545 132.867 31.9809 138.243Z"
        fill="#FBCB4A" />
    <path
        d="M249.444 129.28V21.7598H264.804V50.5598C264.804 52.4798 266.724 52.4798 266.724 52.4798H276.324C276.324 52.4798 280.164 52.4798 284.004 54.3998L320.484 69.7598C324.324 71.6798 326.244 75.5198 326.244 79.3598V110.08C326.244 112 326.244 113.92 324.324 115.84L312.804 127.36C310.884 129.28 308.964 129.28 307.044 129.28H249.444ZM266.724 113.92H308.964C308.964 113.92 310.884 113.92 310.884 112V69.7598C310.884 69.7598 310.884 67.8398 308.964 67.8398H266.724C264.804 67.8398 264.804 69.7598 264.804 69.7598V112C264.804 113.92 266.724 113.92 266.724 113.92Z"
        fill="#FBCB4A" />
    <path
        d="M341.554 129.28V71.6798C341.554 69.7598 341.554 67.8398 343.474 65.9198L354.994 54.3998C356.914 52.4798 358.834 52.4798 360.754 52.4798H418.354V67.8398H358.834C358.834 67.8398 356.914 67.8398 356.914 69.7598V129.28H341.554Z"
        fill="#FBCB4A" />
    <path
        d="M464.383 21.7598H479.743V37.1198H464.383V21.7598ZM510.463 113.92V129.28H433.663V113.92H462.463C462.463 113.92 464.383 113.92 464.383 112V69.7598C464.383 67.8398 462.463 67.8398 462.463 67.8398H433.663V52.4798H460.543C462.463 52.4798 464.383 52.4798 466.303 54.3998L477.823 65.9198C479.743 67.8398 479.743 69.7598 479.743 71.6798V112C479.743 113.92 481.663 113.92 481.663 113.92H510.463Z"
        fill="#FBCB4A" />
    <path
        d="M602.572 129.28H544.972C543.052 129.28 541.132 129.28 539.212 127.36L527.692 115.84C525.772 113.92 525.772 112 525.772 110.08V79.3598C525.772 75.5198 527.692 71.6798 531.532 69.7598L568.012 54.3998C571.852 52.4798 575.692 52.4798 575.692 52.4798H585.292C585.292 52.4798 587.212 52.4798 587.212 50.5598V21.7598H602.572V129.28ZM585.292 113.92C585.292 113.92 587.212 113.92 587.212 112V69.7598C587.212 69.7598 587.212 67.8398 585.292 67.8398H543.052C541.132 67.8398 541.132 69.7598 541.132 69.7598V112C541.132 113.92 543.052 113.92 543.052 113.92H585.292Z"
        fill="#FBCB4A" />
    <path
        d="M692.762 65.9198C694.802 67.9598 694.682 69.7598 694.682 71.6798V133.12C694.682 136.96 692.762 140.8 688.922 142.72L652.442 158.08C648.602 160 644.762 160 644.762 160H617.882V144.64H677.402C679.322 144.64 679.322 142.72 679.322 142.72V131.2C679.322 131.2 679.322 129.28 677.402 129.28H667.802C667.802 129.28 663.962 129.28 660.122 127.36L623.642 112C619.802 110.08 617.882 106.24 617.882 102.4V71.6798C617.882 69.7598 617.882 67.8398 619.802 65.9198L631.322 54.3998C633.242 52.4798 635.162 52.4798 637.082 52.4798H675.482C677.402 52.4798 679.322 52.4798 681.242 54.3998L692.762 65.9198ZM679.322 69.7598C679.322 67.8398 677.402 67.8398 677.402 67.8398H635.162C635.162 67.8398 633.242 67.8398 633.242 69.7598V112C633.242 112 633.242 113.92 635.162 113.92H677.402C677.402 113.92 679.322 113.92 679.322 112V69.7598Z"
        fill="#FBCB4A" />
    <path
        d="M786.791 71.6798C786.791 75.5198 784.871 79.3598 781.031 81.2798L744.551 96.6398C740.711 98.5598 736.871 98.5598 736.871 98.5598H727.271C725.351 98.5598 725.351 100.48 725.351 100.48V112C725.351 113.92 727.271 113.92 727.271 113.92H786.791V129.28H759.911C759.911 129.28 756.071 129.28 752.231 127.36L715.751 112C711.911 110.08 709.991 106.24 709.991 102.4V71.6798C709.991 69.7598 709.991 67.8398 711.911 65.9198L723.431 54.3998C725.351 52.4798 727.271 52.4798 729.191 52.4798H767.591C769.511 52.4798 771.431 52.4798 773.351 54.3998L784.871 65.9198C786.791 67.8398 786.791 69.2798 786.791 71.6798ZM771.431 69.7598C771.431 69.7598 771.431 67.8398 769.511 67.8398H727.271C725.351 67.8398 725.351 69.7598 725.351 69.7598V81.2798C725.351 83.1998 727.271 83.1998 727.271 83.1998H769.511C771.431 83.1998 771.431 81.2798 771.431 81.2798V69.7598Z"
        fill="#FBCB4A" />
</svg>