<svg width="1140" height="160" viewBox="0 0 1140 160" fill="none" xmlns="http://www.w3.org/2000/svg">
  <g clip-path="url(#clip0_134_6516)">
    <path
      d="M445.064 129.71H522.29V114.273H493.33C493.075 114.279 492.822 114.234 492.584 114.14C492.347 114.045 492.132 113.904 491.951 113.724C491.771 113.544 491.628 113.33 491.533 113.094C491.438 112.858 491.394 112.605 491.399 112.351V71.9882C491.529 70.9445 491.424 69.8852 491.09 68.8876C490.756 67.89 490.202 66.9793 489.469 66.2221L477.885 54.6898C477.124 53.9601 476.21 53.4088 475.208 53.0763C474.206 52.7437 473.141 52.6384 472.093 52.7678L447.409 53.0763L431.891 68.1441H474.023C474.279 68.1379 474.533 68.1834 474.77 68.2778C475.006 68.3723 475.222 68.5136 475.402 68.6933C475.584 68.8731 475.725 69.0874 475.82 69.3234C475.915 69.5593 475.961 69.8121 475.955 70.0662V112.351C475.961 112.605 475.915 112.858 475.82 113.094C475.725 113.33 475.584 113.544 475.402 113.724C475.222 113.904 475.006 114.045 474.77 114.14C474.533 114.234 474.279 114.279 474.023 114.273H445.064V129.71Z"
      fill="#FBCB4A" />
    <path d="M491.399 37.4364V22.06L475.955 22V37.4364H491.399Z" fill="#FBCB4A" />
    <path
      d="M15.4352 69.9227V112.272C15.429 112.526 15.4746 112.779 15.5695 113.016C15.6644 113.252 15.8063 113.467 15.987 113.646C16.1675 113.827 16.3828 113.968 16.6199 114.063C16.857 114.157 17.1108 114.203 17.3662 114.196H77.2258V129.656H19.2971C18.2486 129.786 17.1844 129.68 16.1822 129.347C15.1798 129.014 14.2649 128.462 13.5042 127.731L1.91843 116.122C1.19882 115.356 0.658853 114.441 0.337985 113.442C0.0169728 112.444 -0.0768837 111.386 0.0628932 110.347V71.8477C-0.067095 70.8024 0.0387088 69.7415 0.37282 68.7423C0.706932 67.7433 1.26071 66.8312 1.99386 66.0728L13.5042 54.4629C14.2649 53.7321 15.1798 53.18 16.1822 52.8469C17.1844 52.514 18.2486 52.4084 19.2971 52.538H77.2258V67.9978H17.3662C17.1108 67.9916 16.857 68.0371 16.6199 68.1317C16.3828 68.2263 16.1675 68.3678 15.987 68.5479C15.8063 68.7278 15.6644 68.9424 15.5695 69.1788C15.4746 69.4152 15.429 69.6682 15.4352 69.9227Z"
      fill="#FBCB4A" />
    <path fill-rule="evenodd" clip-rule="evenodd"
      d="M107.455 100.754L144.107 85.308C146.517 84.1332 149.145 83.4755 151.824 83.3772H161.469C161.725 83.3936 161.981 83.3576 162.223 83.2711C162.465 83.1847 162.687 83.0498 162.874 82.8746C163.063 82.6994 163.212 82.4878 163.314 82.2526C163.418 82.0174 163.473 81.7636 163.474 81.5066V69.9219C163.48 69.6666 163.434 69.4128 163.339 69.1758C163.245 68.9387 163.103 68.7233 162.923 68.5428C162.742 68.3623 162.527 68.2202 162.29 68.1253C162.053 68.0306 161.8 67.9848 161.544 67.991H101.683V52.4843H128.69C131.344 52.5721 133.95 53.2089 136.347 54.3548L172.998 69.8012C174.774 70.7001 176.261 72.0836 177.285 73.7919C178.308 75.5001 178.83 77.4635 178.786 79.4552V110.348C178.916 111.396 178.809 112.461 178.475 113.463C178.143 114.465 177.589 115.38 176.856 116.141L165.282 127.725C164.522 128.458 163.608 129.012 162.606 129.346C161.606 129.68 160.542 129.786 159.495 129.656H120.913C119.866 129.786 118.803 129.68 117.801 129.346C116.8 129.012 115.886 128.458 115.126 127.725L103.597 116.201C102.864 115.44 102.311 114.525 101.977 113.523C101.644 112.521 101.538 111.457 101.668 110.408C101.624 108.417 102.145 106.453 103.169 104.745C104.193 103.037 105.679 101.653 107.455 100.754ZM119.029 114.33H161.469C161.724 114.337 161.977 114.291 162.215 114.196C162.452 114.101 162.667 113.959 162.847 113.779C163.028 113.598 163.169 113.383 163.264 113.146C163.359 112.909 163.405 112.655 163.398 112.4V100.815C163.405 100.56 163.359 100.306 163.264 100.069C163.169 99.8315 163.028 99.6162 162.847 99.4357C162.667 99.2552 162.452 99.1131 162.215 99.0184C161.977 98.9235 161.724 98.8777 161.469 98.8839H119.029C118.774 98.8777 118.521 98.9235 118.284 99.0184C118.047 99.1131 117.832 99.2552 117.652 99.4357C117.471 99.6162 117.329 99.8315 117.235 100.069C117.14 100.306 117.094 100.56 117.1 100.815V112.4C117.102 112.65 117.154 112.897 117.252 113.127C117.351 113.357 117.494 113.565 117.673 113.739C117.853 113.913 118.065 114.05 118.298 114.141C118.531 114.232 118.779 114.276 119.029 114.27V114.33Z"
      fill="#FBCB4A" />
    <path fill-rule="evenodd" clip-rule="evenodd"
      d="M557.879 129.657C556.834 129.785 555.773 129.679 554.776 129.347C553.777 129.015 552.864 128.465 552.107 127.737L540.532 116.157C539.799 115.4 539.245 114.49 538.911 113.494C538.578 112.497 538.472 111.439 538.601 110.397V79.6761C538.557 77.697 539.075 75.7456 540.097 74.0471C541.117 72.3485 542.602 70.9718 544.375 70.0758L581.047 54.6556C583.456 53.4874 586.085 52.8334 588.764 52.7355H598.41C598.666 52.7397 598.92 52.6923 599.157 52.5963C599.393 52.5003 599.609 52.3578 599.789 52.177C599.969 51.9963 600.11 51.7811 600.205 51.5446C600.3 51.3081 600.345 51.055 600.339 50.8005V22H615.774V129.657H557.879ZM600.339 112.317V70.0758C600.345 69.822 600.3 69.5695 600.205 69.3339C600.11 69.0981 599.968 68.884 599.788 68.7045C599.608 68.5249 599.392 68.3836 599.156 68.2894C598.918 68.1951 598.665 68.1497 598.41 68.1558H555.966C555.71 68.1497 555.456 68.1951 555.22 68.2894C554.983 68.3836 554.768 68.5249 554.587 68.7045C554.407 68.884 554.265 69.0981 554.171 69.3339C554.076 69.5695 554.03 69.822 554.036 70.0758V112.317C554.03 112.57 554.076 112.823 554.171 113.059C554.265 113.294 554.407 113.508 554.587 113.688C554.768 113.868 554.983 114.009 555.22 114.103C555.456 114.197 555.71 114.243 555.966 114.237H598.41C598.665 114.243 598.918 114.197 599.156 114.103C599.392 114.009 599.608 113.868 599.788 113.688C599.968 113.508 600.11 113.294 600.205 113.059C600.3 112.823 600.345 112.57 600.339 112.317Z"
      fill="#FBCB4A" />
    <path fill-rule="evenodd" clip-rule="evenodd"
      d="M717.318 133.295V71.7521C717.469 70.708 717.372 69.6435 717.038 68.6429C716.703 67.6422 716.14 66.7333 715.392 65.988L703.828 54.4599C703.068 53.7305 702.155 53.1794 701.155 52.8469C700.154 52.5145 699.093 52.4091 698.047 52.5386H659.487C658.443 52.4083 657.383 52.5132 656.384 52.8458C655.387 53.1783 654.477 53.7299 653.721 54.4599L642.142 65.988C641.411 66.7449 640.858 67.6553 640.524 68.6525C640.191 69.6498 640.085 70.7087 640.216 71.7521V102.493C640.173 104.477 640.695 106.432 641.722 108.132C642.746 109.832 644.235 111.208 646.011 112.1L682.628 127.471C685.035 128.642 687.661 129.296 690.337 129.392H699.973C700.228 129.386 700.481 129.432 700.719 129.526C700.955 129.62 701.169 129.762 701.351 129.941C701.531 130.121 701.672 130.335 701.767 130.571C701.862 130.807 701.906 131.06 701.901 131.314V142.842C701.906 143.096 701.862 143.348 701.767 143.584C701.672 143.82 701.531 144.034 701.351 144.214C701.169 144.394 700.955 144.535 700.719 144.629C700.481 144.724 700.228 144.769 699.973 144.763H640.216V160.194H667.211C669.887 160.095 672.513 159.441 674.92 158.272L711.537 142.902C713.312 142.007 714.796 140.631 715.819 138.931C716.841 137.231 717.362 135.277 717.318 133.295ZM657.561 67.9093H699.973C700.228 67.9031 700.481 67.9486 700.719 68.043C700.955 68.1373 701.169 68.2787 701.351 68.4583C701.531 68.638 701.672 68.8523 701.767 69.0881C701.862 69.324 701.906 69.5767 701.901 69.8306V112.1C701.906 112.354 701.862 112.607 701.767 112.843C701.672 113.079 701.531 113.293 701.351 113.473C701.169 113.652 700.955 113.794 700.719 113.888C700.481 113.982 700.228 114.028 699.973 114.022H657.561C657.306 114.028 657.052 113.982 656.815 113.888C656.579 113.794 656.364 113.652 656.183 113.473C656.003 113.293 655.862 113.079 655.767 112.843C655.672 112.607 655.627 112.354 655.633 112.1V69.8306C655.627 69.5767 655.672 69.324 655.767 69.0881C655.862 68.8523 656.003 68.638 656.183 68.4583C656.364 68.2787 656.579 68.1373 656.815 68.043C657.052 67.9486 657.306 67.9031 657.561 67.9093Z"
      fill="#FBCB4A" />
    <path fill-rule="evenodd" clip-rule="evenodd"
      d="M813.184 81.5153L776.534 96.8774C774.126 98.0503 771.499 98.707 768.821 98.8052H759.211C758.956 98.799 758.703 98.8447 758.465 98.9394C758.229 99.034 758.013 99.1757 757.833 99.356C757.654 99.5363 757.511 99.7513 757.417 99.9881C757.322 100.225 757.276 100.478 757.282 100.733V112.3C757.276 112.555 757.322 112.808 757.417 113.045C757.511 113.281 757.654 113.496 757.833 113.677C758.013 113.857 758.229 113.999 758.465 114.093C758.703 114.188 758.956 114.234 759.211 114.227H819V129.71H791.96C789.283 129.612 786.656 128.955 784.247 127.782L747.612 112.3C745.837 111.402 744.351 110.021 743.328 108.315C742.304 106.61 741.784 104.649 741.828 102.661V71.8162C741.698 70.7693 741.803 69.7068 742.137 68.7062C742.471 67.7056 743.024 66.7922 743.755 66.0328L755.324 54.466C756.085 53.7341 756.997 53.1812 757.999 52.8477C758.999 52.5141 760.062 52.4085 761.108 52.5383H799.673C800.721 52.4082 801.786 52.5138 802.79 52.8474C803.793 53.1808 804.71 53.7338 805.471 54.466L817.041 66.0328C818.97 67.9606 818.97 69.4064 818.97 71.8162C819.024 73.8148 818.509 75.7881 817.486 77.5054C816.461 79.2228 814.969 80.6135 813.184 81.5153ZM801.601 67.9606H759.211C758.956 67.9544 758.703 68 758.465 68.0947C758.229 68.1893 758.013 68.3311 757.833 68.5115C757.654 68.6917 757.511 68.9066 757.417 69.1433C757.322 69.3801 757.276 69.6334 757.282 69.8884V81.5153C757.276 81.7701 757.322 82.0236 757.417 82.2603C757.511 82.4971 757.654 82.712 757.833 82.8922C758.013 83.0725 758.229 83.2142 758.465 83.309C758.703 83.4037 758.956 83.4493 759.211 83.4431H801.631C801.887 83.4492 802.14 83.4037 802.378 83.3091C802.615 83.2147 802.831 83.073 803.013 82.8931C803.194 82.713 803.338 82.4982 803.435 82.2614C803.531 82.0246 803.578 81.7708 803.574 81.5153V69.9485C803.587 69.6854 803.545 69.4224 803.45 69.1765C803.355 68.9305 803.211 68.707 803.026 68.52C802.84 68.3328 802.617 68.1866 802.372 68.0903C802.126 67.994 801.864 67.9498 801.601 67.9606Z"
      fill="#FBCB4A" />
    <path
      d="M385.701 52.5381H428.805L412.935 67.9605H383.717C383.455 67.9543 383.194 67.9999 382.951 68.0945C382.706 68.1892 382.486 68.331 382.3 68.5113C382.115 68.6916 381.969 68.9066 381.871 69.1432C381.774 69.38 381.728 69.6334 381.733 69.8883V129.71H365.861V71.8161C365.727 70.7693 365.837 69.7068 366.179 68.7062C366.523 67.7056 367.092 66.7922 367.845 66.0327L379.75 54.4659C380.531 53.7341 381.471 53.1811 382.501 52.8476C383.53 52.5141 384.624 52.4083 385.701 52.5381Z"
      fill="#FBCB4A" />
    <path
      d="M316.441 68.1468H345.483V52.7697H316.441C316.18 52.7902 315.917 52.7541 315.672 52.6638C315.426 52.5736 315.204 52.4312 315.02 52.2468C314.835 52.0624 314.693 51.8404 314.605 51.5962C314.516 51.3519 314.481 51.0912 314.504 50.8324V22H299.014V50.8324C299.037 51.0912 299.002 51.3519 298.914 51.5962C298.825 51.8404 298.683 52.0624 298.498 52.2468C298.314 52.4312 298.092 52.5736 297.846 52.6638C297.602 52.7541 297.34 52.7902 297.078 52.7697H279.729L264.193 68.1468H297.078C297.338 68.1266 297.599 68.1623 297.842 68.2516C298.087 68.341 298.308 68.482 298.493 68.6646C298.677 68.8475 298.819 69.0676 298.909 69.31C298.999 69.5524 299.035 69.8114 299.014 70.069V110.434C298.87 111.475 298.963 112.535 299.292 113.534C299.618 114.533 300.171 115.445 300.905 116.201L312.522 127.734C313.285 128.464 314.202 129.015 315.208 129.347C316.213 129.68 317.28 129.785 318.331 129.656H345.438V114.279H316.394C316.138 114.285 315.885 114.239 315.646 114.145C315.408 114.051 315.192 113.909 315.013 113.729C314.831 113.55 314.689 113.335 314.594 113.099C314.499 112.863 314.453 112.611 314.458 112.357V70.069C314.437 69.8073 314.474 69.544 314.566 69.2982C314.66 69.0522 314.805 68.8295 314.995 68.6461C315.184 68.4625 315.411 68.3226 315.662 68.2362C315.911 68.15 316.177 68.1195 316.441 68.1468Z"
      fill="#FBCB4A" />
    <path
      d="M222.414 52.5435H262.162L246.858 67.9647H220.514C220.261 67.9585 220.009 68.0042 219.774 68.0989C219.539 68.1936 219.325 68.3354 219.146 68.5156C218.966 68.6959 218.827 68.9108 218.732 69.1474C218.638 69.3841 218.592 69.6376 218.599 69.8924V129.71H203.28V71.7599C203.15 70.7132 203.256 69.6507 203.588 68.6502C203.919 67.6496 204.468 66.7362 205.195 65.9769L216.685 54.411C217.442 53.6919 218.349 53.1514 219.341 52.8284C220.331 52.5055 221.38 52.4082 222.414 52.5435Z"
      fill="#FBCB4A" />
  </g>
  <defs>
    <clipPath id="clip0_134_6516">
      <path
        d="M0 8C0 3.58172 3.58172 0 8 0H1132C1136.42 0 1140 3.58172 1140 8V152C1140 156.418 1136.42 160 1132 160H8.00001C3.58173 160 0 156.418 0 152V8Z"
        fill="white" />
    </clipPath>
  </defs>
</svg>