    <svg width="250" viewBox="0 0 179 46" fill="#ffc52a" xmlns="http://www.w3.org/2000/svg">
      <path d="M19.1364 21.5429H26.6118V19.6546H19.1383C19.1383 19.8475 19.1364 21.5607 19.1364 21.5429Z" />
      <path d="M31.7915 17.653L27.2237 15.7251C26.9235 15.5785 26.596 15.4964 26.2622 15.4841H19.5647C19.2308 15.4964 18.9031 15.5785 18.6026 15.7251L14.0355 17.653C13.8145 17.7657 13.6296 17.9384 13.502 18.1515C13.3744 18.3646 13.3091 18.6094 13.3137 18.8579V26.5705C13.3137 26.8115 13.3137 27.0525 13.5541 27.2935L14.997 28.7393C15.2373 28.9803 15.4178 28.9803 15.7181 28.9803H19.0222C19.0222 29.1875 19.0222 30.9257 19.0222 30.9069H26.8329V28.9778H19.0284V27.0525H15.4777C15.2373 27.0525 15.2373 26.8115 15.2373 26.8115V17.653C15.2373 17.653 15.2373 17.412 15.4777 17.412H30.3499C30.5902 17.412 30.5902 17.653 30.5902 17.653V26.8115C30.5902 26.8115 30.5902 27.0525 30.3499 27.0525H26.8347V28.9803H30.1095C30.4098 28.9803 30.5902 28.9803 30.8306 28.7393L32.2729 27.2935C32.5133 27.0525 32.5133 26.8115 32.5133 26.5705V18.8579C32.5178 18.6094 32.4525 18.3646 32.3249 18.1516C32.1972 17.9385 32.0124 17.7657 31.7915 17.653Z" />
      <path d="M46.5359 19.1595V25.734C46.5349 25.7735 46.542 25.8128 46.5568 25.8495C46.5715 25.8862 46.5935 25.9195 46.6216 25.9475C46.6496 25.9754 46.683 25.9974 46.7198 26.0121C46.7566 26.0267 46.796 26.0338 46.8357 26.0329H56.1287V28.4329H47.1355C46.9727 28.4531 46.8075 28.4367 46.6519 28.385C46.4963 28.3333 46.3542 28.2475 46.2361 28.1341L44.4375 26.3317C44.3258 26.2129 44.2419 26.0709 44.1921 25.9158C44.1423 25.7607 44.1277 25.5966 44.1494 25.4352V19.4583C44.1292 19.2961 44.1457 19.1314 44.1975 18.9763C44.2494 18.8212 44.3354 18.6796 44.4492 18.5618L46.2361 16.7594C46.3542 16.646 46.4963 16.5603 46.6519 16.5086C46.8075 16.4569 46.9727 16.4405 47.1355 16.4606H56.1287V18.8607H46.8357C46.796 18.8597 46.7566 18.8668 46.7198 18.8815C46.683 18.8961 46.6496 18.9181 46.6216 18.9461C46.5935 18.974 46.5715 19.0073 46.5568 19.044C46.542 19.0807 46.5349 19.12 46.5359 19.1595Z" />
      <path d="M60.8216 23.946L66.5118 21.548C66.8858 21.3656 67.2939 21.2635 67.7097 21.2483H69.2071C69.2469 21.2508 69.2867 21.2452 69.3242 21.2318C69.3617 21.2184 69.3961 21.1974 69.4253 21.1702C69.4544 21.143 69.4777 21.1102 69.4937 21.0737C69.5097 21.0371 69.518 20.9977 69.5183 20.9579V19.1594C69.5192 19.1197 69.5122 19.0803 69.4974 19.0435C69.4827 19.0067 69.4607 18.9733 69.4327 18.9453C69.4047 18.9172 69.3713 18.8952 69.3345 18.8805C69.2978 18.8657 69.2584 18.8587 69.2188 18.8596H59.9255V16.4522H64.1182C64.5302 16.4659 64.9349 16.5647 65.3068 16.7426L70.997 19.1406C71.2727 19.2802 71.5034 19.495 71.6624 19.7602C71.8214 20.0254 71.9022 20.3302 71.8954 20.6394V25.4354C71.9156 25.5981 71.8992 25.7634 71.8474 25.9189C71.7955 26.0745 71.7096 26.2166 71.5959 26.3346L69.799 28.1332C69.6811 28.247 69.5392 28.3329 69.3837 28.3848C69.2283 28.4367 69.0632 28.4531 68.9006 28.4329H62.9109C62.7483 28.4531 62.5833 28.4367 62.4278 28.3848C62.2724 28.3329 62.1305 28.247 62.0125 28.1332L60.2226 26.344C60.1089 26.2259 60.023 26.0839 59.9712 25.9283C59.9194 25.7727 59.903 25.6075 59.9231 25.4448C59.9164 25.1356 59.9972 24.8307 60.1561 24.5655C60.3151 24.3003 60.5458 24.0856 60.8216 23.946ZM62.6185 26.0536H69.2071C69.2467 26.0546 69.2861 26.0475 69.3228 26.0328C69.3596 26.0181 69.393 25.996 69.421 25.968C69.449 25.9399 69.471 25.9065 69.4858 25.8697C69.5005 25.8329 69.5075 25.7935 69.5066 25.7539V23.9554C69.5075 23.9157 69.5005 23.8763 69.4858 23.8395C69.471 23.8027 69.449 23.7693 69.421 23.7413C69.393 23.7132 69.3596 23.6912 69.3228 23.6765C69.2861 23.6618 69.2467 23.6547 69.2071 23.6556H62.6185C62.5789 23.6547 62.5395 23.6618 62.5027 23.6765C62.466 23.6912 62.4326 23.7132 62.4046 23.7413C62.3766 23.7693 62.3545 23.8027 62.3398 23.8395C62.3251 23.8763 62.318 23.9157 62.319 23.9554V25.7539C62.3193 25.7927 62.3273 25.8311 62.3426 25.8668C62.3579 25.9025 62.3801 25.9348 62.408 25.9619C62.4358 25.9889 62.4688 26.0101 62.5049 26.0242C62.5411 26.0384 62.5797 26.0452 62.6185 26.0443V26.0536Z" />
      <path d="M125.223 28.4413H113.234V26.0448H117.73C117.77 26.0458 117.809 26.0387 117.846 26.0241C117.883 26.0094 117.916 25.9874 117.944 25.9595C117.972 25.9316 117.994 25.8984 118.009 25.8617C118.024 25.8251 118.031 25.7859 118.03 25.7464V19.1818C118.031 19.1424 118.024 19.1031 118.009 19.0665C117.994 19.0299 117.972 18.9966 117.944 18.9687C117.916 18.9408 117.883 18.9188 117.846 18.9042C117.809 18.8895 117.77 18.8825 117.73 18.8834H111.189L113.598 16.5442L117.43 16.4963C117.593 16.4762 117.758 16.4926 117.914 16.5442C118.07 16.5958 118.212 16.6814 118.33 16.7947L120.128 18.585C120.242 18.7026 120.328 18.844 120.38 18.9989C120.431 19.1537 120.448 19.3182 120.428 19.4802V25.7464C120.427 25.7859 120.434 25.8251 120.449 25.8617C120.463 25.8984 120.485 25.9316 120.513 25.9595C120.541 25.9874 120.575 26.0094 120.612 26.0241C120.648 26.0387 120.688 26.0458 120.727 26.0448H125.223V28.4413ZM120.428 11.729V14.1162H118.03V11.7197L120.428 11.729Z" />
      <path d="M130.749 28.4331C130.586 28.453 130.422 28.4365 130.267 28.3849C130.111 28.3334 129.97 28.248 129.852 28.135L128.055 26.3372C127.942 26.2198 127.856 26.0785 127.804 25.9238C127.752 25.7691 127.736 25.6048 127.756 25.443V20.6737C127.749 20.3665 127.829 20.0635 127.988 19.7998C128.146 19.5361 128.377 19.3224 128.652 19.1833L134.345 16.7894C134.719 16.608 135.127 16.5065 135.543 16.4913H137.041C137.08 16.4919 137.12 16.4846 137.157 16.4697C137.193 16.4548 137.227 16.4327 137.255 16.4046C137.283 16.3765 137.305 16.3431 137.319 16.3064C137.334 16.2697 137.341 16.2304 137.34 16.1909V11.7197H139.736V28.4331H130.749ZM137.34 25.7504V19.1833C137.341 19.1439 137.334 19.1047 137.319 19.0681C137.305 19.0315 137.283 18.9983 137.255 18.9704C137.227 18.9426 137.193 18.9206 137.156 18.906C137.12 18.8913 137.08 18.8843 137.041 18.8853H130.451C130.412 18.8843 130.372 18.8913 130.336 18.906C130.299 18.9206 130.265 18.9426 130.237 18.9704C130.209 18.9983 130.187 19.0315 130.173 19.0681C130.158 19.1047 130.151 19.1439 130.152 19.1833V25.7411C130.151 25.7805 130.158 25.8196 130.173 25.8562C130.187 25.8928 130.209 25.9261 130.237 25.954C130.265 25.9818 130.299 26.0038 130.336 26.0184C130.372 26.033 130.412 26.0401 130.451 26.0391H137.041C137.08 26.0401 137.12 26.033 137.156 26.0184C137.193 26.0038 137.227 25.9818 137.255 25.954C137.283 25.9261 137.305 25.8928 137.319 25.8562C137.334 25.8196 137.341 25.7805 137.34 25.7411V25.7504Z" />
      <path d="M155.501 19.4435V28.9978C155.507 29.3055 155.427 29.6088 155.268 29.8728C155.109 30.1367 154.879 30.3504 154.603 30.4892L148.919 32.8755C148.545 33.0568 148.137 33.1584 147.722 33.1738H143.531V30.7782H152.808C152.848 30.7792 152.887 30.7721 152.924 30.7574C152.96 30.7428 152.994 30.7209 153.022 30.693C153.05 30.6651 153.072 30.6318 153.086 30.5952C153.101 30.5586 153.108 30.5194 153.107 30.4799V28.6902C153.108 28.6508 153.101 28.6116 153.086 28.575C153.072 28.5383 153.05 28.5051 153.022 28.4772C152.994 28.4493 152.96 28.4274 152.924 28.4127C152.887 28.398 152.848 28.391 152.808 28.3919H151.312C150.897 28.377 150.489 28.2754 150.115 28.0937L144.431 25.7074C144.155 25.5689 143.924 25.3553 143.765 25.0914C143.605 24.8274 143.524 24.5239 143.531 24.216V19.4435C143.511 19.2815 143.527 19.1171 143.579 18.9623C143.631 18.8075 143.716 18.6662 143.83 18.5487L145.627 16.759C145.745 16.6456 145.886 16.56 146.041 16.5084C146.196 16.4567 146.361 16.4404 146.523 16.4607H152.509C152.671 16.4406 152.836 16.4569 152.991 16.5086C153.147 16.5602 153.289 16.6457 153.406 16.759L155.202 18.5487C155.318 18.6644 155.405 18.8055 155.457 18.9608C155.509 19.1162 155.524 19.2814 155.501 19.4435ZM152.808 18.8469H146.223C146.184 18.846 146.145 18.853 146.108 18.8677C146.071 18.8823 146.038 18.9043 146.01 18.9322C145.982 18.9601 145.96 18.9933 145.945 19.0299C145.93 19.0666 145.923 19.1058 145.924 19.1452V25.7074C145.923 25.7468 145.93 25.7861 145.945 25.8227C145.96 25.8593 145.982 25.8926 146.01 25.9205C146.038 25.9484 146.071 25.9703 146.108 25.9849C146.145 25.9996 146.184 26.0067 146.223 26.0057H152.808C152.848 26.0067 152.887 25.9996 152.924 25.9849C152.96 25.9703 152.994 25.9484 153.022 25.9205C153.05 25.8926 153.072 25.8593 153.086 25.8227C153.101 25.7861 153.108 25.7468 153.107 25.7074V19.1452C153.108 19.1058 153.101 19.0666 153.086 19.0299C153.072 18.9933 153.05 18.9601 153.022 18.9322C152.994 18.9043 152.96 18.8823 152.924 18.8677C152.887 18.853 152.848 18.846 152.808 18.8469Z" />
      <path d="M170.384 20.9592L164.694 23.3441C164.32 23.5262 163.912 23.6282 163.497 23.6434H162.005C161.965 23.6424 161.926 23.6495 161.889 23.6642C161.852 23.6789 161.819 23.7009 161.791 23.7289C161.763 23.7569 161.741 23.7903 161.726 23.827C161.711 23.8638 161.704 23.9031 161.705 23.9427V25.7384C161.704 25.7779 161.711 25.8173 161.726 25.854C161.741 25.8908 161.763 25.9242 161.791 25.9521C161.819 25.9801 161.852 26.0021 161.889 26.0168C161.926 26.0315 161.965 26.0386 162.005 26.0377H171.286V28.4413H167.089C166.673 28.426 166.265 28.3241 165.891 28.142L160.204 25.7384C159.928 25.5991 159.698 25.3846 159.539 25.1198C159.38 24.855 159.299 24.5507 159.306 24.242V19.4534C159.286 19.2909 159.302 19.126 159.354 18.9707C159.406 18.8153 159.491 18.6735 159.605 18.5556L161.401 16.7599C161.519 16.6463 161.661 16.5604 161.816 16.5087C161.972 16.4569 162.137 16.4405 162.299 16.4606H168.286C168.449 16.4404 168.614 16.4568 168.77 16.5086C168.926 16.5604 169.068 16.6462 169.186 16.7599L170.982 18.5556C171.282 18.8549 171.282 19.0793 171.282 19.4534C171.29 19.7637 171.21 20.0701 171.051 20.3367C170.892 20.6033 170.661 20.8192 170.384 20.9592ZM168.585 18.8549H162.005C161.965 18.8539 161.926 18.861 161.889 18.8757C161.852 18.8904 161.819 18.9124 161.791 18.9404C161.763 18.9684 161.741 19.0018 161.726 19.0385C161.711 19.0752 161.704 19.1146 161.705 19.1542V20.9592C161.704 20.9988 161.711 21.0381 161.726 21.0749C161.741 21.1116 161.763 21.145 161.791 21.173C161.819 21.201 161.852 21.223 161.889 21.2377C161.926 21.2524 161.965 21.2595 162.005 21.2585H168.59C168.63 21.2594 168.669 21.2524 168.706 21.2377C168.743 21.223 168.776 21.201 168.805 21.1731C168.833 21.1451 168.855 21.1118 168.87 21.075C168.885 21.0383 168.892 20.9989 168.892 20.9592V19.1635C168.894 19.1227 168.887 19.0818 168.873 19.0436C168.858 19.0055 168.835 18.9708 168.807 18.9417C168.778 18.9127 168.743 18.89 168.705 18.875C168.667 18.8601 168.626 18.8532 168.585 18.8549Z" />
      <path d="M110.71 16.4606H104.018C103.851 16.4404 103.681 16.4569 103.521 16.5086C103.362 16.5604 103.216 16.6463 103.094 16.7599L101.246 18.5556C101.129 18.6735 101.041 18.8153 100.988 18.9706C100.934 19.126 100.918 19.2909 100.938 19.4534V28.4413H103.402V19.1541C103.401 19.1146 103.409 19.0752 103.424 19.0385C103.439 19.0017 103.462 18.9684 103.49 18.9404C103.519 18.9124 103.554 18.8904 103.591 18.8757C103.629 18.861 103.67 18.8539 103.71 18.8549H108.246L110.71 16.4606Z" />
      <path d="M93.266 18.8839H97.7748V16.4966H93.266C93.2255 16.4998 93.1847 16.4942 93.1467 16.4802C93.1086 16.4662 93.074 16.4441 93.0454 16.4154C93.0168 16.3868 92.9948 16.3523 92.981 16.3144C92.9671 16.2765 92.9618 16.236 92.9654 16.1959V11.7197H90.5607V16.1959C90.5642 16.236 90.5589 16.2765 90.5451 16.3144C90.5312 16.3523 90.5093 16.3868 90.4806 16.4154C90.452 16.4441 90.4175 16.4662 90.3794 16.4802C90.3413 16.4942 90.3006 16.4998 90.2601 16.4966H87.5665L85.1548 18.8839H90.2601C90.3004 18.8807 90.3409 18.8863 90.3788 18.9001C90.4167 18.914 90.4511 18.9359 90.4797 18.9643C90.5082 18.9926 90.5303 19.0268 90.5443 19.0644C90.5582 19.1021 90.5638 19.1423 90.5607 19.1823V25.4488C90.5381 25.6104 90.5528 25.7749 90.6037 25.93C90.6545 26.0851 90.7402 26.2267 90.8542 26.3441L92.6577 28.1345C92.7761 28.2478 92.9186 28.3334 93.0746 28.385C93.2306 28.4367 93.3963 28.453 93.5595 28.4329H97.7677V26.0457H93.2589C93.2192 26.0466 93.1796 26.0396 93.1427 26.0249C93.1058 26.0102 93.0723 25.9883 93.0442 25.9604C93.0161 25.9325 92.994 25.8992 92.9792 25.8626C92.9645 25.8259 92.9574 25.7867 92.9583 25.7473V19.1823C92.955 19.1416 92.9607 19.1008 92.9751 19.0626C92.9895 19.0244 93.0122 18.9898 93.0416 18.9614C93.0709 18.9329 93.1063 18.9111 93.145 18.8977C93.1838 18.8844 93.2251 18.8796 93.266 18.8839Z" />
      <path d="M84.8392 16.4614H78.6685C78.5081 16.4404 78.3451 16.4555 78.1913 16.5057C78.0375 16.5558 77.8966 16.6397 77.779 16.7514L75.9953 18.5469C75.8824 18.6648 75.7972 18.8066 75.7457 18.9619C75.6943 19.1173 75.678 19.2822 75.698 19.4447V28.4413H78.0762V19.1548C78.0753 19.1152 78.0823 19.0759 78.0969 19.0391C78.1115 19.0024 78.1334 18.969 78.1612 18.941C78.189 18.9131 78.2221 18.8911 78.2586 18.8764C78.2951 18.8617 78.3342 18.8546 78.3735 18.8555H82.4634L84.8392 16.4614Z" />
    </svg>