<svg viewBox="0 0 1140 160" fill="none" xmlns="http://www.w3.org/2000/svg">
    <path d="M71.8859 14.7749H88.1131V33.4516H71.8859V14.7749Z" fill="#FBCB4A" />
    <path
        d="M48.2884 129.258H18.0263C16.0317 129.258 16.0317 127.252 16.0317 127.252V51.4059C16.0317 51.4059 16.0317 49.4193 18.0263 49.4193H71.8859L71.8859 33.4516H52.0844C52.0844 33.4516 48.0764 33.4516 44.0685 35.4382L6.00256 51.4059C1.99464 53.3926 0 57.4031 0 61.3764V125.247C0 127.252 0 129.239 1.99464 131.244L14.0184 143.22C16.013 145.225 17.523 145.225 20.021 145.225H48.293C48.2949 140.372 48.2971 134.638 48.299 129.368H110.991V145.225H139.979C142.477 145.225 143.987 145.225 145.982 143.22L158.005 131.244C160 129.258 160 127.252 160 125.247V61.3764C160 57.3845 158.005 53.3926 153.997 51.4059L115.931 35.4382C111.924 33.4516 107.916 33.4516 107.916 33.4516H88.1131L88.1131 49.4193H141.992C143.987 49.4193 143.987 51.4059 143.987 51.4059V127.252C143.987 127.252 143.987 129.258 141.992 129.258H111.051V113.514H48.3041C48.3041 115.041 48.29 127.922 48.2884 129.258Z"
        fill="#FBCB4A" />
    <path
        d="M48.2883 89.008H111.051V73.1533H48.3041C48.3041 74.7732 48.2883 89.1571 48.2883 89.008Z"
        fill="#FBCB4A" />
    <path
        d="M241.28 72.3202C239.36 72.3202 239.36 74.2402 239.36 74.2402V116.48C239.36 116.48 239.36 118.4 241.28 118.4H300.8V133.76H243.2C241.28 133.76 239.36 133.76 237.44 131.84L225.92 120.32C224 118.4 224 116.48 224 114.56V76.1602C224 74.2402 224 72.3202 225.92 70.4002L237.44 58.8802C239.36 56.9602 241.28 56.9602 243.2 56.9602H300.8V72.3202H241.28Z"
        fill="#FBCB4A" />
    <path
        d="M316.109 114.56V76.1602C316.109 74.2402 316.109 72.3202 318.029 70.4002L329.549 58.8802C331.469 56.9602 333.389 56.9602 335.309 56.9602H373.709C375.629 56.9602 377.549 56.9602 379.469 58.8802L390.989 70.4002C392.909 72.3202 392.909 74.2402 392.909 76.1602V114.56C392.909 116.48 392.909 118.4 390.989 120.32L379.469 131.84C377.549 133.76 375.629 133.76 373.709 133.76H335.309C333.389 133.76 331.469 133.76 329.549 131.84L318.029 120.32C316.109 118.4 316.109 116.48 316.109 114.56ZM331.469 116.48C331.469 118.4 333.389 118.4 333.389 118.4H375.629C375.629 118.4 377.549 118.4 377.549 116.48V74.2402C377.549 72.3202 375.629 72.3202 375.629 72.3202H333.389C333.389 72.3202 331.469 72.3202 331.469 74.2402V116.48Z"
        fill="#FBCB4A" />
    <path
        d="M469.659 74.2402C469.659 72.3202 467.739 72.3202 467.739 72.3202H425.499C425.499 72.3202 423.579 72.3202 423.579 74.2402V133.76H408.219V76.1602C408.219 74.2402 408.219 72.3202 410.139 70.4002L421.659 58.8802C423.579 56.9602 425.499 56.9602 427.419 56.9602H465.819C467.739 56.9602 469.659 56.9602 471.579 58.8802L483.099 70.4002C485.019 72.3202 485.019 74.2402 485.019 76.1602V133.76H469.659V74.2402Z"
        fill="#FBCB4A" />
    <path
        d="M577.128 133.76H550.248C548.328 133.76 546.408 133.76 544.488 131.84L532.968 120.32C531.048 118.4 531.048 116.6 531.048 114.56V74.2402C531.048 72.2002 529.128 72.3202 529.128 72.3202H500.328V56.9602H529.128C529.128 56.9602 531.048 57.0802 531.048 55.0402V26.2402H546.408V55.0402C546.408 57.0802 548.328 56.9602 548.328 56.9602H577.128V72.3202H548.328C548.328 72.3202 546.408 72.2002 546.408 74.2402V116.48C546.408 118.4 548.328 118.4 548.328 118.4H577.128V133.76Z"
        fill="#FBCB4A" />
    <path
        d="M592.438 133.76V76.1602C592.438 74.2402 592.438 72.3202 594.358 70.4002L605.878 58.8802C607.798 56.9602 609.718 56.9602 611.638 56.9602H669.237V72.3202H609.717C609.717 72.3202 607.798 72.3202 607.798 74.2402V133.76H592.438Z"
        fill="#FBCB4A" />
    <path
        d="M684.547 114.56V76.1602C684.547 74.2402 684.547 72.3202 686.467 70.4002L697.987 58.8802C699.907 56.9602 701.827 56.9602 703.747 56.9602H742.147C744.067 56.9602 745.987 56.9602 747.907 58.8802L759.427 70.4002C761.347 72.3202 761.347 74.2402 761.347 76.1602V114.56C761.347 116.48 761.347 118.4 759.427 120.32L747.907 131.84C745.987 133.76 744.067 133.76 742.147 133.76H703.747C701.827 133.76 699.907 133.76 697.987 131.84L686.467 120.32C684.547 118.4 684.547 116.48 684.547 114.56ZM699.907 116.48C699.907 118.4 701.827 118.4 701.827 118.4H744.067C744.067 118.4 745.987 118.4 745.987 116.48V74.2402C745.987 72.3202 744.067 72.3202 744.067 72.3202H701.827C701.827 72.3202 699.907 72.3202 699.907 74.2402V116.48Z"
        fill="#FBCB4A" />
    <path
        d="M853.456 118.4V133.76H776.656V118.4H805.456C806.296 118.4 807.376 118.52 807.376 116.48V43.5202C807.376 41.4802 806.296 41.6002 805.456 41.6002H776.656V26.2402H803.536C805.456 26.2402 807.376 26.2402 809.296 28.1602L820.816 39.6802C822.736 41.6002 822.736 43.5202 822.736 45.4402V116.48C822.736 118.52 823.816 118.4 824.656 118.4H853.456Z"
        fill="#FBCB4A" />
    <path
        d="M945.566 118.4V133.76H868.766V118.4H897.566C898.406 118.4 899.486 118.52 899.486 116.48V43.5202C899.486 41.4802 898.406 41.6002 897.566 41.6002H868.766V26.2402H895.646C897.566 26.2402 899.486 26.2402 901.406 28.1602L912.926 39.6802C914.846 41.6002 914.846 43.5202 914.846 45.4402V116.48C914.846 118.52 915.926 118.4 916.766 118.4H945.566Z"
        fill="#FBCB4A" />
    <path
        d="M1037.67 76.1602C1037.67 80.0002 1035.75 83.8402 1031.91 85.7602L995.435 101.12C991.595 103.04 987.755 103.04 987.755 103.04H978.155C976.235 103.04 976.235 104.96 976.235 104.96V116.48C976.235 118.4 978.155 118.4 978.155 118.4H1037.67V133.76H1010.79C1010.79 133.76 1006.95 133.76 1003.11 131.84L966.635 116.48C962.795 114.56 960.875 110.72 960.875 106.88V76.1602C960.875 74.2402 960.875 72.3202 962.795 70.4002L974.315 58.8802C976.235 56.9602 978.155 56.9602 980.075 56.9602H1018.47C1020.39 56.9602 1022.31 56.9602 1024.23 58.8802L1035.76 70.4002C1037.68 72.3202 1037.67 73.7602 1037.67 76.1602ZM1022.32 74.2402C1022.32 74.2402 1022.32 72.3202 1020.4 72.3202H978.155C976.235 72.3202 976.235 74.2402 976.235 74.2402V85.7602C976.235 87.6802 978.155 87.6802 978.155 87.6802H1020.4C1022.32 87.6802 1022.32 85.7602 1022.32 85.7602V74.2402Z"
        fill="#FBCB4A" />
    <path
        d="M1052.98 133.76V76.1602C1052.98 74.2402 1052.98 72.3202 1054.9 70.4002L1066.42 58.8802C1068.34 56.9602 1070.26 56.9602 1072.18 56.9602H1129.78V72.3202H1070.26C1070.26 72.3202 1068.34 72.3202 1068.34 74.2402V133.76H1052.98Z"
        fill="#FBCB4A" />
</svg>