<svg viewBox="0 0 1140 160" fill="none" xmlns="http://www.w3.org/2000/svg">
    <path fill-rule="evenodd" clip-rule="evenodd"
        d="M92.7236 111.214L81.2687 122.668L37.9762 79.3759L49.4201 67.9319L36.8837 55.3955C36.8837 55.3955 35.4381 53.9499 33.9926 55.3955L30.9157 58.4719C28.844 60.5436 26.176 61.9154 23.2856 62.3949L0 66.2582L20.9822 45.2764C22.4277 43.8307 23.8733 42.3852 26.7646 42.3852H44.1116C45.3773 42.3852 46.3661 42.6623 47.1991 43.0952L65.542 24.752C65.542 24.752 69.1631 21.1311 74.5943 19.3206L119.358 0.710246C124.79 -1.10024 130.221 0.710327 133.842 4.33129L155.568 26.0571C159.189 29.6781 161 35.1096 159.189 40.5411L140.056 84.782C138.245 90.2134 134.624 93.8344 134.624 93.8344L116.483 111.976C117.196 112.973 117.702 114.178 117.702 115.888V133.235C117.702 136.127 116.256 137.572 114.81 139.018L93.8289 160L97.6921 136.714C98.1716 133.824 99.5434 131.156 101.615 129.084L104.691 126.007C105.729 124.97 105.277 123.933 104.94 123.43L92.7236 111.214ZM60.5328 55.9152L72.4548 67.8372V87.5451L92.2497 87.5452L104.028 99.3235L152.849 50.5023C154.659 48.6919 152.849 46.8814 152.849 46.8814L113.018 7.05063C113.018 7.05063 111.208 5.24015 109.397 7.05063L60.5328 55.9152Z"
        fill="#FBCB4A" />
    <path
        d="M28.7669 90.5777C24.034 95.3106 20.8559 101.373 19.6561 107.958L16.3637 126.028L41.6736 100.719L30.1498 89.1948L28.7669 90.5777Z"
        fill="#FBCB4A" />
    <path
        d="M52.9429 141.327C59.5278 140.128 65.5907 136.949 70.3235 132.217L71.7064 130.834L60.1826 119.31L34.8728 144.62L52.9429 141.327Z"
        fill="#FBCB4A" />
    <path
        d="M300.699 71.6798C300.699 75.5198 298.779 79.3598 294.939 81.2798L258.459 96.6398C254.619 98.5598 250.779 98.5598 250.779 98.5598H241.179C239.259 98.5598 239.259 100.48 239.259 100.48V112C239.259 113.92 241.179 113.92 241.179 113.92H300.699V129.28H273.819C273.819 129.28 269.979 129.28 266.139 127.36L229.659 112C225.819 110.08 223.899 106.24 223.899 102.4V71.6798C223.899 69.7598 223.899 67.8398 225.819 65.9198L237.339 54.3998C239.259 52.4798 241.179 52.4798 243.099 52.4798H281.499C283.419 52.4798 285.339 52.4798 287.259 54.3998L298.779 65.9198C300.699 67.8398 300.699 69.2798 300.699 71.6798ZM285.339 69.7598C285.339 69.7598 285.339 67.8398 283.419 67.8398H241.179C239.259 67.8398 239.259 69.7598 239.259 69.7598V81.2798C239.259 83.1998 241.179 83.1998 241.179 83.1998H283.419C285.339 83.1998 285.339 81.2798 285.339 81.2798V69.7598Z"
        fill="#FBCB4A" />
    <path
        d="M316.009 129.28V110.08C316.009 108.16 316.009 106.24 319.849 102.4L331.369 92.7998C331.369 92.7998 333.289 90.8798 331.369 88.9598L319.849 79.3598C316.009 75.5198 316.009 73.5998 316.009 71.6798V52.4798H331.369V81.2798C331.369 83.1998 331.369 83.1998 333.289 83.1998H375.529C377.449 83.1998 377.449 83.1998 377.449 81.2798V52.4798H392.809V71.6798C392.809 73.5998 392.809 75.5198 388.969 79.3598L377.449 88.9598C375.529 90.8798 377.449 92.7998 377.449 92.7998L388.969 102.4C392.809 106.24 392.809 108.16 392.809 110.08V129.28H377.449V100.48C377.449 100.48 377.449 98.5598 375.529 98.5598H333.289C331.369 98.5598 331.369 100.48 331.369 100.48V129.28H316.009Z"
        fill="#FBCB4A" />
    <path
        d="M408.118 52.4798H465.718C467.638 52.4798 469.558 52.4798 471.478 54.3998L482.998 65.9198C484.918 67.8398 484.918 69.7598 484.918 71.6798V102.4C484.918 106.24 482.998 110.08 479.158 112L442.678 127.36C438.838 129.28 434.998 129.28 434.998 129.28H425.398C425.398 129.28 423.478 129.28 423.478 131.2V160H408.118V52.4798ZM425.398 67.8398C425.398 67.8398 423.478 67.8398 423.478 69.7598V112C423.478 112 423.478 113.92 425.398 113.92H467.638C469.558 113.92 469.558 112 469.558 112V69.7598C469.558 67.8398 467.638 67.8398 467.638 67.8398H425.398Z"
        fill="#FBCB4A" />
    <path
        d="M577.028 113.92V129.28H500.228V113.92H529.028C529.868 113.92 530.948 114.04 530.948 112V39.0398C530.948 36.9998 529.868 37.1198 529.028 37.1198H500.228V21.7598H527.108C529.028 21.7598 530.948 21.7598 532.868 23.6798L544.388 35.1998C546.308 37.1198 546.308 39.0398 546.308 40.9598V112C546.308 114.04 547.388 113.92 548.228 113.92H577.028Z"
        fill="#FBCB4A" />
    <path
        d="M592.337 110.08V71.6798C592.337 69.7598 592.337 67.8398 594.257 65.9198L605.777 54.3998C607.697 52.4798 609.617 52.4798 611.537 52.4798H649.937C651.857 52.4798 653.777 52.4798 655.697 54.3998L667.217 65.9198C669.137 67.8398 669.137 69.7598 669.137 71.6798V110.08C669.137 112 669.137 113.92 667.217 115.84L655.697 127.36C653.777 129.28 651.857 129.28 649.937 129.28H611.537C609.617 129.28 607.697 129.28 605.777 127.36L594.257 115.84C592.337 113.92 592.337 112 592.337 110.08ZM607.697 112C607.697 113.92 609.617 113.92 609.617 113.92H651.857C651.857 113.92 653.777 113.92 653.777 112V69.7598C653.777 67.8398 651.857 67.8398 651.857 67.8398H609.617C609.617 67.8398 607.697 67.8398 607.697 69.7598V112Z"
        fill="#FBCB4A" />
    <path
        d="M684.446 129.28V71.6798C684.446 69.7598 684.446 67.8398 686.366 65.9198L697.886 54.3998C699.806 52.4798 701.726 52.4798 703.646 52.4798H761.246V67.8398H701.726C701.726 67.8398 699.806 67.8398 699.806 69.7598V129.28H684.446Z"
        fill="#FBCB4A" />
    <path
        d="M853.356 71.6798C853.356 75.5198 851.436 79.3598 847.596 81.2798L811.116 96.6398C807.276 98.5598 803.436 98.5598 803.436 98.5598H793.836C791.916 98.5598 791.916 100.48 791.916 100.48V112C791.916 113.92 793.836 113.92 793.836 113.92H853.356V129.28H826.476C826.476 129.28 822.636 129.28 818.796 127.36L782.316 112C778.476 110.08 776.556 106.24 776.556 102.4V71.6798C776.556 69.7598 776.556 67.8398 778.476 65.9198L789.996 54.3998C791.916 52.4798 793.836 52.4798 795.756 52.4798H834.156C836.076 52.4798 837.996 52.4798 839.916 54.3998L851.436 65.9198C853.356 67.8398 853.356 69.2798 853.356 71.6798ZM837.996 69.7598C837.996 69.7598 837.996 67.8398 836.076 67.8398H793.836C791.916 67.8398 791.916 69.7598 791.916 69.7598V81.2798C791.916 83.1998 793.836 83.1998 793.836 83.1998H836.076C837.996 83.1998 837.996 81.2798 837.996 81.2798V69.7598Z"
        fill="#FBCB4A" />
    <path
        d="M868.665 129.28V71.6798C868.665 69.7598 868.665 67.8398 870.585 65.9198L882.105 54.3998C884.025 52.4798 885.945 52.4798 887.865 52.4798H945.465V67.8398H885.945C885.945 67.8398 884.025 67.8398 884.025 69.7598V129.28H868.665Z"
        fill="#FBCB4A" />
</svg>