<svg width="427" height="427" viewBox="0 0 427 427" fill="none" xmlns="http://www.w3.org/2000/svg">
    <rect width="427" height="427" rx="50" fill="black" />
    <rect x="14" y="33" width="400" height="360" rx="50" fill="black" />
    <path
        d="M155.225 182.939H271.551V153.554H155.254C155.254 156.556 155.225 183.216 155.225 182.939Z"
        fill="#FBCB4A" />
    <path
        d="M352.153 122.406L281.073 92.4067C276.401 90.1248 271.304 88.8475 266.111 88.6567H161.89C156.693 88.8479 151.594 90.1251 146.918 92.4067L75.8472 122.406C72.4089 124.16 69.5322 126.849 67.5461 130.165C65.5599 133.48 64.5445 137.289 64.6158 141.156V261.175C64.6158 264.925 64.6158 268.674 68.3564 272.424L90.8094 294.924C94.55 298.674 97.3579 298.674 102.031 298.674H153.447C153.447 301.898 153.447 328.947 153.447 328.654H274.991V298.635H153.544V268.674H98.2905C94.55 268.674 94.55 264.924 94.55 264.924V122.406C94.55 122.406 94.55 118.656 98.2905 118.656H329.72C333.46 118.656 333.46 122.406 333.46 122.406V264.924C333.46 264.924 333.46 268.674 329.72 268.674H275.02V298.674H325.979C330.652 298.674 333.46 298.674 337.201 294.924L359.644 272.424C363.385 268.674 363.385 264.925 363.385 261.175V141.156C363.455 137.29 362.439 133.481 360.453 130.166C358.467 126.85 355.591 124.161 352.153 122.406Z"
        fill="#FBCB4A" />
</svg>
