<svg viewBox="0 0 1144 168" fill="none" xmlns="http://www.w3.org/2000/svg">
    <g filter="url(#filter0_d_131_6463)">
        <path
            d="M104.071 10.2853L124.921 31.1216L36.149 119.894C32.9817 123.061 28.6857 124.84 24.2064 124.84L4 124.838L87.2441 41.5941C88.823 40.0151 89.71 37.8737 89.71 35.6407C89.71 29.8284 84.9982 25.1166 79.1859 25.1166L26.9335 25.1167L49.4894 4.00738L91.7559 4C96.2243 4.59205 100.622 6.83677 104.071 10.2853Z"
            fill="#FBCB4A" />
        <path
            d="M72.239 149.715L51.389 128.878L140.161 40.1064C143.328 36.9391 147.624 35.1598 152.104 35.1602L172.31 35.1616L89.0659 118.406C87.4869 119.985 86.5999 122.126 86.5999 124.359C86.5999 130.172 91.3117 134.883 97.124 134.883L149.376 134.883L126.821 155.993L84.5541 156C80.0857 155.408 75.6875 153.163 72.239 149.715Z"
            fill="#FBCB4A" />
        <path
            d="M236.31 52.4798H293.91C295.83 52.4798 297.75 52.4798 299.67 54.3998L311.19 65.9198C313.11 67.8398 313.11 69.7598 313.11 71.6798V102.4C313.11 106.24 311.19 110.08 307.35 112L270.87 127.36C267.03 129.28 263.19 129.28 263.19 129.28H253.59C253.59 129.28 251.67 129.28 251.67 131.2V160H236.31V52.4798ZM253.59 67.8398C253.59 67.8398 251.67 67.8398 251.67 69.7598V112C251.67 112 251.67 113.92 253.59 113.92H295.83C297.75 113.92 297.75 112 297.75 112V69.7598C297.75 67.8398 295.83 67.8398 295.83 67.8398H253.59Z"
            fill="#FBCB4A" />
        <path
            d="M328.419 110.08C328.419 106.24 330.339 102.4 334.179 100.48L370.659 85.1198C374.499 83.1998 378.339 83.1998 378.339 83.1998H387.939C389.859 83.1998 389.859 81.2798 389.859 81.2798V69.7598C389.859 67.8398 387.939 67.8398 387.939 67.8398H328.419V52.4798H355.299C355.299 52.4798 359.139 52.4798 362.979 54.3998L399.459 69.7598C403.299 71.6798 405.219 75.5198 405.219 79.3598V110.08C405.219 112 405.219 113.92 403.299 115.84L391.779 127.36C389.859 129.28 387.939 129.28 386.019 129.28H347.619C345.699 129.28 343.779 129.28 341.859 127.36L330.339 115.84C328.419 113.92 328.419 112 328.419 110.08ZM343.779 112C343.779 112 343.779 113.92 345.699 113.92H387.939C389.859 113.92 389.859 112 389.859 112V100.48C389.859 98.5598 387.939 98.5598 387.939 98.5598H345.699C343.779 98.5598 343.779 100.48 343.779 100.48V112Z"
            fill="#FBCB4A" />
        <path
            d="M420.528 160V144.64H480.048C481.968 144.64 481.968 142.72 481.968 142.72V131.2C481.968 131.2 481.968 129.28 480.048 129.28H470.448C470.448 129.28 466.608 129.28 462.768 127.36L426.288 112C422.448 110.08 420.528 106.24 420.528 102.4V52.4798H435.888V112C435.888 112 435.888 113.92 437.808 113.92H480.048C480.048 113.92 481.968 113.92 481.968 112V52.4798H497.328V133.12C497.328 136.96 495.408 140.8 491.568 142.72L455.088 158.08C451.248 160 447.408 160 447.408 160H420.528Z"
            fill="#FBCB4A" />
        <path
            d="M512.638 129.28V71.6798C512.638 69.7598 512.638 67.8398 514.558 65.9198L526.078 54.3998C527.998 52.4798 529.918 52.4798 531.838 52.4798H539.518C541.438 52.4798 543.358 52.4798 545.278 54.3998L551.038 60.1598L556.798 54.3998C558.718 52.4798 560.638 52.4798 562.558 52.4798H570.238C572.158 52.4798 574.078 52.4798 575.998 54.3998L587.518 65.9198C589.438 67.8398 589.438 69.7598 589.438 71.6798V129.28H574.078V69.7598C574.078 67.8398 572.158 67.8398 572.158 67.8398H560.638C560.638 67.8398 558.718 67.8398 558.718 69.7598V129.28H543.358V69.7598C543.358 67.8398 541.438 67.8398 541.438 67.8398H529.918C529.918 67.8398 527.998 67.8398 527.998 69.7598V129.28H512.638Z"
            fill="#FBCB4A" />
        <path
            d="M604.747 110.08C604.747 106.24 606.667 102.4 610.507 100.48L646.987 85.1198C650.827 83.1998 654.667 83.1998 654.667 83.1998H664.267C666.187 83.1998 666.187 81.2798 666.187 81.2798V69.7598C666.187 67.8398 664.267 67.8398 664.267 67.8398H604.747V52.4798H631.627C631.627 52.4798 635.467 52.4798 639.307 54.3998L675.787 69.7598C679.627 71.6798 681.547 75.5198 681.547 79.3598V110.08C681.547 112 681.547 113.92 679.627 115.84L668.107 127.36C666.187 129.28 664.267 129.28 662.347 129.28H623.947C622.027 129.28 620.107 129.28 618.187 127.36L606.667 115.84C604.747 113.92 604.747 112 604.747 110.08ZM620.107 112C620.107 112 620.107 113.92 622.027 113.92H664.267C666.187 113.92 666.187 112 666.187 112V100.48C666.187 98.5598 664.267 98.5598 664.267 98.5598H622.027C620.107 98.5598 620.107 100.48 620.107 100.48V112Z"
            fill="#FBCB4A" />
        <path
            d="M712.216 81.2798C712.216 82.3598 713.056 83.1998 714.136 83.1998H754.456C756.376 83.1998 758.296 83.1998 760.216 85.1198L771.736 96.6398C773.656 98.5598 773.656 99.9998 773.656 102.4V110.08C773.656 112 773.656 113.92 771.736 115.84L760.216 127.36C758.296 129.28 756.376 129.28 754.456 129.28H696.856V113.92H756.376C758.296 113.92 758.296 112 758.296 112V100.48C758.296 98.5598 756.376 98.5598 756.376 98.5598H716.056C714.136 98.5598 712.216 98.5598 710.296 96.6398L698.776 85.1198C696.856 83.1998 696.856 79.3598 696.856 79.3598C696.856 75.3998 698.776 71.6798 702.616 69.7598L739.096 54.3998C742.936 52.4798 746.776 52.4798 746.776 52.4798H773.656V67.8398H714.136C713.056 67.8398 712.216 68.6798 712.216 69.7598V81.2798Z"
            fill="#FBCB4A" />
        <path
            d="M865.766 129.28H838.886C836.966 129.28 835.046 129.28 833.126 127.36L821.606 115.84C819.686 113.92 819.686 112.12 819.686 110.08V69.7598C819.686 67.7198 817.766 67.8398 817.766 67.8398H788.966V52.4798H817.766C817.766 52.4798 819.686 52.5998 819.686 50.5598V21.7598H835.046V50.5598C835.046 52.5998 836.966 52.4798 836.966 52.4798H865.766V67.8398H836.966C836.966 67.8398 835.046 67.7198 835.046 69.7598V112C835.046 113.92 836.966 113.92 836.966 113.92H865.766V129.28Z"
            fill="#FBCB4A" />
        <path
            d="M957.875 71.6798C957.875 75.5198 955.955 79.3598 952.115 81.2798L915.635 96.6398C911.795 98.5598 907.955 98.5598 907.955 98.5598H898.355C896.435 98.5598 896.435 100.48 896.435 100.48V112C896.435 113.92 898.355 113.92 898.355 113.92H957.875V129.28H930.995C930.995 129.28 927.155 129.28 923.315 127.36L886.835 112C882.995 110.08 881.075 106.24 881.075 102.4V71.6798C881.075 69.7598 881.075 67.8398 882.995 65.9198L894.515 54.3998C896.435 52.4798 898.355 52.4798 900.275 52.4798H938.675C940.595 52.4798 942.515 52.4798 944.435 54.3998L955.955 65.9198C957.875 67.8398 957.875 69.2798 957.875 71.6798ZM942.515 69.7598C942.515 69.7598 942.515 67.8398 940.595 67.8398H898.355C896.435 67.8398 896.435 69.7598 896.435 69.7598V81.2798C896.435 83.1998 898.355 83.1998 898.355 83.1998H940.595C942.515 83.1998 942.515 81.2798 942.515 81.2798V69.7598Z"
            fill="#FBCB4A" />
        <path
            d="M973.185 129.28V71.6798C973.185 69.7598 973.185 67.8398 975.105 65.9198L986.625 54.3998C988.545 52.4798 990.465 52.4798 992.385 52.4798H1049.98V67.8398H990.465C990.465 67.8398 988.545 67.8398 988.545 69.7598V129.28H973.185Z"
            fill="#FBCB4A" />
    </g>
    <defs>
        <filter id="filter0_d_131_6463" x="0" y="0" width="1148" height="168"
            filterUnits="userSpaceOnUse" color-interpolation-filters="sRGB">
            <feFlood flood-opacity="0" result="BackgroundImageFix" />
            <feColorMatrix in="SourceAlpha" type="matrix"
                values="0 0 0 0 0 0 0 0 0 0 0 0 0 0 0 0 0 0 127 0" result="hardAlpha" />
            <feOffset dy="4" />
            <feGaussianBlur stdDeviation="2" />
            <feComposite in2="hardAlpha" operator="out" />
            <feColorMatrix type="matrix" values="0 0 0 0 0 0 0 0 0 0 0 0 0 0 0 0 0 0 0.25 0" />
            <feBlend mode="normal" in2="BackgroundImageFix" result="effect1_dropShadow_131_6463" />
            <feBlend mode="normal" in="SourceGraphic" in2="effect1_dropShadow_131_6463"
                result="shape" />
        </filter>
    </defs>
</svg>