<svg viewBox="0 0 1140 160" fill="none" xmlns="http://www.w3.org/2000/svg">
    <path d="M113.975 0.340129L159.32 45.685L144.001 61.0044L98.6558 15.6595L113.975 0.340129Z"
        fill="#FBCB4A" />
    <path
        d="M98.6558 15.6595L87.3284 4.33385C85.3609 2.34128 82.9041 0.00990527 78.9793 0L56.2366 1.04796C52.3118 1.03806 50.1489 2.8654 48.1916 4.84808L37.3798 15.6599L144.001 122.281L154.813 111.469C156.77 109.487 158.727 107.504 158.717 103.529L158.656 79.6771C158.646 75.7018 156.679 73.7093 154.711 71.7167L144.001 61.0044L128.682 76.3236L83.3366 30.9787L98.6558 15.6595Z"
        fill="#FBCB4A" />
    <path
        d="M45.3449 159.66L0 114.315L15.3203 98.9947L4.60899 88.2833C2.64148 86.2907 0.673981 84.2982 0.663818 80.3229L0.602822 56.4714C0.592665 52.4961 2.55002 50.5134 4.50736 48.5307L15.3192 37.7189L121.94 144.34L111.129 155.152C109.171 157.135 107.008 158.962 103.083 158.952L80.3409 160C76.416 159.99 73.9592 157.659 71.9917 155.666L60.6653 144.34L75.9834 129.022L30.6385 83.6766L15.3203 98.9947L60.6653 144.34L45.3449 159.66Z"
        fill="#FBCB4A" />
    <path
        d="M238.68 85.7602C238.68 86.8402 239.52 87.6802 240.6 87.6802H280.92C282.84 87.6802 284.76 87.6802 286.68 89.6002L298.2 101.12C300.12 103.04 300.12 104.48 300.12 106.88V114.56C300.12 116.48 300.12 118.4 298.2 120.32L286.68 131.84C284.76 133.76 282.84 133.76 280.92 133.76H223.32V118.4H282.84C284.76 118.4 284.76 116.48 284.76 116.48V104.96C284.76 103.04 282.84 103.04 282.84 103.04H242.52C240.6 103.04 238.68 103.04 236.76 101.12L225.24 89.6002C223.32 87.6802 223.32 83.8402 223.32 83.8402C223.32 79.8802 225.24 76.1602 229.08 74.2402L265.56 58.8802C269.4 56.9602 273.24 56.9602 273.24 56.9602H300.12V72.3202H240.6C239.52 72.3202 238.68 73.1602 238.68 74.2402V85.7602Z"
        fill="#FBCB4A" />
    <path
        d="M392.23 118.4V133.76H315.43V118.4H344.23C345.07 118.4 346.15 118.52 346.15 116.48V43.5202C346.15 41.4802 345.07 41.6002 344.23 41.6002H315.43V26.2402H342.31C344.23 26.2402 346.15 26.2402 348.07 28.1602L359.59 39.6802C361.51 41.6002 361.51 43.5202 361.51 45.4402V116.48C361.51 118.52 362.59 118.4 363.43 118.4H392.23Z"
        fill="#FBCB4A" />
    <path
        d="M407.539 114.56V76.1602C407.539 74.2402 407.539 72.3202 409.459 70.4002L420.979 58.8802C422.899 56.9602 424.819 56.9602 426.739 56.9602H465.139C467.059 56.9602 468.979 56.9602 470.899 58.8802L482.419 70.4002C484.339 72.3202 484.339 74.2402 484.339 76.1602V114.56C484.339 116.48 484.339 118.4 482.419 120.32L470.899 131.84C468.979 133.76 467.059 133.76 465.139 133.76H426.739C424.819 133.76 422.899 133.76 420.979 131.84L409.459 120.32C407.539 118.4 407.539 116.48 407.539 114.56ZM422.899 116.48C422.899 118.4 424.819 118.4 424.819 118.4H467.059C467.059 118.4 468.979 118.4 468.979 116.48V74.2402C468.979 72.3202 467.059 72.3202 467.059 72.3202H424.819C424.819 72.3202 422.899 72.3202 422.899 74.2402V116.48Z"
        fill="#FBCB4A" />
    <path
        d="M576.448 133.76H549.568C547.648 133.76 545.728 133.76 543.808 131.84L532.288 120.32C530.368 118.4 530.368 116.6 530.368 114.56V74.2402C530.368 72.2002 528.448 72.3202 528.448 72.3202H499.648V56.9602H528.448C528.448 56.9602 530.368 57.0802 530.368 55.0402V26.2402H545.728V55.0402C545.728 57.0802 547.648 56.9602 547.648 56.9602H576.448V72.3202H547.648C547.648 72.3202 545.728 72.2002 545.728 74.2402V116.48C545.728 118.4 547.648 118.4 547.648 118.4H576.448V133.76Z"
        fill="#FBCB4A" />
</svg>