<svg xmlns="http://www.w3.org/2000/svg" width="24" height="24" fill="none">
  <path fill="#000" d="M6.001 14.704c-.403 0-.762-.09-1.078-.272a1.986 1.986 0 0 1-.745-.745v.916H3V7.252h1.35v3c.187-.315.432-.563.735-.744a2.09 2.09 0 0 1 1.077-.272c.343 0 .655.073.937.221.282.141.523.34.725.594.208.255.366.547.473.877.114.328.171.68.171 1.057a2.9 2.9 0 0 1-.191 1.057 2.79 2.79 0 0 1-.514.876 2.404 2.404 0 0 1-.785.585 2.333 2.333 0 0 1-.977.2Zm-.373-1.148c.215 0 .41-.04.585-.12.18-.088.335-.202.463-.343.134-.141.235-.306.302-.494a1.69 1.69 0 0 0 .11-.604c0-.289-.06-.554-.18-.796a1.458 1.458 0 0 0-.484-.594 1.176 1.176 0 0 0-.715-.221 1.21 1.21 0 0 0-.564.14 1.622 1.622 0 0 0-.473.363 1.898 1.898 0 0 0-.323.524v1.259c.04.134.105.255.192.362.094.108.201.202.322.282.12.074.245.134.373.181.134.04.265.06.392.06Zm6.897-3.062c-.41 0-.776.081-1.098.242-.322.154-.554.38-.695.675v3.192h-1.35V9.326h1.24v1.128c.187-.362.426-.648.714-.856.289-.208.594-.322.917-.342h.17c.041 0 .075.003.102.01v1.228Zm.752 4.11V9.325h1.35v5.277h-1.35Zm0-6.013v-1.34h1.35v1.34h-1.35Zm4.56 6.113c-.335 0-.644-.07-.926-.212a2.41 2.41 0 0 1-.735-.594 2.704 2.704 0 0 1-.483-.876 3.48 3.48 0 0 1-.161-1.067c0-.383.06-.739.181-1.068.128-.329.302-.617.524-.866.221-.248.483-.44.785-.574.302-.14.628-.211.977-.211.403 0 .759.094 1.067.282.31.18.561.423.756.725v-.917H21v7.422h-1.35v-3.071c-.402.684-1.006 1.027-1.812 1.027Zm.504-1.148c.195 0 .37-.037.524-.11a1.48 1.48 0 0 0 .433-.303c.134-.134.252-.285.353-.453V11.44a1.103 1.103 0 0 0-.192-.413 1.374 1.374 0 0 0-.322-.332c-.12-.1-.252-.178-.393-.232a1.18 1.18 0 0 0-.423-.08c-.208 0-.4.043-.574.13a1.424 1.424 0 0 0-.443.363 1.55 1.55 0 0 0-.292.514c-.067.188-.1.39-.1.604 0 .289.06.55.18.786.122.234.29.422.504.563.215.141.463.212.745.212Z"/>
</svg>
