<svg xmlns="http://www.w3.org/2000/svg" width="24" height="24" fill="none">
  <path fill="#000" d="M17.935 6.598a.044.044 0 0 0-.022-.02A14.075 14.075 0 0 0 14.44 5.5a.053.053 0 0 0-.056.026 9.787 9.787 0 0 0-.432.888 12.996 12.996 0 0 0-3.901 0c-.13-.304-.277-.6-.44-.888a.055.055 0 0 0-.055-.026c-1.2.207-2.367.569-3.473 1.077a.05.05 0 0 0-.023.02C3.848 9.9 3.242 13.122 3.54 16.304a.059.059 0 0 0 .021.04 14.152 14.152 0 0 0 4.261 2.153.055.055 0 0 0 .06-.02c.329-.448.62-.922.871-1.417a.054.054 0 0 0-.03-.075 9.32 9.32 0 0 1-1.33-.634.054.054 0 0 1-.027-.044.055.055 0 0 1 .022-.047c.089-.067.178-.137.264-.207a.053.053 0 0 1 .055-.008c2.792 1.275 5.816 1.275 8.575 0a.052.052 0 0 1 .056.007c.085.07.174.14.265.208a.055.055 0 0 1 .021.046.054.054 0 0 1-.026.045c-.425.248-.87.46-1.332.633a.055.055 0 0 0-.029.076c.256.493.547.966.871 1.416a.055.055 0 0 0 .06.02 14.105 14.105 0 0 0 4.268-2.152.056.056 0 0 0 .022-.04c.356-3.678-.596-6.874-2.523-9.707Zm-8.764 7.77c-.841 0-1.534-.772-1.534-1.72 0-.947.68-1.719 1.534-1.719.86 0 1.546.778 1.533 1.72 0 .947-.68 1.718-1.533 1.718Zm5.669 0c-.84 0-1.533-.772-1.533-1.72 0-.947.679-1.719 1.533-1.719.86 0 1.547.778 1.534 1.72 0 .947-.673 1.718-1.534 1.718Z"/>
</svg>
