<svg xmlns="http://www.w3.org/2000/svg" width="24" height="24" fill="none">
  <path fill="#000" d="M18.431 8.603c.286 0 .565-.123.772-.34l1.616-1.261A.477.477 0 0 0 21 6.629v-.866L3 5.708v.765c0 .137.058.264.156.355l1.612 1.445c.21.236.5.37.8.37h1.28v2.899l-.667-.682a1.113 1.113 0 0 0-.797-.336l-2.054-.011v2.616l3.514.04v5.123l.616-.613 1.993-1.985.105-.105v-4.906c-.015-.178-.029-.355-.05-.533-.022-.192-.059-.387-.084-.58-.044-.293-.109-.58-.174-.865 0-.015-.007-.022 0-.037.033-.047.246-.097.3-.072a2.57 2.57 0 0 0 1.026.26c.105.004.21.008.315.008l2.74-.007a2.613 2.613 0 0 0 1.018-.261c.054-.025.268.025.3.072.008.011 0 .022 0 .037-.065.286-.13.576-.174.866-.029.192-.061.384-.083.58-.025.202-.04.409-.058.612v4.786l2.62 2.739v-5.123l3.699-.04v-2.616l-2.435.01c-.297 0-.587.124-.797.338l-.467.478V8.607h1.177v-.004Z"/>
  <path fill="#000" d="M12 13.604a1.666 1.666 0 1 0 0-3.333 1.666 1.666 0 0 0 0 3.333Z"/>
</svg>
