<svg xmlns="http://www.w3.org/2000/svg" width="24" height="24" fill="none">
  <path fill="#000" d="M13.068 11.582c.198.35.486.379.677.088.252-.38.465-.819.555-1.261.058-.284.038-.69-.293-.898-.229-.145-.553-.13-.674.07-.2.329-.511.642-.423 1.128.084.257-.006.583.158.873Zm-2.136-.139c.205-.015.359-.082.455-.317.162-.392.367-.763.27-1.224.023-.273.046-.556-.114-.827-.24-.408-.541-.373-.811-.087-.485.514-.565 1.482-.249 2.138.1.208.223.334.45.317Zm4.132.346c-.113-.108-.369.093-.476.278-.102.175-.085.376.065.489.252.19.097.35.042.555-.29 1.09-1.114 1.573-2.11 1.795-.697.157-1.426-.055-1.972-.43-.592-.406-.951-1.095-1.275-1.766-.234-.484-.426-.892.186-1.235.202-.113.324-.317.22-.572-.107-.262-.348-.276-.566-.236a1.2 1.2 0 0 1-.813-.127c-.178-.093-.383-.153-.554.04-.17.193-.045.377.003.568.072.282.375.44.375.767.002.923.346 1.674.92 2.428.693.912 1.526 1.365 2.607 1.594.434.092.772-.152 1.282-.035.813.029 1.399-.624 1.976-1.165.576-.542.577-1.524 1.352-1.98.247-.144.238-.427.126-.664-.317-.67-.968.098-1.388-.304Zm4.81-1.426c-.076-.594-.276-1.16-.394-1.743-.215-1.061-1.073-1.835-1.748-2.658-.27-.327-.597-.703-.96-.885a10.343 10.343 0 0 0-3.409-1.04c-1.107-.13-2.233.105-3.305.448-.311.1-.65.048-.945.28-.787.624-1.68 1.102-2.4 1.822-.258.262-.499.542-.719.837-.448.594-.658 1.358-1.163 1.89a.659.659 0 0 0-.14.281c-.111.396-.133.792-.287 1.178-.161.404-.34.781-.281 1.23.048.37.121.72.11 1.094.17.935.23 1.886.552 2.79.14.391.423.679.648.994.738 1.032 1.454 2.124 2.836 2.416.196.041.397.096.572.189 1.12.59 2.34.55 3.529.466 1.499-.105 2.84-.715 3.971-1.722.254-.225.614-.271.814-.567.479-.707 1.133-1.292 1.476-2.095.34-.795.647-1.6 1.009-2.385.13-.281.162-.573.168-.87.004-.17-.002-.344-.002-.515-.002-.478.127-.961.067-1.438v.003Zm-1.977 1.856c-.296 1.76-.993 3.42-2.604 4.501-.845.568-1.642 1.153-2.744 1.175-.43.009-.856.35-1.358.247-1.045-.173-1.969-.547-2.917-1.125-1.185-.721-1.38-1.93-2.037-2.903-.057-.085-.094-.238-.056-.322.334-.728-.08-1.455.006-2.203.079-.679.376-1.226.625-1.792.345-.786.925-1.449 1.559-2.045.817-.768 1.677-1.5 2.848-1.577.463-.03.82-.327 1.288-.3 1.764.102 3.188.71 4.317 2.19.981 1.285 1.317 2.7 1.072 4.151l.001.003Z"/>
</svg>
