<svg xmlns="http://www.w3.org/2000/svg" width="24" height="24" fill="none">
  <path fill="#000" d="M7.325 11.618a.678.678 0 0 1 .681-.678l1.13.003a.68.68 0 0 1 .679.68v4.272c.127-.038.29-.078.469-.12a.565.565 0 0 0 .436-.551v-5.3a.68.68 0 0 1 .68-.679h1.13a.679.679 0 0 1 .68.68v4.918s.283-.115.56-.231a.567.567 0 0 0 .345-.522V8.226a.68.68 0 0 1 .68-.679h1.13a.68.68 0 0 1 .68.68v4.828c.981-.711 1.975-1.567 2.764-2.596a1.14 1.14 0 0 0 .174-1.064A7.987 7.987 0 0 0 12.1 4C7.665 3.94 4 7.563 4 12a7.977 7.977 0 0 0 1.062 4.001 1.011 1.011 0 0 0 .964.5c.215-.019.481-.045.798-.082a.565.565 0 0 0 .502-.562v-4.24ZM7.3 18.47a7.995 7.995 0 0 0 12.68-7.017c-2.922 4.358-8.317 6.396-12.68 7.017Z"/>
</svg>
