<svg xmlns="http://www.w3.org/2000/svg" width="24" height="24" fill="none">
  <path fill="#000" d="M20 11.998c0-2.138-.84-4.077-2.205-5.513l-.046.046-.336 3.317-6.443 5.958.36.36-.305.307-.258-.258-.185.106 1.2.894-1.287.418s-.788-.89-.885-.797c-.097.094-.251.036-.251.036l-.36-.36-.146.145-.312-.312-1.739 1.74a7.998 7.998 0 0 0 13.192-6.082l.006-.005ZM7.905 15.688l-.312-.312.145-.145-.36-.36s-.061-.155.036-.252-.797-.885-.797-.885l.418-1.287.894 1.2.106-.185-.258-.258.306-.306.36.36 5.96-6.436 3.316-.337.036-.036A7.951 7.951 0 0 0 12 4a8 8 0 0 0-5.855 13.449l1.76-1.76Z"/>
</svg>
