<svg xmlns="http://www.w3.org/2000/svg" width="24" height="24" fill="none">
  <path fill="#000" d="M5.778 5.441h1.69v1.586h-1.69V5.441Z"/>
  <path fill="#000" d="M5.778 6.883h1.69v1.585h-1.69V6.883Z"/>
  <path fill="#000" d="M5.778 8.324h1.69V9.91h-1.69V8.324Z"/>
  <path fill="#000" d="M5.778 9.766h1.69v1.585h-1.69V9.766Z"/>
  <path fill="#000" d="M5.778 11.207h1.69v1.586h-1.69v-1.586Z"/>
  <path fill="#000" d="M5.778 12.649h1.69v1.585h-1.69V12.65Z"/>
  <path fill="#000" d="M5.778 14.09h1.69v1.586h-1.69V14.09Z"/>
  <path fill="#000" d="M5.778 15.531h1.69v1.586h-1.69v-1.586Z"/>
  <path fill="#000" d="M5.778 16.973h1.69v1.586h-1.69v-1.586Z"/>
  <path fill="#000" d="M7.314 18.414h1.69V20h-1.69v-1.586Z"/>
  <path fill="#000" d="M8.85 18.414h1.69V20H8.85v-1.586Z"/>
  <path fill="#000" d="M10.387 18.414h1.69V20h-1.69v-1.586Z"/>
  <path fill="#000" d="M11.923 18.414h1.69V20h-1.69v-1.586Z"/>
  <path fill="#000" d="M13.46 18.414h1.69V20h-1.69v-1.586Z"/>
  <path fill="#000" d="M14.996 18.414h1.69V20h-1.69v-1.586Z"/>
  <path fill="#000" d="M16.532 16.973h1.69v1.586h-1.69v-1.586Z"/>
  <path fill="#000" d="M16.532 15.531h1.69v1.586h-1.69v-1.586Z"/>
  <path fill="#000" d="M16.532 14.09h1.69v1.586h-1.69V14.09Z"/>
  <path fill="#000" d="M16.532 12.649h1.69v1.585h-1.69V12.65Z"/>
  <path fill="#000" d="M16.532 11.207h1.69v1.586h-1.69v-1.586Z"/>
  <path fill="#000" d="M16.532 9.766h1.69v1.585h-1.69V9.766Z"/>
  <path fill="#000" d="M16.532 8.324h1.69V9.91h-1.69V8.324Z"/>
  <path fill="#000" d="M16.532 6.883h1.69v1.585h-1.69V6.883Z"/>
  <path fill="#000" d="M16.532 5.441h1.69v1.586h-1.69V5.441Z"/>
  <path fill="#000" d="M14.996 4h1.69v1.586h-1.69V4Z"/>
  <path fill="#000" d="M13.46 4h1.69v1.586h-1.69V4Z"/>
  <path fill="#000" d="M11.923 4h1.69v1.586h-1.69V4Z"/>
  <path fill="#000" d="M10.387 4h1.69v1.586h-1.69V4Z"/>
  <path fill="#000" d="M8.85 4h1.69v1.586H8.85V4Z"/>
  <path fill="#000" d="M7.314 4h1.69v1.586h-1.69V4ZM7.314 6.883h1.69v1.585h-1.69V6.883Z"/>
  <path fill="#000" d="M7.314 8.324h1.69V9.91h-1.69V8.324ZM10.54 8.324h1.69V9.91h-1.69V8.324Z"/>
  <path fill="#000" d="M10.54 6.883h1.69v1.585h-1.69V6.883Z"/>
  <path fill="#000" d="M10.54 5.441h1.69v1.586h-1.69V5.441Z"/>
  <path fill="#000" d="M9.004 5.441h1.69v1.586h-1.69V5.441Z"/>
  <path fill="#000" d="M7.468 5.441h1.69v1.586h-1.69V5.441ZM11.77 6.883h1.69v1.585h-1.69V6.883Z"/>
  <path fill="#000" d="M11.77 5.441h1.69v1.586h-1.69V5.441Z"/>
  <path fill="#000" d="M13.306 5.441h1.69v1.586h-1.69V5.441Z"/>
  <path fill="#000" d="M14.842 5.441h1.69v1.586h-1.69V5.441ZM11.77 8.324h1.69V9.91h-1.69V8.324Z"/>
  <path fill="#000" d="M11.77 9.766h1.69v1.585h-1.69V9.766Z"/>
  <path fill="#000" d="M13.306 9.766h1.69v1.585h-1.69V9.766Z"/>
  <path fill="#000" d="M14.842 9.766h1.69v1.585h-1.69V9.766ZM10.233 9.766h1.69v1.585h-1.69V9.766Z"/>
  <path fill="#000" d="M8.697 9.766h1.69v1.585h-1.69V9.766Z"/>
  <path fill="#000" d="M7.16 9.766h1.69v1.585H7.16V9.766ZM11.77 11.207h1.69v1.586h-1.69v-1.586Z"/>
  <path fill="#000" d="M13.306 11.207h1.69v1.586h-1.69v-1.586Z"/>
  <path fill="#000" d="M14.842 11.207h1.69v1.586h-1.69v-1.586ZM10.233 11.207h1.69v1.586h-1.69v-1.586Z"/>
  <path fill="#000" d="M8.697 11.207h1.69v1.586h-1.69v-1.586Z"/>
  <path fill="#000" d="M7.16 11.207h1.69v1.586H7.16v-1.586ZM11.77 12.649h1.69v1.585h-1.69V12.65Z"/>
  <path fill="#000" d="M13.306 12.649h1.69v1.585h-1.69V12.65Z"/>
  <path fill="#000" d="M14.842 12.649h1.69v1.585h-1.69V12.65ZM10.233 12.649h1.69v1.585h-1.69V12.65Z"/>
  <path fill="#000" d="M8.697 12.649h1.69v1.585h-1.69V12.65Z"/>
  <path fill="#000" d="M7.16 12.649h1.69v1.585H7.16V12.65ZM11.77 14.09h1.69v1.586h-1.69V14.09Z"/>
  <path fill="#000" d="M13.306 14.09h1.69v1.586h-1.69V14.09Z"/>
  <path fill="#000" d="M14.842 14.09h1.69v1.586h-1.69V14.09ZM10.233 14.09h1.69v1.586h-1.69V14.09Z"/>
  <path fill="#000" d="M8.697 14.09h1.69v1.586h-1.69V14.09Z"/>
  <path fill="#000" d="M7.16 14.09h1.69v1.586H7.16V14.09ZM11.77 15.531h1.69v1.586h-1.69v-1.586Z"/>
  <path fill="#000" d="M13.306 15.531h1.69v1.586h-1.69v-1.586Z"/>
  <path fill="#000" d="M14.842 15.531h1.69v1.586h-1.69v-1.586ZM10.233 15.531h1.69v1.586h-1.69v-1.586Z"/>
  <path fill="#000" d="M8.697 15.531h1.69v1.586h-1.69v-1.586Z"/>
  <path fill="#000" d="M7.16 15.531h1.69v1.586H7.16v-1.586ZM11.77 16.973h1.69v1.586h-1.69v-1.586Z"/>
  <path fill="#000" d="M13.306 16.973h1.69v1.586h-1.69v-1.586Z"/>
  <path fill="#000" d="M14.842 16.973h1.69v1.586h-1.69v-1.586ZM10.233 16.973h1.69v1.586h-1.69v-1.586Z"/>
  <path fill="#000" d="M8.697 16.973h1.69v1.586h-1.69v-1.586Z"/>
  <path fill="#000" d="M7.16 16.973h1.69v1.586H7.16v-1.586ZM14.996 8.324h1.69V9.91h-1.69V8.324Z"/>
  <path fill="#000" d="M14.996 6.883h1.69v1.585h-1.69V6.883Z"/>
</svg>
