<svg xmlns="http://www.w3.org/2000/svg" width="24" height="24" fill="none">
  <path fill="#000" d="M10.091 14.575c0 .74-.386 1.951-1.3 1.951-.913 0-1.3-1.211-1.3-1.951s.387-1.952 1.3-1.952c.914 0 1.3 1.211 1.3 1.952ZM20.5 12.786c0 1.13-.113 2.327-.62 3.365-1.342 2.712-5.032 2.649-7.675 2.649-2.684 0-6.594.095-7.99-2.65-.517-1.026-.715-2.234-.715-3.364 0-1.484.492-2.886 1.47-4.023a5.544 5.544 0 0 1-.273-1.729c0-.761.174-1.144.517-1.834 1.605 0 2.632.318 3.854 1.275a13.566 13.566 0 0 1 3.141-.354c.956 0 1.92.102 2.848.325 1.204-.945 2.23-1.246 3.817-1.246.348.69.518 1.073.518 1.834 0 .581-.093 1.158-.273 1.707.974 1.148 1.381 2.561 1.381 4.045Zm-2.277 1.789c0-1.555-.946-2.926-2.603-2.926-.67 0-1.31.12-1.984.213-.527.081-1.055.113-1.597.113-.538 0-1.066-.032-1.597-.113-.663-.092-1.31-.213-1.984-.213-1.657 0-2.603 1.37-2.603 2.926 0 3.11 2.848 3.587 5.327 3.587h1.707c2.49 0 5.334-.474 5.334-3.587Zm-2.926-1.952c-.914 0-1.3 1.211-1.3 1.952 0 .74.386 1.951 1.3 1.951s1.3-1.211 1.3-1.951-.386-1.952-1.3-1.952Z"/>
</svg>
