<svg xmlns="http://www.w3.org/2000/svg" width="24" height="24" fill="none">
  <path fill="#000" d="m4.456 6.616.848.047c.325-.042.556-.063.691-.063.503 0 .755.179.755.535 0 .115-.068.23-.204.346-.147.136-.236.246-.268.33-.083.252-.125.958-.125 2.122 0 .084.005.188.015.314 0 .084.003.231.008.441.006.21.008.377.008.503v.408c0 .43-.01.865-.03 1.304a1.511 1.511 0 0 0 0 .425c.01.157.014.314.014.471 0 .074-.005.147-.015.22v.142c0 .032.016.178.047.44l.016.817v-.016l.015.236.126.252c.01.042.032.094.063.157 0 .01.003.024.008.04a.548.548 0 0 0 .023.055.12.12 0 0 1 .016.047l.22.22c.094.167.142.288.142.361 0 .262-.095.393-.283.393h-.44c-.032 0-.053.005-.064.016-.073.01-.172.015-.297.015h-.048a.144.144 0 0 0-.063-.015.95.95 0 0 1-.078-.008.856.856 0 0 0-.11-.008l-.629.016h-.063c-.115 0-.288-.042-.518-.126-.116-.063-.174-.178-.174-.346 0-.104.037-.194.11-.268l.347-.313a.754.754 0 0 0 .094-.393c0-.032.01-.1.031-.205a3.615 3.615 0 0 1 .031-.409.525.525 0 0 0 .031-.156c0-.042-.01-.126-.03-.252a2.17 2.17 0 0 1-.017-.299c0-.188.006-.35.016-.487v.015c0-.02.003-.057.008-.108a1.31 1.31 0 0 0 .008-.111c.032-.293.047-.514.047-.66 0-.053-.015-.247-.047-.582v.016a.763.763 0 0 1-.024-.173 3.093 3.093 0 0 1-.008-.173l.047-.503-.015-.032v-.047c0-.01-.002-.039-.008-.086a1.042 1.042 0 0 1-.008-.118V9.807a.72.72 0 0 0-.016-.141 100.74 100.74 0 0 1-.054-.724.784.784 0 0 1-.008-.094l-.015-.833c-.022-.168-.121-.34-.3-.519h.016C4.099 7.34 4 7.187 4 7.041c0-.262.152-.403.456-.425ZM13.697 6.648c.2 0 .325.1.378.299a.36.36 0 0 0 .047-.079.384.384 0 0 1 .377-.252h.157c.031 0 .073.003.126.008.053.006.09.008.11.008h.377c.21-.01.477-.016.802-.016.377 0 .566.163.566.488a.5.5 0 0 1-.157.362 2.885 2.885 0 0 1-.394.313c-.146.095-.35.373-.612.834a.828.828 0 0 0-.071.103 1.553 1.553 0 0 0-.086.148l-.04.078a.263.263 0 0 1-.04.063 9.957 9.957 0 0 0-.188.739 1.32 1.32 0 0 1-.094.236 1.76 1.76 0 0 0-.048.11.71.71 0 0 1-.062.125.508.508 0 0 0-.032.127c0 .021.016.1.048.235.02.042.041.103.062.18.021.08.037.135.048.166.104.314.167.513.188.597a15.375 15.375 0 0 0 .205.77c.02.105.041.184.063.236v-.015c.104.199.235.545.392 1.037l.031.173c.074.387.121.581.142.581.031-.073.073-.188.126-.346.146-.408.262-.78.346-1.116l.173-.612v.03-.046l.016-.031c.042-.168.125-.44.25-.818.095-.22.179-.409.252-.566l.016-.063c.02-.041.041-.098.062-.172.021-.074.048-.153.08-.237.02-.062.052-.167.094-.313l.126-.41v.017l.094-.394.126-.66c0-.115-.058-.266-.173-.455a.446.446 0 0 0-.056-.079.952.952 0 0 1-.07-.095l-.11-.22a.955.955 0 0 1-.095-.173l-.204-.14a.484.484 0 0 1 .023-.645c.09-.105.181-.158.276-.158h.031c.566.064.896.095.99.095.41 0 .63-.005.66-.016h.378c.398 0 .597.158.597.472 0 .126-.058.23-.173.315l-.377.235h.015c-.177.126-.33.346-.455.66v-.016c0 .01-.008.03-.024.056a.304.304 0 0 0-.039.133 40.43 40.43 0 0 0-.377.849l.016-.016c-.021.073-.077.254-.166.543-.088.287-.164.547-.228.777-.02.073-.12.361-.298.864h.016c-.22.671-.472 1.405-.755 2.201h.016c-.031.116-.118.401-.26.857-.141.456-.259.856-.353 1.202-.084.356-.141.64-.173.85v-.017c-.063.514-.246.77-.55.77a.404.404 0 0 1-.345-.172 13.17 13.17 0 0 1-.236-.582l-.173-.534-.189-.55v.031l-.252-.471-.094-.283-.173-.331-.141-.503.016.016c-.2-.482-.325-.833-.377-1.053a.606.606 0 0 1-.048-.173c0 .011-.006.027-.016.047l-.04.08a.766.766 0 0 0-.038.093l-.22.582-.205.502.016-.015-.315 1.163c-.355.891-.544 1.404-.565 1.54-.084.367-.226.55-.425.55-.062 0-.165-.075-.306-.227-.142-.152-.223-.265-.243-.339v.016l-.126-.409.016.017-.142-.378-.314-.927v.016l-.393-.944-.173-.534h.016l-.157-.346-.221-.707.016.015-.267-.628-.315-.958v.015l-.313-.786-.111-.392a7.178 7.178 0 0 0-.251-.818l-.095-.189c-.22-.471-.398-.801-.534-.99a1.683 1.683 0 0 0-.393-.252C7.436 7.46 7.3 7.261 7.3 7.01c0-.282.157-.424.472-.424.146 0 .502.01 1.069.031.094.01.188.016.283.016.094 0 .178-.005.251-.016L9.58 6.6c.702 0 1.08.021 1.132.063h-.016c.21.095.315.289.315.582 0 .157-.032.267-.095.33l-.25.283.014-.016c-.125.158-.188.42-.188.787 0 .387.063.78.188 1.178.042.199.268.744.677 1.634l.22.724h-.016l.361.99.11.487h-.016c.115.346.194.556.236.63v-.017c.01.032.027.047.048.047.052 0 .13-.194.235-.581.084-.22.136-.346.158-.377.062-.084.151-.32.267-.708.21-.534.314-.858.314-.974 0-.252-.188-.75-.566-1.494-.105-.199-.22-.518-.346-.958a8.883 8.883 0 0 0-.25-.691 7.377 7.377 0 0 0-.394-.834h.015a2.513 2.513 0 0 0-.345-.189h.016c-.126-.062-.19-.204-.19-.424 0-.314.163-.472.489-.472h.046l1.054.048h.895Zm.52.942c-.084-.02-.142-.052-.173-.094a.297.297 0 0 1-.08.08l.032-.017-.314.204c-.01.011-.016.032-.016.063 0 .084.094.393.283.927.073.137.162.205.268.205.04 0 .082-.02.124-.063l-.014.016a.27.27 0 0 1 .014-.079c.106-.25.163-.444.173-.581v-.079c.01-.073.016-.162.016-.267 0-.104-.026-.183-.078-.236l-.235-.079Zm2.718 3.664a.244.244 0 0 0-.032.11c0-.074.01-.11.032-.11Zm-1.681-2.296v.016c-.011.01-.016.02-.016.031l.016-.047Z"/>
</svg>
