<svg xmlns="http://www.w3.org/2000/svg" width="24" height="24" fill="none">
  <path fill="#000" d="m18.123 5.877-1.702-.725h-1.7l1.097.472-.348.253.348.254-1.097.472h1.7l1.702-.726ZM18.123 12c0 2.345-1.9 4.245-4.245 4.245v-8.49c2.344 0 4.245 1.9 4.245 4.245ZM13.829 18.453A6.461 6.461 0 0 1 7.375 12a6.461 6.461 0 0 1 6.454-6.454c.016 0 .032.003.049.005V4a8 8 0 1 0 0 16v-1.551c-.017.002-.033.004-.05.004Z"/>
  <path fill="#000" d="M9.633 12c0-2.345 1.9-4.245 4.245-4.245v-1.55c-.017.003-.033.005-.05.005A5.796 5.796 0 0 0 8.04 12a5.796 5.796 0 0 0 5.79 5.79c.016 0 .032.002.049.004v-1.549A4.245 4.245 0 0 1 9.633 12Z"/>
</svg>
