<svg xmlns="http://www.w3.org/2000/svg" width="24" height="24" fill="none">
  <path fill="#000" fill-rule="evenodd" d="M19.193 7.332c-.01-.255-.089-.348-.333-.387.116-.257.111-.38-.195-.612l-.028-.02c-.01-.005-.02-.01-.029-.018a.172.172 0 0 1-.056-.07c-.184-.444-.57-.675-.97-.887l-.071-.034c-.137-.067-.273-.132-.378-.253-.08-.09-.193-.146-.315-.09-.091.041-.112 0-.143-.063l-.003-.007c-.095-.194-.137-.208-.34-.146a.467.467 0 0 0-.075.023c-.047.024-.062.014-.08-.042-.076-.236-.175-.283-.391-.17-.076.038-.095.019-.128-.042-.108-.189-.165-.212-.358-.146-.07.023-.113.004-.16-.038a.708.708 0 0 0-.377-.17 78.944 78.944 0 0 1-.198-.026 12.408 12.408 0 0 0-1.305-.13 9.13 9.13 0 0 0-1.96.161c-1.028.184-2.008.5-2.894 1.074-1.065.684-1.966 1.523-2.574 2.649a8.736 8.736 0 0 0-.956 2.856c-.104.664-.156 1.334-.066 2.003.212 1.588.782 3.035 1.786 4.298.674.843 1.456 1.578 2.441 2.04 1.579.745 3.242 1.065 4.99.848 1.34-.165 2.574-.626 3.724-1.328.674-.415 1.164-.98 1.409-1.744.113-.354.122-.688-.127-.995-.024-.028-.043-.06-.038-.098.037-.27-.119-.44-.275-.613l-.064-.07a.365.365 0 0 0-.359-.114c-.056.01-.099.005-.141-.047-.118-.156-.273-.18-.457-.15-.227.037-.423.132-.623.229l-.15.072c-.542.25-1.027.575-1.418 1.027-.052.061-.114.099-.198.09a.523.523 0 0 0-.458.183.44.44 0 0 1-.358.151c-.17-.01-.316.033-.405.203-.052.099-.137.108-.23.056-.27-.15-.548-.117-.82-.018a.914.914 0 0 1-.477.037 13.61 13.61 0 0 1-.99-.207c-1.159-.292-2.125-.886-2.77-1.909-.957-1.513-.98-3.12-.335-4.75.33-.839.933-1.466 1.706-1.923 1.037-.612 2.149-.895 3.355-.707.877.132 1.654.495 2.385.98.08.055.16.113.24.17.237.17.475.342.75.448.63.245 1.253.33 1.828-.18A.768.768 0 0 0 19 8.209c.009-.099.023-.212.099-.273.117-.09.117-.198.108-.32a2.848 2.848 0 0 1-.014-.283ZM7.685 13.939v.084a.262.262 0 0 1-.01-.007v.002a.386.386 0 0 1-.141-.202c-.24-.622-.368-1.263-.306-1.932v-.038c.005-.011.008-.027.01-.043.005-.035.01-.072.056-.065a.092.092 0 0 1 .033.01c.033.014.062.046.07.103.038.296.08.59.122.886a133.156 133.156 0 0 1 .166 1.202Zm-.01.079a.262.262 0 0 0 .01.005l-.01-.004v-.001Zm8.855-6.224.019-.024-.006-.008-.007-.012c-.016-.03-.033-.06-.057-.084a1.149 1.149 0 0 0-.155-.146 3.884 3.884 0 0 0-.927-.517 4.24 4.24 0 0 0-.572-.18c-.113-.024-.236-.048-.377.018l.008.004-.004.001 2.078.952v-.004Zm-.952 11.08c.052-.016.118-.033.158-.015a.058.058 0 0 1 .03.028c.027.053-.048.093-.1.12l-.012.007c-.292.165-.617.236-.947.293-.396.066-.792.108-1.193.042a.711.711 0 0 1-.103-.028l-.005-.005-.005-.005c.14-.118.295-.12.446-.122.042-.001.084-.002.124-.005.547-.042 1.089-.127 1.607-.31ZM9.596 7.361l.007-.002C9.4 7.633 8.16 9.038 8.08 9.094V9.09a.07.07 0 0 1-.004.004c.028-.453 1.07-1.635 1.522-1.734l-.002.002Zm7.09 11.139a.068.068 0 0 0-.008-.014v-.001c-.008-.01-.016-.022-.019-.033-.006-.017-.004-.035.027-.051.166-.09.319-.2.47-.31.168-.121.335-.242.52-.336a.093.093 0 0 1 .106.014.09.09 0 0 1 .035.07h-.005c0 .025-.014.035-.03.047l-.008.005a4.695 4.695 0 0 1-1.013.65c-.034.016-.05.01-.058-.003-.007-.007-.01-.018-.014-.028l-.003-.01ZM7.73 10l.002-.005c-.285.086-.502.849-.39 1.25a.5.5 0 0 0 .041.107l.349-1.353H7.73Zm.323 4.915h.001l-.002-.005c.177.057.457.395.633.717.088.16.15.316.16.433-.33-.349-.627-.698-.792-1.145Zm10.039 2.53a.784.784 0 0 1-.087 0l.387-.405c.068.239-.041.393-.3.406Z" clip-rule="evenodd"/>
  <path fill="#000" fill-rule="evenodd" d="M10.611 14.98c.58.415 1.23.655 1.999.636l.004-.014c.178.037.392-.01.598-.056l.02-.005a3.47 3.47 0 0 0 1.597-.853c.391-.368.674-.81.844-1.324a3.16 3.16 0 0 0 .108-1.621c-.085-.439-.264-.835-.476-1.216-.118-.212-.259-.4-.523-.448-.047-.005-.075-.024-.07-.085.009-.09-.038-.16-.109-.212-.358-.259-.726-.504-1.164-.598l-.1-.026c-.16-.044-.328-.09-.48.05-.094.094-.184.07-.259-.024-.066-.08-.15-.137-.254-.109a1.068 1.068 0 0 1-.221.024c-.08.003-.159.006-.236.028a2.677 2.677 0 0 1-.037.011c-.08.025-.167.05-.204.112-.085.14-.207.132-.333.122h-.001c-.146-.014-.264.028-.35.146-.122.165-.296.255-.47.344a.711.711 0 0 0-.326.297 1.592 1.592 0 0 1-.377.505c-.09.075-.099.174-.066.25.048.103.02.127-.066.169a1.088 1.088 0 0 1-.038.02c-.076.039-.172.088-.136.168.08.18.024.302-.094.42-.01.01-.024.023-.024.033-.008.065-.02.131-.03.197-.025.148-.05.297-.05.444-.005.353.07.702.189 1.041.226.636.584 1.183 1.135 1.574Zm2.457-.155c-.81.122-1.525-.114-2.24-.472l.003.007-.002-.001a.417.417 0 0 0 .165.197 2.557 2.557 0 0 0 1.776.439.418.418 0 0 0 .298-.165h.004v-.005l-.004.005-.005.001.005-.006Zm.856-.27.006.002-.01.008c.06.015.108 0 .155-.014.32-.103.556-.31.764-.57.038-.05.062-.1.075-.153a.493.493 0 0 0 .005-.215v-.005c-.18.152-.345.318-.51.484-.157.16-.314.318-.485.464Zm1.23-1.226-.004.006a1.268 1.268 0 0 1 .235-.984v.001a.164.164 0 0 1 .005-.006c.076.367-.009.692-.235.985v-.002Z" clip-rule="evenodd"/>
</svg>
