<svg xmlns="http://www.w3.org/2000/svg" width="24" height="24" fill="none">
  <path fill="#000" fill-rule="evenodd" d="m4.815 10.915-.313.226.722.842-1.098 3.4L5.15 18.86l3.557-.98.69.565 1.395.973h2.406l1.409-.974.688-.564 3.558.979 1.023-3.47-1.105-3.4.728-.848-.313-.225.5-.459-.387-.3.502-.384-.334-.251L20 6.962l-.797-2.379-5.086 1.903h-4.23L4.79 4.583 4 6.961l.535 2.559-.34.253.502.381-.383.302.501.459Zm5.234 1.905 1.137 2.382-3.869-1.138 2.732-1.244Zm3.89-.006-1.142 2.39 3.872-1.132-2.73-1.258Z" clip-rule="evenodd"/>
</svg>
