<svg xmlns="http://www.w3.org/2000/svg" width="24" height="24" fill="none">
  <path fill="#000" fill-rule="evenodd" d="M9.573 17.019c.265.42 1.116 1.248 2.402 1.192 1.286-.057 1.819-.754 1.925-1.095.08-.068.335-.214.724-.256.486-.053 4.91-1.254 5.36-2.278.035-.068.035-.24-.247-.389-.283-.148-1.437-1.44-1.978-2.066.532-1.655 1.459-5.19.9-6.102-.55-.898-3.485.95-4.944 2.029.569.292 1.046.686 1.459 1.103 1.13-.987 1.894-1.073 2.142-.987.17.734-.242 2.157-.51 2.883l.034.035a1.263 1.263 0 0 0-.038-.023l-.015.037a1.113 1.113 0 0 0-.049-.071c-.501-.257-1.83-.668-2.91-.27-1.07.396-1.499 2.268-1.605 3.443a.324.324 0 0 1-.32.298.327.327 0 0 1-.322-.295 6.982 6.982 0 0 0-.81-2.537c-.107-.238-.539-.792-1.413-1.102-.801-.285-1.777-.059-2.172.18a.222.222 0 0 0-.015.072 8.367 8.367 0 0 1-.019-.05.664.664 0 0 0-.06.044l.042-.094c-.243-.674-.632-2-.484-2.638.222-.076.907.002 1.919.889a6.983 6.983 0 0 1 1.517-1.031c-1.238-.82-3.566-2.162-4.61-2.03-1.117.141-.047 4.027.627 5.952.023.065.046.207-.053.256-.124.062-1.97 1.987-2.049 2.41-.08.425 4.627 2.614 5.148 2.314.088-.035.297-.05.424.177Zm3.277-9.301c-.026-.233.098-.614.343-.74-.238-.105-.807-.158-1.174.477-.097-.223-.145-.822.441-1.43-.461-.08-1.446.159-1.829 1.692a2.91 2.91 0 0 1 .761-.15 4.668 4.668 0 0 1 1.458.15Zm-1.68 7.588a.298.298 0 0 1 .25-.385c.162-.022.674-.01.975 0 .132.003.372.084.276.385-.077.243-.343.447-.515.56a.385.385 0 0 1-.104.047V16.215c.002.15.027.26.101.32.074.06.19.116.362.116a.282.282 0 0 0 .262-.148.574.574 0 0 0 .07-.28.113.113 0 1 1 .227-.004.8.8 0 0 1-.101.399.508.508 0 0 1-.458.26.785.785 0 0 1-.505-.166.428.428 0 0 1-.07-.073.428.428 0 0 1-.072.073.785.785 0 0 1-.504.166.508.508 0 0 1-.458-.26.8.8 0 0 1-.101-.399.114.114 0 0 1 .227.004.573.573 0 0 0 .07.28c.05.084.127.148.262.148a.56.56 0 0 0 .362-.115c.074-.06.099-.171.1-.321V15.929a.11.11 0 0 1 0-.013.347.347 0 0 1-.105-.046c-.198-.131-.44-.35-.55-.564Zm-1.747-1.122c.448 0 .812-.162.812-.362 0-.2-.364-.362-.812-.362-.449 0-.813.162-.813.362 0 .2.364.362.813.362Zm0 1.219c0 .39-.483.706-1.078.706-.594 0-1.077-.316-1.077-.706 0-.39.483-.707 1.077-.707.595 0 1.078.317 1.078.707Zm6.075.706c.595 0 1.077-.316 1.077-.706 0-.39-.482-.707-1.077-.707s-1.077.317-1.077.707c0 .39.482.706 1.077.706Zm-.265-2.287c0 .2-.364.362-.812.362-.449 0-.813-.162-.813-.362 0-.2.364-.362.813-.362.449 0 .812.162.812.362Z" clip-rule="evenodd"/>
</svg>
