<svg xmlns="http://www.w3.org/2000/svg" width="24" height="24" fill="none">
  <path fill="#000" d="M10.857 8.571c-.632 0-1.143.511-1.143 1.143V10a.573.573 0 0 1-.571.571A.573.573 0 0 1 8.57 10v-.286a2.288 2.288 0 0 1 2.286-2.285h2.286a2.288 2.288 0 0 1 2.286 2.285v.172c0 .803-.422 1.546-1.111 1.96l-1.747 1.05v.533A.573.573 0 0 1 12 14a.573.573 0 0 1-.571-.571v-.858c0-.2.103-.385.278-.489l2.025-1.214c.343-.207.522-.579.522-.982v-.172c0-.632-.479-1.143-1.143-1.143h-2.254ZM11.143 16c0-.475.382-.857.857-.857s.857.382.857.857a.855.855 0 0 1-.857.857.855.855 0 0 1-.857-.857ZM8 7.143a.856.856 0 1 1-.857-.857c.475 0 .857.382.857.857Zm8 0c0-.475.382-.857.857-.857s.857.382.857.857a.855.855 0 0 1-.857.857.855.855 0 0 1-.857-.857Zm-8 9.714A.856.856 0 1 1 7.143 16c.475 0 .857.382.857.857Zm8 0c0-.475.382-.857.857-.857s.857.382.857.857a.855.855 0 0 1-.857.857.855.855 0 0 1-.857-.857ZM17.714 4A2.287 2.287 0 0 1 20 6.286v11.428A2.288 2.288 0 0 1 17.714 20H6.286A2.287 2.287 0 0 1 4 17.714V6.286A2.286 2.286 0 0 1 6.286 4h11.428Zm0 1.143H6.286c-.631 0-1.143.512-1.143 1.143v11.428c0 .632.512 1.143 1.143 1.143h11.428c.632 0 1.143-.51 1.143-1.143V6.286c0-.631-.51-1.143-1.143-1.143Z"/>
</svg>
