<svg xmlns="http://www.w3.org/2000/svg" width="24" height="24" fill="none">
  <path fill="#000" d="M8.295 11.065c0 .219-1.002.153-.845.357.849 1.046 1.69 2.176 2.686 3.163 0-.568-.07-1.866-.07-2.686 0-.721.737-.772.737-.834 0-.19-.77-.022-.77-.46 0-.626-.229-1.6.245-1.6h.787c.343 0 .255.835.255 1.12 0 1.038.915.62.915.885 0 .303-.926-.127-.926.62v1.986c0 1.002.131 2.161-.375 2.187-1.064.05-1.502.16-1.917-.35-.71-.886-2.281-2.624-3.327-3.962-.434-.557-1.108-1.213-1.152-.907-.077.532-.03 1.469-.03 1.96 0 .46.03.802.03 1.076 0 .947 1.126.528 1.126.82 0 .175-.947-.091-.947.393 0 .099-.022.208-.022.347 0 .273-.004.579-.463.579-.46 0-1.221.091-1.221-.339 0-.248.033-.441.033-.707 0-.299.842-.302 1.027-.302.143 0-1.064-.208-1.064-.97 0-.86.015-1.214.051-1.851.022-.405.358-.284.813-.361-1.137 0-.835-1.006-.835-1.644 0-.568.547-.583 1.148-.583 1.003 0 1.36.27 2.001.911 1.535 1.535 2.1.853 2.1 1.148l.01.004ZM20.978 12.337c.007-.42-.146-.601-.58-.598a103.91 103.91 0 0 1-3.363 0c-.503-.01-.605.219-.61.66-.006.477.245.55.628.54.546-.012 1.09 0 1.636 0 .448 0 .904-.107.893.64-.011.715-.328.882-.951.839-.481-.033-.97 0-1.454-.007-2.238-.033-2.522.415-2.562-1.9 0-.396.033-.765.142-1.001.178-.383.958-.048.958-.332 0-.237-.867.164-.863-.383 0-.033.018-.069.032-.098.204-.215.536-.299 1.06-.306 1.455-.015 2.91-.022 4.363 0 .521.007.685-.179.678-.685-.007-.474-.087-.733-.645-.704-.816.04-1.636.011-2.453.011v.007c-.849 0-1.698-.036-2.543.008-1.24.062-1.928.612-2.118 1.68h.007c-.062.328.277.36.846.474-.415.12-.609.149-.765.444-.146.266-.175.587-.172.882h.004c-.004.376-.004.75.004 1.13.036 1.305.696 2.037 2.008 2.099 1.541.073 3.09.044 4.635.047.78 0 1.174-.437 1.2-1.18.025-.755-.022-1.513-.012-2.267h-.003Z"/>
</svg>
