<svg xmlns="http://www.w3.org/2000/svg" width="24" height="24" fill="none">
  <path fill="#000" d="M6.645 8.496a6.367 6.367 0 0 0-1.031 3.083l1.817 1.899-.42 2.534c.336.416.73.797 1.18 1.13.45.334.931.6 1.43.8l2.372-1.144 2.284 1.183c1-.38 1.914-1.012 2.639-1.883l-.355-2.613 1.83-1.806a6.413 6.413 0 0 0-.976-3.093l-2.594-.469-1.15-2.296a6.419 6.419 0 0 0-3.248-.024L9.179 8.113l-2.534.383Zm.593 9.932a8 8 0 1 1 9.525-12.856 8 8 0 0 1-9.525 12.856Z"/>
  <path fill="#000" d="m13.9 11.204-1.17-.016-1.345-1.78-.013 1.804-1.206.062s.036-.93.099-1.759c.076-.716.158-1.319.158-1.319l.996-.1 1.204 1.341-.121-1.35.982.077s.118.598.235 1.306c.104.82.18 1.734.18 1.734ZM11.835 12.198l.027 1.165-1.755-.032.058.569 1.212.05.055.88-1.149-.065.201 1.101-1.132-.008s-.085-.841-.258-1.659c-.137-.942-.213-1.97-.213-1.97s.618-.003 1.322-.009c.784-.008 1.632-.022 1.632-.022ZM15.275 12.085l-.033.995-1.378.164-.036.57 1.021-.146-.115.834-.991.18-.148 1.13-1.152.102s.022-.693.04-1.544c.01-1.022.007-2.188.007-2.188l1.557-.049 1.228-.048Z"/>
</svg>
