<svg xmlns="http://www.w3.org/2000/svg" width="24" height="24" fill="none">
  <path fill="#000" fill-rule="evenodd" d="M12 20a8 8 0 1 0 0-16 8 8 0 0 0 0 16Zm5.223-6.61v-.516a.072.072 0 0 0-.091-.07l-2.434.704a.07.07 0 0 0-.034.02c-.26.289-.482.482-.54.533l-.005.004a.824.824 0 0 1-.535.198h-.881v-.899h.7a.074.074 0 0 0 .048-.018l.09-.083a4.16 4.16 0 0 0 .14-.133l.014-.014c.03-.029.06-.06.09-.093a1.7 1.7 0 0 0 .105-.114 5.218 5.218 0 0 0 .388-.473l.042-.06.043-.06a1.96 1.96 0 0 0 .075-.12 2.298 2.298 0 0 0 .234-.486l.007-.019a1.325 1.325 0 0 0 .072-.582c-.004-.043-.007-.085-.017-.124v-.007a2.086 2.086 0 0 0-.153-.485 2.262 2.262 0 0 0-.235-.433 1.833 1.833 0 0 0-.04-.06l-.031-.047a3.033 3.033 0 0 0-.156-.215 2.96 2.96 0 0 0-.082-.1 5.996 5.996 0 0 0-.173-.205 6.78 6.78 0 0 0-.54-.54 6.721 6.721 0 0 0-.367-.315c-.015-.012-.028-.024-.042-.034l-.067-.051-.03-.023a.075.075 0 0 0-.022-.01l-.093-.027v-.776a.46.46 0 0 0-.133-.323.446.446 0 0 0-.32-.134.454.454 0 0 0-.452.457v.523l-.046-.013-.128-.037-.116-.032h-.006l-.879-.239a.046.046 0 0 0-.052.067l.14.26a.77.77 0 0 0 .03.06l.02.04.068.144.062.13.03.066c.036.082.075.167.113.26a7.958 7.958 0 0 1 .313.884c.016.051.03.1.042.149l.017.063.01.04c.026.104.049.208.065.312.013.072.026.14.032.209.01.078.02.156.023.234a2.317 2.317 0 0 1-.045.742l-.003.011-.004.016c-.011.04-.022.083-.036.123a1.815 1.815 0 0 1-.044.131l-.017.048-.003.008c-.013.033-.025.066-.04.099-.082.195-.183.39-.287.573a8.33 8.33 0 0 1-.414.66l-.02.029a1.35 1.35 0 0 0-.021.032.073.073 0 0 0 .059.115h1.137v.899h-1.15a.818.818 0 0 1-.733-.456.794.794 0 0 1-.083-.446c.004-.045-.03-.088-.076-.088H7.43a.072.072 0 0 0-.071.072v.047a2.68 2.68 0 0 0 2.675 2.685h4.17c.782 0 1.225-.712 1.662-1.413.121-.195.242-.389.37-.566.23-.32.78-.573.942-.642a.074.074 0 0 0 .044-.067Zm-9.242-1.175-.034.054c-.03.047.003.11.06.11h2.141a.07.07 0 0 0 .06-.032 1.61 1.61 0 0 0 .077-.132c.185-.311.35-.647.41-.896.14-.603-.16-1.572-.508-2.351a.071.071 0 0 0-.124-.01L7.98 12.216Z" clip-rule="evenodd"/>
</svg>
