<svg xmlns="http://www.w3.org/2000/svg" width="24" height="24" fill="none">
  <path fill="#000" d="m13.712 13.838-1.115-1.486-1.143.762 1.05 1.388c-.16.03-.326.045-.5.045-.479 0-.9-.112-1.266-.336a2.439 2.439 0 0 1-.863-.94 2.949 2.949 0 0 1-.313-1.378c0-.389.06-.743.179-1.064.12-.321.287-.601.504-.84a2.374 2.374 0 0 1 1.758-.75c.359 0 .683.067.975.201.298.127.556.31.772.549.217.239.385.522.504.851.127.321.19.672.19 1.053 0 .38-.063.735-.19 1.064a2.572 2.572 0 0 1-.542.88Z"/>
  <path fill="#000" fill-rule="evenodd" d="M20 12a8 8 0 1 1-16 0 8 8 0 0 1 16 0Zm-6.595 3.695 1.029 1.361 1.097-.795-.95-1.266a3.937 3.937 0 0 0 1.04-1.49c.194-.492.291-1.03.291-1.612 0-.575-.097-1.109-.291-1.602a3.908 3.908 0 0 0-.818-1.288 3.69 3.69 0 0 0-1.243-.851 3.964 3.964 0 0 0-1.557-.302c-.567 0-1.09.1-1.568.302a3.784 3.784 0 0 0-2.06 2.128 4.362 4.362 0 0 0-.292 1.613c0 .582.097 1.12.291 1.613.195.492.467.922.818 1.288.358.358.773.638 1.243.84.478.201 1 .302 1.568.302.5 0 .967-.08 1.402-.241Z" clip-rule="evenodd"/>
</svg>
