<svg xmlns="http://www.w3.org/2000/svg" width="24" height="24" fill="none">
  <path fill="#000" d="M19.898 12.226s-.483-.678-.527-1.086c-.043-.408-1.085-1.676-1.3-1.826-.21-.15-.526-.032-.542-.135-.016-.103-.226-.226-.226-.226.091-.107.135-.376.135-.74 0-.365-.091-.8-.091-.8s-.698-1.573-1.62-2.037c-4.402-2.203-7.528.162-7.528.162s-.542.785-.693.908c-.15.119-1.085 2.218-1.085 2.218l.059.563-.107.392h-.218c-.218 0-1.133.674-1.133.674s-1.51 2.111-.86 3.541c.583 1.28 2.972 4.663 2.972 4.663s.392.543 1.695.717c1.308.174 1.696-.15 2.175-.15.48 0 .872-.393.872-.393l.273-.245.392.233s.999.638 2.373.9c.282.055 1.423-.48 1.934-.844 1.584-1.13 2.987-5.329 3.11-5.689.122-.36-.06-.8-.06-.8Zm-8.399 2.777-2.19-3.237s.523-.82.313-1.533c-.159-.535 4.028-.063 4.028-.063s.452.903.844 1.125c.753.428-1.767 3.36-1.767 3.36l-1.232.344.004.004Zm4.481-7.73s.452.452.095 1.098c0 0-1.703.376-2.1 1.09 0 0-3.585-.452-4.678-.068 0 0-.313-1.335-1.161-1.3l-.115-.36s2.662-1.98 7.963-.451l-.004-.008ZM9.871 17.397l-.11.317s-2.67-1.791-4.216-6.03c0 0-.147-.82.927-.836 0 0 .464 1.32 2.31 1.402 0 0 1.176 1.724 1.604 3.467 0 0-.955.919-.519 1.68h.004Zm4.611.883c-.732.523-1.232-.657-1.232-.657.622-1.161.14-2.27.14-2.27l2.53-3.812c1.336.242 1.752-.38 1.752-.38L18 11.3s-.946 5.154-3.518 6.984v-.004Z"/>
</svg>
