<svg xmlns="http://www.w3.org/2000/svg" width="24" height="24" fill="none">
  <path fill="#000" d="m12.603 12.603-1.206-1.206-2.3 3.506 3.506-2.3ZM12 4c-4.42 0-8 3.58-8 8s3.58 8 8 8 8-3.58 8-8-3.58-8-8-8Zm5.027 5.638.477-.197a.258.258 0 0 1 .198.477l-.476.197a.258.258 0 0 1-.199-.477Zm-3.142-2.864.197-.477a.258.258 0 0 1 .477.199l-.198.477a.258.258 0 1 1-.476-.199ZM12 5.677a.258.258 0 0 1 .258.258v.517a.258.258 0 0 1-.516 0v-.517A.258.258 0 0 1 12 5.677Zm-2.42.482a.258.258 0 0 1 .338.14l.197.475a.259.259 0 0 1-.337.341.258.258 0 0 1-.14-.143l-.197-.477a.258.258 0 0 1 .14-.336Zm-2.05 1.37a.258.258 0 0 1 .365 0l.363.365a.258.258 0 0 1-.365.364l-.365-.365a.258.258 0 0 1 .001-.364ZM5.677 12a.258.258 0 0 1 .258-.258h.517a.258.258 0 0 1 0 .516h-.517A.258.258 0 0 1 5.677 12Zm1.296 2.362-.477.197a.26.26 0 0 1-.337-.14.258.258 0 0 1 .14-.337l.475-.197a.258.258 0 0 1 .199.477Zm.14-4.387a.258.258 0 0 1-.339.14l-.477-.197a.258.258 0 0 1 .199-.477l.477.198a.258.258 0 0 1 .14.336Zm3.002 7.25-.197.478a.259.259 0 0 1-.477-.198l.197-.477a.257.257 0 0 1 .48-.002.258.258 0 0 1-.003.2Zm2.143.84a.258.258 0 1 1-.516 0v-.517a.258.258 0 1 1 .516 0v.517Zm2.161-.224a.258.258 0 0 1-.337-.14l-.197-.475a.258.258 0 0 1 .477-.198l.197.477a.258.258 0 0 1-.14.336Zm2.051-1.37a.258.258 0 0 1-.364 0l-.364-.365a.258.258 0 0 1 .365-.364l.365.365a.258.258 0 0 1-.001.364Zm-3.494-3.495L7.3 16.699l3.723-5.675L16.7 7.301l-3.723 5.675Zm4.865 1.443a.258.258 0 0 1-.337.14l-.477-.198a.258.258 0 1 1 .199-.476l.477.197a.258.258 0 0 1 .138.337Zm.223-2.16h-.516a.258.258 0 1 1 0-.517h.517a.258.258 0 1 1 0 .516Z"/>
</svg>
