<svg xmlns="http://www.w3.org/2000/svg" width="24" height="24" fill="none">
  <path fill="#000" d="M18.698 4.922c-.273-.231-.702-.265-1.145-.087-.467.187-13.196 5.647-13.714 5.87-.095.033-.918.34-.833 1.024.076.617.737.873.818.902L7.06 13.74c.215.715 1.007 3.352 1.182 3.915.109.351.287.813.599.908.273.105.545.009.722-.13l1.978-1.835 3.194 2.491.076.046c.217.096.425.144.623.144.153 0 .3-.029.44-.086.48-.197.67-.653.69-.704L18.95 6.087c.146-.662-.056-1-.252-1.165Zm-8.784 9.26-1.091 2.912-1.092-3.64 8.37-6.186-6.187 6.915Z"/>
</svg>
