<svg xmlns="http://www.w3.org/2000/svg" width="24" height="24" fill="none">
  <path fill="#000" d="M18.36 8.24c.011.142.011.284.011.426 0 4.337-3.3 9.334-9.333 9.334A9.27 9.27 0 0 1 4 16.527c.264.03.518.041.792.041a6.57 6.57 0 0 0 4.073-1.402 3.286 3.286 0 0 1-3.067-2.275c.203.03.406.051.62.051.294 0 .588-.04.862-.111a3.28 3.28 0 0 1-2.63-3.22v-.04c.437.243.945.395 1.483.416A3.278 3.278 0 0 1 4.67 7.255c0-.61.163-1.168.447-1.656a9.325 9.325 0 0 0 6.764 3.433 3.701 3.701 0 0 1-.081-.752A3.279 3.279 0 0 1 15.08 5c.945 0 1.798.396 2.397 1.036a6.458 6.458 0 0 0 2.082-.792 3.271 3.271 0 0 1-1.442 1.808c.66-.072 1.3-.254 1.89-.508A7.05 7.05 0 0 1 18.36 8.24Z"/>
</svg>
