<svg xmlns="http://www.w3.org/2000/svg" width="24" height="24" fill="none">
  <path fill="#000" d="M15 12c0-.69-.069-1.36-.19-2H9.19c-.121.64-.19 1.31-.19 2s.069 1.36.19 2h5.62c.121-.64.19-1.31.19-2Zm.825-2a11.56 11.56 0 0 1 0 4h3.922c.166-.64.253-1.31.253-2s-.087-1.36-.253-2h-3.922Zm3.594-1a8.01 8.01 0 0 0-6.125-4.897C14.097 5.25 15.075 6.947 15.606 9h3.813Zm-4.847 0a14.11 14.11 0 0 0-1.431-3.294c-.407-.684-.81-1.25-1.141-1.672a16.23 16.23 0 0 0-1.14 1.672A13.865 13.865 0 0 0 9.427 9h5.144ZM8.394 9c.531-2.05 1.51-3.75 2.312-4.897A8.015 8.015 0 0 0 4.581 9h3.813Zm-4.14 1A7.973 7.973 0 0 0 4 12c0 .69.088 1.36.253 2h3.922a11.558 11.558 0 0 1 0-4H4.253Zm5.174 5a14.107 14.107 0 0 0 1.431 3.294c.407.684.81 1.25 1.141 1.672.328-.422.734-.988 1.14-1.672A13.865 13.865 0 0 0 14.573 15H9.428Zm-1.037 0H4.58a8.01 8.01 0 0 0 6.125 4.897C9.903 18.75 8.925 17.053 8.394 15H8.39Zm11.025 0h-3.813c-.531 2.05-1.51 3.75-2.312 4.897A8.015 8.015 0 0 0 19.416 15Z"/>
</svg>
