<svg xmlns="http://www.w3.org/2000/svg" version="1.1" width="864px" height="298px"
    style="shape-rendering:geometricPrecision; text-rendering:geometricPrecision; image-rendering:optimizeQuality; fill-rule:evenodd; clip-rule:evenodd"
    xmlns:xlink="http://www.w3.org/1999/xlink">
    <path fill="#171a17"
        d="M -0.5,-0.5 C 287.5,-0.5 575.5,-0.5 863.5,-0.5C 863.5,45.8333 863.5,92.1667 863.5,138.5C 845.044,151.782 826.711,165.282 808.5,179C 796.645,187.427 783.645,193.427 769.5,197C 746.569,202.184 726.236,197.184 708.5,182C 695.014,168.523 683.847,153.356 675,136.5C 665.255,117.342 655.255,98.342 645,79.5C 635.6,62.8695 623.1,49.0362 607.5,38C 578.807,22.9625 552.14,25.9625 527.5,47C 508.86,65.1171 494.86,86.2837 485.5,110.5C 483.745,109.928 482.078,109.094 480.5,108C 452.114,81.9606 420.447,60.6273 385.5,44C 368.806,36.6455 351.473,31.6455 333.5,29C 308.423,25.9485 285.089,30.9485 263.5,44C 249.98,52.5162 237.313,62.1829 225.5,73C 204.108,95.06 182.108,116.393 159.5,137C 144.554,148.975 128.221,158.641 110.5,166C 108.19,166.497 105.857,166.663 103.5,166.5C 68.9465,161.051 34.2799,157.051 -0.5,154.5C -0.5,102.833 -0.5,51.1667 -0.5,-0.5 Z" />
    <path fill="#242724"
        d="M 485.5,110.5 C 478.361,132.085 470.527,153.418 462,174.5C 452.637,197.077 438.137,215.577 418.5,230C 410.397,234.884 401.731,238.384 392.5,240.5C 373.783,243.295 355.116,242.962 336.5,239.5C 331.112,238.653 325.779,237.487 320.5,236C 294.486,226.879 268.82,216.879 243.5,206C 227.104,200.201 210.771,194.201 194.5,188C 179.909,184.868 165.576,180.868 151.5,176C 135.14,173.494 119.14,170.328 103.5,166.5C 105.857,166.663 108.19,166.497 110.5,166C 128.221,158.641 144.554,148.975 159.5,137C 182.108,116.393 204.108,95.06 225.5,73C 237.313,62.1829 249.98,52.5162 263.5,44C 285.089,30.9485 308.423,25.9485 333.5,29C 351.473,31.6455 368.806,36.6455 385.5,44C 420.447,60.6273 452.114,81.9606 480.5,108C 482.078,109.094 483.745,109.928 485.5,110.5 Z" />
    <path fill="#292b29"
        d="M 863.5,138.5 C 863.5,191.5 863.5,244.5 863.5,297.5C 575.5,297.5 287.5,297.5 -0.5,297.5C -0.5,249.833 -0.5,202.167 -0.5,154.5C 34.2799,157.051 68.9465,161.051 103.5,166.5C 119.14,170.328 135.14,173.494 151.5,176C 165.576,180.868 179.909,184.868 194.5,188C 210.771,194.201 227.104,200.201 243.5,206C 268.82,216.879 294.486,226.879 320.5,236C 325.779,237.487 331.112,238.653 336.5,239.5C 346.658,242.416 357.158,243.749 368,243.5C 376.479,243.895 384.645,242.895 392.5,240.5C 401.731,238.384 410.397,234.884 418.5,230C 438.137,215.577 452.637,197.077 462,174.5C 470.527,153.418 478.361,132.085 485.5,110.5C 494.86,86.2837 508.86,65.1171 527.5,47C 552.14,25.9625 578.807,22.9625 607.5,38C 623.1,49.0362 635.6,62.8695 645,79.5C 655.255,98.342 665.255,117.342 675,136.5C 683.847,153.356 695.014,168.523 708.5,182C 726.236,197.184 746.569,202.184 769.5,197C 783.645,193.427 796.645,187.427 808.5,179C 826.711,165.282 845.044,151.782 863.5,138.5 Z" />
    <path fill="#272927"
        d="M 336.5,239.5 C 355.116,242.962 373.783,243.295 392.5,240.5C 384.645,242.895 376.479,243.895 368,243.5C 357.158,243.749 346.658,242.416 336.5,239.5 Z" />
</svg>