<?xml version="1.0" encoding="UTF-8"?>
<svg version="1.1" xmlns="http://www.w3.org/2000/svg" width="400" height="400">
    <path fill="#242824"
        d="M -0.5,-0.5 C 132.833,-0.5 266.167,-0.5 399.5,-0.5C 399.5,19.5 399.5,39.5 399.5,59.5C 370.674,57.7184 345.674,66.5518 324.5,86C 300.249,109.759 282.249,137.592 270.5,169.5C 236.816,139.341 200.149,113.174 160.5,91C 130.832,74.6729 99.1658,64.3396 65.5,60C 42.892,57.7961 20.892,60.2961 -0.5,67.5C -0.5,44.8333 -0.5,22.1667 -0.5,-0.5 Z" />
    <path
        d="M0 0 C0.69738281 0.42410156 1.39476562 0.84820312 2.11328125 1.28515625 C9.23585554 6.10060667 13.73834167 12.72438656 16 21 C16.85175883 29.44825911 16.52837143 36.70664165 12 44 C11.57589844 44.69738281 11.15179688 45.39476562 10.71484375 46.11328125 C5.89939333 53.23585554 -0.72438656 57.73834167 -9 60 C-17.44825911 60.85175883 -24.70664165 60.52837143 -32 56 C-32.69738281 55.57589844 -33.39476562 55.15179688 -34.11328125 54.71484375 C-41.23585554 49.89939333 -45.73834167 43.27561344 -48 35 C-48.85847963 26.48507999 -48.40812629 19.40319468 -44 12 C-43.443125 10.96875 -42.88625 9.9375 -42.3125 8.875 C-31.94718824 -4.01160381 -14.71451199 -9.13608965 0 0 Z "
        fill="#7F7F7F" transform="translate(268,34)" />
    <path fill="#7f7f7f"
        d="M 270.5,169.5 C 260.91,195.1 251.41,220.766 242,246.5C 207.893,331.802 146.393,361.969 57.5,337C 37.8107,330.98 18.4774,324.146 -0.5,316.5C -0.5,233.5 -0.5,150.5 -0.5,67.5C 20.892,60.2961 42.892,57.7961 65.5,60C 99.1658,64.3396 130.832,74.6729 160.5,91C 200.149,113.174 236.816,139.341 270.5,169.5 Z" />
    <path fill="#9b9b9b"
        d="M 399.5,59.5 C 399.5,172.833 399.5,286.167 399.5,399.5C 266.167,399.5 132.833,399.5 -0.5,399.5C -0.5,371.833 -0.5,344.167 -0.5,316.5C 18.4774,324.146 37.8107,330.98 57.5,337C 146.393,361.969 207.893,331.802 242,246.5C 251.41,220.766 260.91,195.1 270.5,169.5C 282.249,137.592 300.249,109.759 324.5,86C 345.674,66.5518 370.674,57.7184 399.5,59.5 Z" />
</svg>