<svg version="1.1" id="Layer_1" xmlns="http://www.w3.org/2000/svg" xmlns:xlink="http://www.w3.org/1999/xlink" x="0px"
	y="0px" width="100%" viewBox="0 0 2802 550" enable-background="new 0 0 2802 550" xml:space="preserve">
	<path fill="#2A2C2A" opacity="1.000000" stroke="none" d="
M2803.000000,360.000000 
	C2803.000000,423.658539 2803.000000,487.317047 2803.000000,550.941528 
	C1869.000000,550.941528 935.000000,550.941528 1.000000,550.941528 
	C1.000000,487.557800 1.000000,424.232513 1.404578,360.415527 
	C4.904639,359.274475 8.009860,358.668121 11.094126,357.969269 
	C52.043140,348.690979 92.846649,338.706024 133.965591,330.255585 
	C220.700455,312.430511 308.121552,298.939850 396.535919,292.926208 
	C435.551453,290.272461 474.638916,288.175171 513.727295,287.260895 
	C542.327148,286.591919 570.981262,288.291534 599.612854,288.850037 
	C602.067505,288.897919 604.534729,288.303253 607.393311,288.103058 
	C620.706543,289.175903 633.663391,289.780670 646.530884,291.197906 
	C688.501099,295.820740 730.442993,300.703247 772.385986,305.569763 
	C783.600342,306.870911 794.780029,308.471649 806.280334,310.141602 
	C809.271790,311.175323 811.918945,312.173859 814.651184,312.803131 
	C849.213257,320.763428 883.984619,327.906738 918.313965,336.764648 
	C974.196167,351.183807 1028.454956,370.580444 1081.719238,392.789154 
	C1118.764648,408.235321 1155.667236,424.110107 1194.232666,435.534882 
	C1230.025879,446.138397 1266.262207,453.595703 1303.972412,450.002380 
	C1348.538452,445.755737 1385.528442,426.756500 1414.883301,393.069946 
	C1434.458862,370.606079 1448.883179,344.860931 1459.868286,317.367920 
	C1471.418091,288.461792 1481.763550,259.072662 1492.508057,229.847824 
	C1495.259766,222.363159 1497.531738,214.702133 1500.258301,206.864044 
	C1501.292236,205.152863 1502.167236,203.735657 1502.879517,202.240967 
	C1509.112183,189.164001 1514.664795,175.713821 1521.653076,163.055557 
	C1540.691040,128.571869 1563.910034,97.567924 1597.630371,75.748032 
	C1621.512329,60.294247 1647.462280,52.836498 1675.935791,55.409428 
	C1708.797363,58.378872 1735.342041,74.085480 1757.685547,97.433884 
	C1773.659302,114.125832 1786.949829,132.971054 1797.993286,153.211121 
	C1815.547729,185.384460 1832.318970,217.984009 1849.695923,250.255539 
	C1866.176270,280.861633 1884.177002,310.466888 1909.962036,334.409149 
	C1933.602783,356.360260 1961.363037,368.423401 1993.906006,369.041321 
	C2021.733398,369.569733 2047.060059,361.170044 2071.186523,348.171356 
	C2099.797119,332.756775 2125.016846,312.459808 2150.654785,292.789429 
	C2174.742920,274.307861 2198.758057,255.490402 2226.552002,242.985779 
	C2250.354980,232.276764 2274.771240,222.606308 2299.586426,214.537582 
	C2355.984619,196.199615 2414.018066,189.317429 2473.213867,194.227661 
	C2530.033936,198.940826 2583.802734,214.906723 2634.854248,240.016373 
	C2693.678467,268.948914 2745.606201,307.675049 2793.162109,352.524811 
	C2796.141602,355.334625 2799.707031,357.522705 2803.000000,360.000000 
z" />
	<path fill="#171A17" opacity="1.000000" stroke="none" d="
M2803.000000,359.531372 
	C2799.707031,357.522705 2796.141602,355.334625 2793.162109,352.524811 
	C2745.606201,307.675049 2693.678467,268.948914 2634.854248,240.016373 
	C2583.802734,214.906723 2530.033936,198.940826 2473.213867,194.227661 
	C2414.018066,189.317429 2355.984619,196.199615 2299.586426,214.537582 
	C2274.771240,222.606308 2250.354980,232.276764 2226.552002,242.985779 
	C2198.758057,255.490402 2174.742920,274.307861 2150.654785,292.789429 
	C2125.016846,312.459808 2099.797119,332.756775 2071.186523,348.171356 
	C2047.060059,361.170044 2021.733398,369.569733 1993.906006,369.041321 
	C1961.363037,368.423401 1933.602783,356.360260 1909.962036,334.409149 
	C1884.177002,310.466888 1866.176270,280.861633 1849.695923,250.255539 
	C1832.318970,217.984009 1815.547729,185.384460 1797.993286,153.211121 
	C1786.949829,132.971054 1773.659302,114.125832 1757.685547,97.433884 
	C1735.342041,74.085480 1708.797363,58.378872 1675.935791,55.409428 
	C1647.462280,52.836498 1621.512329,60.294247 1597.630371,75.748032 
	C1563.910034,97.567924 1540.691040,128.571869 1521.653076,163.055557 
	C1514.664795,175.713821 1509.112183,189.164001 1502.879517,202.240967 
	C1502.167236,203.735657 1501.292236,205.152863 1499.992920,206.647888 
	C1458.473022,170.678726 1415.470337,137.352249 1368.200684,109.813171 
	C1335.837402,90.958466 1302.172241,75.010986 1265.990967,64.883850 
	C1235.941528,56.473038 1205.464844,52.062614 1174.126831,55.270370 
	C1141.357422,58.624641 1111.981445,70.840408 1084.482910,88.348389 
	C1056.376587,106.243393 1031.366577,127.956360 1007.527588,151.050186 
	C976.305847,181.296112 945.859985,212.362259 914.109192,242.036438 
	C889.694580,264.854340 862.284607,283.901947 832.005188,298.440247 
	C823.459106,302.543518 814.659119,306.117859 805.975586,309.934814 
	C794.780029,308.471649 783.600342,306.870911 772.385986,305.569763 
	C730.442993,300.703247 688.501099,295.820740 646.530884,291.197906 
	C633.663391,289.780670 620.706543,289.175903 607.113525,287.898987 
	C593.266357,280.814087 579.802124,274.539734 566.979370,267.151886 
	C522.684082,241.631088 478.766357,215.453308 434.399109,190.059860 
	C406.913727,174.328659 378.500824,160.337601 348.347992,150.312134 
	C282.230927,128.328979 214.443237,120.130783 144.958679,125.825340 
	C103.197319,129.247849 62.615841,137.802658 23.408436,152.691772 
	C15.961244,155.519867 8.470598,158.233536 1.000001,161.000000 
	C1.000000,107.673683 1.000000,54.347370 1.000000,1.055057 
	C935.000000,1.055057 1869.000000,1.055057 2803.000000,1.055057 
	C2803.000000,120.427635 2803.000000,239.745163 2803.000000,359.531372 
z" />
	<path fill="#252825" opacity="1.000000" stroke="none" d="
M1.000001,161.468658 
	C8.470598,158.233536 15.961244,155.519867 23.408436,152.691772 
	C62.615841,137.802658 103.197319,129.247849 144.958679,125.825340 
	C214.443237,120.130783 282.230927,128.328979 348.347992,150.312134 
	C378.500824,160.337601 406.913727,174.328659 434.399109,190.059860 
	C478.766357,215.453308 522.684082,241.631088 566.979370,267.151886 
	C579.802124,274.539734 593.266357,280.814087 606.716309,287.802979 
	C604.534729,288.303253 602.067505,288.897919 599.612854,288.850037 
	C570.981262,288.291534 542.327148,286.591919 513.727295,287.260895 
	C474.638916,288.175171 435.551453,290.272461 396.535919,292.926208 
	C308.121552,298.939850 220.700455,312.430511 133.965591,330.255585 
	C92.846649,338.706024 52.043140,348.690979 11.094126,357.969269 
	C8.009860,358.668121 4.904639,359.274475 1.404578,359.961914 
	C1.000000,293.979095 1.000000,227.958206 1.000001,161.468658 
z" />
	<path fill="#252825" opacity="1.000000" stroke="none" d="
M806.280334,310.141571 
	C814.659119,306.117859 823.459106,302.543518 832.005188,298.440247 
	C862.284607,283.901947 889.694580,264.854340 914.109192,242.036438 
	C945.859985,212.362259 976.305847,181.296112 1007.527588,151.050186 
	C1031.366577,127.956360 1056.376587,106.243393 1084.482910,88.348389 
	C1111.981445,70.840408 1141.357422,58.624641 1174.126831,55.270370 
	C1205.464844,52.062614 1235.941528,56.473038 1265.990967,64.883850 
	C1302.172241,75.010986 1335.837402,90.958466 1368.200684,109.813171 
	C1415.470337,137.352249 1458.473022,170.678726 1499.758667,206.905975 
	C1497.531738,214.702133 1495.259766,222.363159 1492.508057,229.847824 
	C1481.763550,259.072662 1471.418091,288.461792 1459.868286,317.367920 
	C1448.883179,344.860931 1434.458862,370.606079 1414.883301,393.069946 
	C1385.528442,426.756500 1348.538452,445.755737 1303.972412,450.002380 
	C1266.262207,453.595703 1230.025879,446.138397 1194.232666,435.534882 
	C1155.667236,424.110107 1118.764648,408.235321 1081.719238,392.789154 
	C1028.454956,370.580444 974.196167,351.183807 918.313965,336.764648 
	C883.984619,327.906738 849.213257,320.763428 814.651184,312.803131 
	C811.918945,312.173859 809.271790,311.175323 806.280334,310.141571 
z" />
</svg>