<svg width="919" height="122" viewBox="0 0 919 122" fill="none" xmlns="http://www.w3.org/2000/svg">
<path d="M588.371 95.0087H656.49V81.3925H630.945C630.887 81.394 630.828 81.3923 630.77 81.3875C630.668 81.3792 630.567 81.3616 630.468 81.3348C630.407 81.3182 630.346 81.2981 630.287 81.2746C630.078 81.1913 629.888 81.0666 629.729 80.9081C629.57 80.7495 629.444 80.5605 629.361 80.3523C629.277 80.1442 629.237 79.9213 629.242 79.6971V44.0937C629.357 43.1731 629.264 42.2387 628.969 41.3587C628.674 40.4787 628.186 39.6754 627.539 39.0075L617.322 28.8351C616.65 28.1914 615.844 27.7051 614.96 27.4118C614.076 27.1185 613.137 27.0255 612.212 27.1397L590.439 27.4118L576.751 40.7029H613.916C614.141 40.6974 614.365 40.7375 614.573 40.8208C614.783 40.9041 614.973 41.0288 615.132 41.1873C615.291 41.3459 615.416 41.5349 615.5 41.7431C615.583 41.9513 615.624 42.1742 615.618 42.3983V79.6971C615.624 79.9213 615.583 80.1442 615.5 80.3523C615.416 80.5605 615.291 80.7495 615.132 80.9081C615.07 80.9698 615.003 81.0263 614.933 81.0773C614.907 81.0958 614.881 81.1135 614.854 81.1305L614.813 81.1559L614.759 81.1872L614.72 81.2079C614.673 81.2324 614.624 81.2547 614.573 81.2746C614.365 81.3578 614.141 81.398 613.916 81.3925H588.371V95.0087Z" fill="#FBCB4A"/>
<path d="M629.242 13.6162V0.0529785L615.618 0V13.6162H629.242Z" fill="#FBCB4A"/>
<path d="M209.403 42.2715V79.6266C209.397 79.8511 209.438 80.0743 209.521 80.2828C209.605 80.4913 209.73 80.6806 209.889 80.8394C210.049 80.9982 210.239 81.1231 210.448 81.2065C210.657 81.2899 210.881 81.33 211.106 81.3246H263.907V94.9614H212.809C211.884 95.0757 210.946 94.9826 210.062 94.6888C209.178 94.3951 208.37 93.9081 207.699 93.2634L197.48 83.0226C196.845 82.3477 196.369 81.5405 196.086 80.6595C195.803 79.7784 195.72 78.8456 195.843 77.9287V43.9694C195.729 43.0475 195.822 42.1117 196.116 41.2303C196.411 40.349 196.9 39.5445 197.546 38.8755L207.699 28.6347C208.37 27.9901 209.178 27.5031 210.062 27.2093C210.946 26.9155 211.884 26.8224 212.809 26.9367H263.907V40.5735H211.106C210.966 40.5701 210.826 40.5844 210.689 40.6159C210.642 40.6269 210.595 40.64 210.548 40.6552C210.514 40.6662 210.481 40.6784 210.448 40.6916C210.239 40.775 210.049 40.8999 209.889 41.0587C209.835 41.1127 209.785 41.1702 209.739 41.2308C209.65 41.3484 209.576 41.4777 209.521 41.6153C209.438 41.8238 209.397 42.047 209.403 42.2715Z" fill="#FBCB4A"/>
<path fill-rule="evenodd" clip-rule="evenodd" d="M290.571 69.4675L322.902 55.8425C325.027 54.8062 327.346 54.2261 329.708 54.1393H338.216C338.442 54.1538 338.669 54.122 338.882 54.0458C338.922 54.0314 338.962 54.0155 339 53.9981C339.045 53.9781 339.089 53.9561 339.132 53.9322C339.194 53.8976 339.254 53.859 339.311 53.8167C339.361 53.7793 339.41 53.7391 339.456 53.696C339.621 53.5416 339.754 53.3549 339.844 53.1474C339.936 52.9399 339.983 52.716 339.984 52.4894V42.2707C339.99 42.0455 339.949 41.8216 339.866 41.6125C339.782 41.4034 339.657 41.2135 339.498 41.0542C339.397 40.9527 339.283 40.865 339.159 40.7931C339.089 40.7522 339.016 40.7164 338.94 40.686C338.731 40.6024 338.508 40.5621 338.283 40.5676H285.48V26.8893H309.302C311.643 26.9668 313.942 27.5285 316.055 28.5392L348.386 42.1642C349.953 42.9571 351.264 44.1774 352.167 45.6843C353.07 47.1911 353.529 48.923 353.491 50.6799V77.9299C353.605 78.8546 353.512 79.7933 353.218 80.6773C352.923 81.5613 352.435 82.3683 351.789 83.0393L341.58 93.2581C340.909 93.9047 340.103 94.3932 339.22 94.6879C338.337 94.9825 337.399 95.0759 336.475 94.9612H302.443C301.519 95.0759 300.581 94.9825 299.698 94.6879C298.814 94.3932 298.008 93.9047 297.338 93.2581L287.168 83.0925C286.522 82.4216 286.034 81.6146 285.74 80.7306C285.445 79.8466 285.352 78.9079 285.467 77.9832C285.428 76.2263 285.887 74.4944 286.79 72.9875C287.694 71.4807 289.004 70.2604 290.571 69.4675ZM300.781 81.4426H338.216C338.441 81.4481 338.665 81.4078 338.874 81.3242C339.083 81.2405 339.273 81.1152 339.432 80.956C339.591 80.7967 339.716 80.6068 339.8 80.3977C339.883 80.1886 339.923 79.9647 339.918 79.7395V69.5207C339.923 69.2956 339.883 69.0716 339.8 68.8625C339.716 68.6534 339.591 68.4635 339.432 68.3043C339.273 68.145 339.083 68.0198 338.874 67.9361C338.665 67.8524 338.441 67.8121 338.216 67.8176H300.781C300.556 67.8121 300.332 67.8524 300.123 67.9361C299.914 68.0198 299.725 68.145 299.566 68.3043C299.406 68.4635 299.281 68.6534 299.198 68.8625C299.176 68.9185 299.156 68.9755 299.14 69.0333L299.127 69.0838C299.119 69.1169 299.112 69.1503 299.105 69.1838C299.085 69.2946 299.077 69.4075 299.079 69.5207V79.7395C299.08 79.8401 299.09 79.9402 299.109 80.0386C299.131 80.156 299.166 80.2709 299.213 80.3813C299.3 80.5841 299.427 80.7677 299.585 80.9213C299.743 81.0748 299.93 81.1953 300.136 81.2757C300.341 81.356 300.561 81.3947 300.781 81.3894V81.4426Z" fill="#FBCB4A"/>
<path fill-rule="evenodd" clip-rule="evenodd" d="M687.884 94.9622C686.962 95.0752 686.026 94.9818 685.145 94.6888C684.264 94.3957 683.46 93.9105 682.792 93.2686L672.581 83.0539C671.935 82.3867 671.447 81.5842 671.152 80.7051C670.858 79.826 670.764 78.8926 670.879 77.973V50.875C670.839 49.1293 671.296 47.4081 672.197 45.9098C673.098 44.4115 674.406 43.1971 675.971 42.4068L708.319 28.8049C710.444 27.7744 712.763 27.1975 715.126 27.1113H723.635C723.86 27.1149 724.084 27.0732 724.293 26.9885C724.502 26.9038 724.692 26.778 724.851 26.6186C724.956 26.5129 725.047 26.3939 725.12 26.2648C725.142 26.2264 725.162 26.1871 725.181 26.147C725.194 26.1187 725.207 26.0899 725.218 26.0608C725.243 25.9993 725.264 25.9365 725.281 25.8727C725.287 25.8508 725.292 25.8287 725.297 25.8065L725.303 25.7761L725.308 25.7532L725.314 25.7191C725.331 25.6154 725.339 25.51 725.336 25.4044V0H738.951V94.9622H687.884ZM725.336 79.6666V42.4068C725.339 42.2893 725.33 42.1721 725.308 42.0572C725.288 41.9532 725.258 41.8511 725.218 41.7523C725.188 41.6765 725.152 41.6033 725.11 41.5331C725.039 41.4108 724.951 41.2978 724.85 41.1971C724.759 41.1064 724.658 41.0268 724.549 40.9597C724.467 40.9097 724.382 40.8666 724.292 40.831C724.083 40.7478 723.86 40.7078 723.635 40.7132H686.195C686.109 40.7111 686.024 40.7156 685.939 40.7266C685.802 40.7445 685.667 40.7795 685.537 40.831C685.328 40.9142 685.139 41.0388 684.979 41.1971C684.821 41.3555 684.695 41.5444 684.612 41.7523C684.528 41.9603 684.488 42.1829 684.493 42.4068V79.6666C684.488 79.8905 684.528 80.1132 684.612 80.3211C684.637 80.3848 684.667 80.4467 684.7 80.5065C684.724 80.5489 684.749 80.5903 684.776 80.6304C684.804 80.6721 684.834 80.7124 684.866 80.7514L684.893 80.7829C684.92 80.8151 684.949 80.8463 684.979 80.8763C685.139 81.0347 685.328 81.1592 685.537 81.2424C685.602 81.268 685.667 81.2896 685.734 81.3069C685.884 81.346 686.039 81.364 686.195 81.3603H723.635C723.86 81.3657 724.083 81.3256 724.292 81.2424C724.501 81.1592 724.691 81.0347 724.85 80.8763C725.009 80.7179 725.135 80.5291 725.218 80.3211C725.253 80.2354 725.28 80.1471 725.299 80.0572C725.316 79.9816 725.327 79.9048 725.333 79.8275C725.336 79.7741 725.338 79.7204 725.336 79.6666Z" fill="#FBCB4A"/>
<path fill-rule="evenodd" clip-rule="evenodd" d="M828.521 98.1711V43.885C828.653 42.9641 828.569 42.0251 828.274 41.1425C827.979 40.26 827.481 39.4581 826.821 38.8007L816.621 28.632C815.952 27.9886 815.146 27.5025 814.264 27.2093C813.381 26.916 812.445 26.8231 811.521 26.9372H777.509C776.588 26.8222 775.653 26.9148 774.773 27.2082C773.892 27.5015 773.089 27.9881 772.423 28.632L762.21 38.8007C761.564 39.4684 761.077 40.2714 760.782 41.1511C760.489 42.0308 760.395 42.9648 760.51 43.885V71.0016C760.473 72.7512 760.933 74.4756 761.838 75.9752C762.743 77.4748 764.055 78.6884 765.623 79.4755L797.922 93.0338C800.045 94.0664 802.361 94.6437 804.722 94.7285H813.221C813.446 94.7231 813.67 94.7632 813.878 94.8464C814.087 94.9297 814.277 95.0543 814.436 95.2128C814.594 95.3713 814.719 95.5603 814.803 95.7684C814.886 95.9764 814.927 96.1992 814.921 96.4233V106.592L814.922 106.624C814.922 106.643 814.922 106.662 814.921 106.681C814.92 106.733 814.916 106.785 814.909 106.837C814.892 106.977 814.856 107.115 814.803 107.247C814.719 107.455 814.594 107.644 814.436 107.803C814.277 107.961 814.087 108.086 813.878 108.169C813.67 108.252 813.446 108.292 813.221 108.287H760.51V121.898H784.322C786.682 121.811 788.998 121.233 791.122 120.203L823.421 106.645C824.986 105.856 826.296 104.642 827.198 103.142C828.101 101.643 828.559 99.9193 828.521 98.1711ZM775.809 40.4955H813.221C813.346 40.4925 813.47 40.5034 813.591 40.5279C813.689 40.5477 813.785 40.5762 813.878 40.6134C814.087 40.6966 814.277 40.8213 814.436 40.9798C814.594 41.1382 814.719 41.3272 814.803 41.5353C814.886 41.7434 814.927 41.9662 814.921 42.1902V79.4755C814.927 79.6996 814.886 79.9224 814.803 80.1304C814.768 80.2182 814.725 80.3026 814.676 80.3827C814.637 80.4451 814.594 80.505 814.548 80.5619C814.513 80.605 814.475 80.6465 814.436 80.686C814.277 80.8445 814.087 80.9691 813.878 81.0524C813.843 81.0667 813.806 81.0797 813.769 81.0915C813.742 81.1004 813.714 81.1085 813.686 81.1159C813.646 81.1264 813.605 81.1355 813.565 81.143L813.506 81.1528C813.485 81.1559 813.464 81.1587 813.442 81.161C813.414 81.1641 813.385 81.1665 813.356 81.1681C813.319 81.1702 813.281 81.1711 813.243 81.1707L813.221 81.1703H775.809C775.65 81.1741 775.491 81.1551 775.338 81.1141C775.275 81.0972 775.213 81.0766 775.152 81.0524C774.944 80.9691 774.754 80.8445 774.595 80.686C774.436 80.5275 774.311 80.3385 774.228 80.1304C774.144 79.9224 774.104 79.6996 774.109 79.4755V42.1902C774.104 41.9662 774.144 41.7434 774.228 41.5353C774.311 41.3272 774.436 41.1382 774.595 40.9798C774.754 40.8213 774.944 40.6966 775.152 40.6134C775.361 40.5302 775.584 40.49 775.809 40.4955Z" fill="#FBCB4A"/>
<path fill-rule="evenodd" clip-rule="evenodd" d="M913.084 52.4971L880.755 66.0477C878.631 67.0823 876.313 67.6615 873.952 67.7481H865.474C865.25 67.7427 865.026 67.7829 864.817 67.8665C864.739 67.8977 864.664 67.9347 864.592 67.9772C864.547 68.0033 864.504 68.0314 864.462 68.0614C864.39 68.1133 864.323 68.171 864.26 68.234C864.238 68.2559 864.216 68.2784 864.196 68.3015L864.18 68.3189L864.158 68.3451C864.133 68.3752 864.109 68.4062 864.086 68.438C864.066 68.466 864.047 68.4946 864.028 68.5239C863.975 68.6086 863.929 68.6981 863.892 68.7915C863.808 69.0002 863.768 69.2238 863.774 69.4486V79.6514C863.772 79.6957 863.773 79.74 863.776 79.7841C863.779 79.8456 863.786 79.9069 863.796 79.9675C863.8 79.9922 863.805 80.0168 863.81 80.0413C863.816 80.0682 863.823 80.095 863.83 80.1216C863.847 80.185 863.868 80.2474 863.892 80.3086C863.976 80.5174 864.101 80.707 864.26 80.866C864.419 81.025 864.608 81.1501 864.817 81.2336C865.026 81.3171 865.25 81.3574 865.474 81.3519H918.213V95.0088H894.362C892 94.9221 889.683 94.343 887.558 93.3083L855.243 79.6514C853.677 78.8598 852.367 77.6414 851.464 76.1368C850.561 74.6324 850.102 72.9032 850.141 71.1491V43.9416C850.026 43.0183 850.119 42.0811 850.414 41.1985C850.708 40.3158 851.196 39.5101 851.841 38.8402L862.046 28.6374C862.716 27.9918 863.522 27.5041 864.405 27.2098C865.288 26.9156 866.225 26.8224 867.149 26.9369H901.165C902.09 26.8222 903.03 26.9154 903.915 27.2096C904.8 27.5037 905.608 27.9915 906.281 28.6374L916.485 38.8402C918.186 40.5406 918.186 41.816 918.186 43.9416C918.235 45.7046 917.781 47.4451 916.877 48.96C915.974 50.4748 914.658 51.7015 913.084 52.4971ZM902.865 40.5406H865.474C865.25 40.5352 865.026 40.5754 864.817 40.6589C864.754 40.6841 864.693 40.7131 864.634 40.7456C864.614 40.7569 864.593 40.7686 864.573 40.7807C864.54 40.8005 864.508 40.8215 864.477 40.8435L864.449 40.8638L864.416 40.8884L864.368 40.9275C864.33 40.9589 864.294 40.9919 864.26 41.0266C864.101 41.1855 863.976 41.3752 863.892 41.584L863.871 41.6401C863.858 41.6744 863.847 41.7091 863.837 41.7441C863.825 41.7881 863.814 41.8326 863.805 41.8774C863.781 41.9969 863.771 42.1188 863.774 42.2411V52.4971C863.768 52.7219 863.808 52.9454 863.892 53.1542C863.926 53.2386 863.966 53.3198 864.013 53.3972C864.082 53.5113 864.165 53.6169 864.26 53.7116C864.419 53.8706 864.608 53.9957 864.817 54.0792C864.902 54.1133 864.99 54.1402 865.079 54.1597C865.155 54.1761 865.231 54.1873 865.308 54.1932C865.363 54.1974 865.419 54.1989 865.474 54.1975H902.892C902.924 54.1983 902.956 54.1982 902.988 54.1971C903.017 54.1961 903.046 54.1944 903.075 54.1919L903.124 54.187L903.144 54.1846C903.168 54.1815 903.192 54.1779 903.216 54.1738C903.33 54.1541 903.443 54.1225 903.551 54.0793C903.637 54.045 903.72 54.0038 903.8 53.956L903.847 53.926C903.942 53.864 904.031 53.7925 904.112 53.7123C904.218 53.6068 904.309 53.4878 904.384 53.3585C904.421 53.2932 904.454 53.2253 904.483 53.1552C904.568 52.9464 904.61 52.7225 904.606 52.4971V42.2943C904.612 42.1745 904.605 42.0547 904.585 41.9371C904.575 41.8779 904.562 41.8192 904.546 41.7612L904.539 41.7367C904.527 41.6951 904.513 41.6539 904.497 41.6132C904.414 41.3962 904.286 41.199 904.122 41.0341C903.958 40.8691 903.762 40.74 903.546 40.6551C903.329 40.5701 903.098 40.5312 902.865 40.5406Z" fill="#FBCB4A"/>
<path d="M536.008 26.9368H574.03L560.029 40.5406H534.258C534.213 40.5395 534.168 40.5402 534.123 40.5425C534.073 40.5452 534.023 40.55 533.973 40.5569C533.913 40.5653 533.853 40.5768 533.794 40.5914L533.756 40.6013C533.697 40.6173 533.639 40.6366 533.581 40.6589C533.366 40.7424 533.171 40.8675 533.008 41.0265C532.844 41.1855 532.715 41.3751 532.629 41.5839C532.543 41.7927 532.502 42.0162 532.508 42.241V95.0088H518.507V43.9415C518.389 43.0182 518.485 42.081 518.788 41.1984C519.091 40.3157 519.593 39.51 520.257 38.8401L530.758 28.6373C531.447 27.9917 532.276 27.5039 533.185 27.2097C534.093 26.9155 535.057 26.8223 536.008 26.9368Z" fill="#FBCB4A"/>
<path d="M474.914 40.7053H500.533V27.1413H474.914C474.863 27.1453 474.812 27.1469 474.761 27.146C474.731 27.1455 474.7 27.1441 474.671 27.1419C474.647 27.1402 474.623 27.1379 474.6 27.1351C474.476 27.1204 474.354 27.0912 474.237 27.048C474.02 26.9684 473.824 26.8429 473.661 26.6802C473.499 26.5175 473.374 26.3217 473.295 26.1062C473.217 25.8907 473.186 25.6608 473.207 25.4325V0H459.543V25.4325C459.563 25.6608 459.533 25.8907 459.455 26.1062C459.376 26.3217 459.251 26.5175 459.089 26.6802C458.926 26.8429 458.73 26.9684 458.513 27.048C458.297 27.1277 458.065 27.1595 457.835 27.1413H442.531L428.828 40.7053H457.835C458.064 40.6873 458.294 40.7189 458.51 40.7978C458.725 40.8766 458.921 41.0009 459.083 41.1621C459.103 41.1816 459.122 41.2016 459.141 41.2221C459.197 41.2836 459.247 41.3493 459.292 41.4184C459.356 41.5163 459.409 41.6212 459.45 41.7313C459.53 41.9452 459.562 42.1736 459.543 42.4008V78.0063C459.415 78.9242 459.499 79.859 459.788 80.7401C460.077 81.6212 460.563 82.4257 461.211 83.0929L471.458 93.2659C472.131 93.9096 472.941 94.3959 473.827 94.6892C474.714 94.9826 475.655 95.0756 476.582 94.9614H500.493V81.3974H474.874C474.783 81.3996 474.691 81.3943 474.601 81.3816C474.469 81.3631 474.339 81.3289 474.214 81.2794C474.005 81.1961 473.814 81.0714 473.655 80.9129C473.495 80.7543 473.369 80.5652 473.285 80.3571C473.201 80.1489 473.161 79.926 473.167 79.7018V42.4008C473.147 42.1699 473.18 41.9378 473.262 41.7208C473.344 41.5039 473.472 41.3075 473.639 41.1456C473.806 40.9837 474.007 40.8603 474.227 40.7842C474.448 40.7081 474.682 40.6812 474.914 40.7053Z" fill="#FBCB4A"/>
<path d="M391.974 26.9416H427.035L413.536 40.5444H390.298C390.075 40.5389 389.853 40.5792 389.646 40.6627C389.566 40.6946 389.49 40.7326 389.417 40.7763C389.389 40.793 389.361 40.8105 389.334 40.8288C389.316 40.8414 389.297 40.8545 389.279 40.8679C389.213 40.9171 389.15 40.9713 389.092 41.0302C388.934 41.1892 388.81 41.3788 388.727 41.5876C388.644 41.7964 388.604 42.0199 388.609 42.2447V95.0088H375.096V43.8919C374.983 42.9687 375.075 42.0316 375.368 41.149C375.66 40.2664 376.144 39.4608 376.786 38.7909L386.92 28.5888C387.589 27.9545 388.389 27.4778 389.263 27.1929C390.137 26.908 391.063 26.8222 391.974 26.9416Z" fill="#FBCB4A"/>
<path d="M91.2859 11.5938L121.262 24.3436C122.712 25.0894 123.925 26.2321 124.762 27.6412C125.6 29.0503 126.028 30.6689 125.999 32.3123V83.3201C125.999 84.9138 125.999 86.5075 124.421 88.1013L114.956 97.6637C113.379 99.2574 112.195 99.2574 110.224 99.2574H88.7334V86.5075H111.801C113.379 86.5075 113.379 84.9138 113.379 84.9138V24.3436C113.379 24.3436 113.379 22.7499 111.801 22.7499H14.2029C12.6253 22.7499 12.6253 24.3436 12.6253 24.3436V84.9138C12.6253 84.9138 12.6253 86.5075 14.2029 86.5075H37.5044V99.2409H88.721V111.999H37.4634V99.2574H15.7803C13.8096 99.2574 12.6253 99.2574 11.0479 97.6637L1.57887 88.1013C0.0014776 86.5075 0.00147759 84.9138 0.00147759 83.3201V32.3123C-0.0285517 30.6688 0.399671 29.05 1.23732 27.6408C2.07472 26.2317 3.2881 25.0891 4.73805 24.3436L34.71 11.5938C36.6819 10.6241 38.8325 10.0812 41.0239 10H84.9761C87.1663 10.0811 89.3157 10.6239 91.2859 11.5938Z" fill="#FBCB4A"/>
<path d="M87.2705 50.0701H38.2131L38.2256 37.5813H87.2705V50.0701Z" fill="#FBCB4A"/>
</svg>
