<svg width="906" height="100" viewBox="0 0 906 100" fill="none" xmlns="http://www.w3.org/2000/svg">
<path d="M33.7741 49.3974C32.4094 50.9204 33.4903 53.3405 35.5353 53.3405H44.7542C46.8094 53.3405 47.8864 50.8994 46.5009 49.3814L41.8492 44.2848C40.9056 43.2509 39.2755 43.2583 38.3413 44.3008L33.7741 49.3974Z" fill="#FBCB4A"/>
<path d="M77.2866 60.1649H82.8427C83.851 60.1649 84.6768 59.458 84.6768 58.5798V51.9288C84.6768 51.0506 83.851 50.3437 82.8427 50.3437H77.2866C76.2783 50.3437 75.4524 51.0506 75.4524 51.9288V58.5905C75.4524 59.4687 76.2783 60.1649 77.2866 60.1649Z" fill="#FBCB4A"/>
<path d="M82.8427 75.2506H77.2866C76.2783 75.2506 75.4524 74.5544 75.4524 73.6762V67.0145C75.4524 66.1363 76.2783 65.4294 77.2866 65.4294H82.8427C83.851 65.4294 84.6768 66.1363 84.6768 67.0145V73.6655C84.6768 74.5437 83.851 75.2506 82.8427 75.2506Z" fill="#FBCB4A"/>
<path d="M44.7542 71.3176H35.5353C33.4903 71.3176 32.4094 73.7376 33.7741 75.2606L38.3413 80.3573C39.2755 81.3997 40.9056 81.4071 41.8492 80.3732L46.5009 75.2766C47.8864 73.7586 46.8094 71.3176 44.7542 71.3176Z" fill="#FBCB4A"/>
<path d="M48.1639 57.7525V66.9713C48.1639 69.0163 50.584 70.0972 52.107 68.7324L57.2036 64.1653C58.2461 63.2311 58.2535 61.601 57.2196 60.6574L52.123 56.0058C50.6049 54.6203 48.1639 55.6972 48.1639 57.7525Z" fill="#FBCB4A"/>
<path d="M32.1093 57.7525V66.9713C32.1093 69.0163 29.6892 70.0972 28.1662 68.7324L23.0695 64.1653C22.0271 63.2311 22.0197 61.601 23.0536 60.6574L28.1502 56.0058C29.6683 54.6203 32.1093 55.6972 32.1093 57.7525Z" fill="#FBCB4A"/>
<path fill-rule="evenodd" clip-rule="evenodd" d="M59.6491 0H48.6639V24.1431H35.2591C35.2591 24.1431 32.5458 24.1431 29.8326 25.4914L4.06349 36.3281C1.3503 37.6764 0 40.3981 0 43.0947V86.4415C0 87.8024 0 89.1507 1.3503 90.5116L9.48991 98.6391C10.8402 100 11.8624 100 13.5534 100H94.7603C96.4513 100 97.4735 100 98.8238 98.6391L106.963 90.5116C108.314 89.1633 108.314 87.8024 108.314 86.4415V43.0947C108.314 40.3855 106.963 37.6764 104.25 36.3281L78.481 25.4914C75.7679 24.1431 73.0546 24.1431 73.0546 24.1431H59.6491V0ZM10.8528 87.8024C10.8528 87.8024 10.8528 89.1633 12.2031 89.1633H96.1232C97.4735 89.1633 97.4735 87.8024 97.4735 87.8024V36.3281C97.4735 36.3281 97.4735 34.9798 96.1232 34.9798H12.2031C10.8528 34.9798 10.8528 36.3281 10.8528 36.3281V87.8024Z" fill="#FBCB4A"/>
<path d="M421.169 92.9668H441.169V81.5382H419.74C419.74 81.5382 418.312 81.5382 418.312 80.1096V48.6811C418.312 47.1632 419.74 47.2525 419.74 47.2525H441.169V35.8239H419.74C419.74 35.8239 418.312 35.9132 418.312 34.3954V12.9668H406.883V34.3954C406.883 35.9132 405.455 35.8239 405.455 35.8239H384.026V47.2525H405.455C405.455 47.2525 406.883 47.1632 406.883 48.6811V78.6811C406.883 80.1989 406.883 81.5382 408.312 82.9668L416.883 91.5382C418.312 92.9668 419.74 92.9668 421.169 92.9668Z" fill="#FBCB4A"/>
<path d="M163.068 48.6811C163.068 48.6811 163.068 47.2525 164.496 47.2525H208.782V35.8239H165.925C164.496 35.8239 163.068 35.8239 161.639 37.2525L153.068 45.8239C151.639 47.2525 151.639 48.6811 151.639 50.1096V78.6811C151.639 80.1096 151.639 81.5382 153.068 82.9668L161.639 91.5382C163.068 92.9668 164.496 92.9668 165.925 92.9668H208.782V81.5382H164.496C163.068 81.5382 163.068 80.1096 163.068 80.1096V48.6811Z" fill="#FBCB4A"/>
<path fill-rule="evenodd" clip-rule="evenodd" d="M229.101 50.1096V78.6811C229.101 80.1096 229.102 81.5382 230.53 82.9668L239.101 91.5382C240.53 92.9668 241.959 92.9668 243.387 92.9668H271.959C273.387 92.9668 274.816 92.9668 276.244 91.5382L284.816 82.9668C286.244 81.5382 286.244 80.1096 286.244 78.6811V50.1096C286.244 48.6811 286.244 47.2525 284.816 45.8239L276.244 37.2525C274.816 35.8239 273.387 35.8239 271.959 35.8239H243.387C241.959 35.8239 240.53 35.8239 239.101 37.2525L230.53 45.8239C229.102 47.2525 229.101 48.6811 229.101 50.1096ZM241.959 81.5382C241.959 81.5382 240.53 81.5382 240.53 80.1096V48.6811C240.53 47.2525 241.959 47.2525 241.959 47.2525H273.387C273.387 47.2525 274.816 47.2525 274.816 48.6811V80.1096C274.816 81.5382 273.387 81.5382 273.387 81.5382H241.959Z" fill="#FBCB4A"/>
<path d="M352.278 48.6811C352.278 47.2525 350.849 47.2525 350.849 47.2525H319.421C319.421 47.2525 317.992 47.2525 317.992 48.6811V92.9668H306.564V50.1096C306.564 48.6811 306.564 47.2525 307.992 45.8239L316.564 37.2525C317.992 35.8239 319.421 35.8239 320.85 35.8239H349.421C350.85 35.8239 352.278 35.8239 353.707 37.2525L362.278 45.8239C363.707 47.2525 363.707 48.6811 363.707 50.1096V92.9668H352.278V48.6811Z" fill="#FBCB4A"/>
<path d="M461.489 92.9668V50.1096C461.489 48.6811 461.488 47.2525 462.917 45.8239L471.488 37.2525C472.917 35.8239 474.346 35.8239 475.774 35.8239H518.631V47.2525H474.346C474.346 47.2525 472.917 47.2525 472.917 48.6811V92.9668H461.489Z" fill="#FBCB4A"/>
<path fill-rule="evenodd" clip-rule="evenodd" d="M538.951 50.1096V78.6811C538.951 80.1096 538.951 81.5382 540.379 82.9668L548.951 91.5382C550.379 92.9668 551.808 92.9668 553.237 92.9668H581.808C583.236 92.9668 584.665 92.9668 586.094 91.5382L594.665 82.9668C596.094 81.5382 596.094 80.1096 596.094 78.6811V50.1096C596.094 48.6811 596.094 47.2525 594.665 45.8239L586.094 37.2525C584.665 35.8239 583.236 35.8239 581.808 35.8239H553.237C551.808 35.8239 550.379 35.8239 548.951 37.2525L540.379 45.8239C538.951 47.2525 538.951 48.6811 538.951 50.1096ZM551.808 81.5382C551.808 81.5382 550.379 81.5382 550.379 80.1096V48.6811C550.379 47.2525 551.808 47.2525 551.808 47.2525H583.237C583.237 47.2525 584.665 47.2525 584.665 48.6811V80.1096C584.665 81.5382 583.237 81.5382 583.237 81.5382H551.808Z" fill="#FBCB4A"/>
<path d="M673.556 81.5382V92.9668H616.413V81.5382H637.842C637.874 81.5382 637.907 81.5385 637.941 81.5387C638.548 81.5432 639.27 81.5485 639.27 80.1096V25.8239C639.27 24.3851 638.548 24.3904 637.941 24.3949H637.94C637.907 24.3951 637.874 24.3954 637.842 24.3954H616.413V12.9668H636.413C637.842 12.9668 639.27 12.9668 640.699 14.3954L649.27 22.9668C650.699 24.3954 650.699 25.8239 650.699 27.2525V80.1096C650.699 81.5485 651.421 81.5432 652.028 81.5387L652.09 81.5383L652.127 81.5382H673.556Z" fill="#FBCB4A"/>
<path d="M751.018 92.9668V81.5382H729.59C729.557 81.5382 729.524 81.5385 729.491 81.5387C728.883 81.5432 728.161 81.5485 728.161 80.1096V27.2525C728.161 25.8239 728.161 24.3954 726.733 22.9668L718.161 14.3954C716.733 12.9668 715.304 12.9668 713.875 12.9668H693.875V24.3954H715.304L715.35 24.3952L715.403 24.3949C716.011 24.3904 716.733 24.3851 716.733 25.8239V80.1096C716.733 81.5485 716.011 81.5432 715.403 81.5387C715.37 81.5385 715.337 81.5382 715.304 81.5382H693.875V92.9668H751.018Z" fill="#FBCB4A"/>
<path fill-rule="evenodd" clip-rule="evenodd" d="M828.481 50.1096C828.481 52.9668 827.052 55.8239 824.195 57.2525L797.052 68.6811C794.195 70.1096 791.338 70.1096 791.338 70.1096H784.195C782.766 70.1096 782.766 71.5382 782.766 71.5382V80.1096C782.766 81.5382 784.195 81.5382 784.195 81.5382H828.481V92.9668H808.481C808.481 92.9668 805.624 92.9668 802.766 91.5382L775.623 80.1096C772.766 78.6811 771.338 75.8239 771.338 72.9668V50.1096C771.338 48.6811 771.338 47.2525 772.766 45.8239L781.338 37.2525C782.766 35.8239 784.195 35.8239 785.623 35.8239H814.195C815.624 35.8239 817.052 35.8239 818.481 37.2525L827.052 45.8239C828.481 47.2525 828.481 48.3239 828.481 50.1096ZM817.052 48.6811C817.052 48.6811 817.052 47.2525 815.624 47.2525H784.195C782.766 47.2525 782.766 48.6811 782.766 48.6811V57.2525C782.766 58.6811 784.195 58.6811 784.195 58.6811H815.624C817.052 58.6811 817.052 57.2525 817.052 57.2525V48.6811Z" fill="#FBCB4A"/>
<path d="M850.229 45.8239C848.8 47.2525 848.8 48.6811 848.8 50.1096V92.9668H860.229V48.6811C860.229 47.2525 861.657 47.2525 861.657 47.2525H905.943V35.8239H863.086C861.657 35.8239 860.229 35.8239 858.8 37.2525L850.229 45.8239Z" fill="#FBCB4A"/>
</svg>
