<svg width="128" height="128" viewBox="0 0 128 128" fill="none" xmlns="http://www.w3.org/2000/svg">
<path d="M32.9136 31.1331C30.672 27.1515 28.2346 23.2933 25.6016 19.5584L27.5763 18.3427L29.6579 21.1968C31.3302 20.5273 32.9314 19.8402 34.4614 19.1355C36.0626 18.3956 37.8061 17.9904 39.6919 17.9199C43.9973 17.9904 47.2886 19.6112 49.5658 22.7824C50.6333 24.2975 51.5762 25.9535 52.3946 27.7505C53.1062 29.6532 53.7645 31.5383 54.3694 33.4058C54.654 34.9209 55.0099 36.4712 55.4368 38.0568C55.8638 39.7128 56.4153 41.2632 57.0914 42.7078C57.7319 44.082 58.6392 45.28 59.8134 46.3018C62.13 48.3873 65.8731 48.3873 68.1897 46.3018C69.3639 45.28 70.2713 44.082 70.9117 42.7078C71.5878 41.2632 72.1393 39.7128 72.5663 38.0568C72.9933 36.4712 73.3491 34.9209 73.6337 33.4058C74.2386 31.5383 74.8969 29.6532 75.6085 27.7505C76.4269 25.9535 77.3698 24.2975 78.4373 22.7824C80.7145 19.6112 84.0058 17.9904 88.3112 17.9199C90.197 17.9904 91.9405 18.3956 93.5417 19.1355C95.0717 19.8402 96.6729 20.5273 98.3452 21.1968L100.427 18.3427L102.402 19.5584C99.7685 23.2933 97.3312 27.1515 95.0895 31.1331C94.1288 30.9217 93.2571 30.6046 92.4743 30.1817C91.6559 29.6532 90.8019 29.1775 89.9124 28.7547C89.1296 28.3319 88.1867 27.9267 87.0836 27.5391C86.0162 27.1868 84.7886 27.0106 83.4009 27.0106C81.4795 27.0106 79.825 27.5215 78.4373 28.5433C76.9073 29.6356 76.1423 31.1859 76.1423 33.1943C76.1423 34.9913 76.7294 36.7531 77.9035 38.4796C79.0066 40.2766 80.3943 41.5803 82.0666 42.3907C84.4862 43.1659 86.9591 43.5182 89.4854 43.4478C90.8731 43.4478 92.2608 43.3773 93.6485 43.2364V50.7414H83.9347L67.1819 115.2L70.337 57.3632C70.5333 53.7654 67.6401 50.7414 64.0016 50.7414C60.363 50.7414 57.4698 53.7654 57.6661 57.3632L60.8212 115.2L44.0685 50.7414H34.3547V43.2364C35.7424 43.3773 37.13 43.4478 38.5177 43.4478C41.044 43.5182 43.517 43.1659 45.9365 42.3907C47.6089 41.5803 48.9965 40.2766 50.0996 38.4796C51.2738 36.7531 51.8609 34.9913 51.8609 33.1943C51.8609 31.1859 51.0959 29.6356 49.5658 28.5433C48.1782 27.5215 46.5236 27.0106 44.6022 27.0106C43.2145 27.0106 41.9869 27.1868 40.9195 27.5391C39.8165 27.9267 38.8735 28.3319 38.0907 28.7547C37.2012 29.1775 36.3472 29.6532 35.5289 30.1817C34.7461 30.6046 33.8743 30.9217 32.9136 31.1331Z" fill="#F59100"/>
</svg>
