<svg width="64" height="64" viewBox="0 0 64 64" fill="none" xmlns="http://www.w3.org/2000/svg">
    <path fillRule="evenodd" clipRule="evenodd"
        d="M39.6197 7.23828H24.3816V11.0478H16.7626V14.8573H12.953V18.6669H9.14351V26.2859H5.33398V37.7145H9.14351V45.3335H12.953V49.143H16.7626V52.9526H24.3816V56.7621H39.6197V52.9526H47.2387V49.143H51.0483V45.3335H54.8578V37.7145H58.6673V26.2859H54.8578V18.6669H51.0483V14.8573H47.2387V11.0478H39.6197V7.23828ZM39.6197 11.0478V14.8573H47.2387V18.6669H51.0483V26.2859H54.8578V37.7145H51.0483V45.3335H47.2387V49.143H39.6197V52.9526H24.3816V49.143H16.7626V45.3335H12.953V37.7145H9.14351V26.2859H12.953V18.6669H16.7626V14.8573H24.3816V11.0478H39.6197Z"
        fill="white" />
    <path
        d="M24.3807 11.0508V14.8603H16.7616V18.6698H12.9521V26.2889H9.14258V37.7174H12.9521V45.3365H16.7616V37.7174H12.9521V33.9079H20.5711V37.7174H24.3807V30.0984H28.1902V33.9079H31.9997V37.7174H35.8092V33.9079H31.9997V26.2889H39.6188V30.0984H43.4283V26.2889H39.6188V22.4794H43.4283V18.6698H39.6188V14.8603H35.8092V11.0508H24.3807Z"
        fill="#1D4966" />
    <path d="M39.6188 41.527V37.7174H47.2378V41.527H43.4283V45.3365H35.8092V41.527H39.6188Z" fill="#1D4966" />
    <path fillRule="evenodd" clipRule="evenodd"
        d="M39.6178 11.0508H35.8083V14.8603H39.6178V18.6698H43.4274V22.4794H39.6178V26.2889H31.9988V33.9079H28.1893V30.0984H24.3797V37.7174H20.5702V33.9079H12.9512V37.7174H16.7607V49.146H24.3797V52.9555H39.6178V49.146H47.2369V45.3365H51.0464V37.7174H54.8559V26.2889H51.0464V18.6698H47.2369V14.8603H39.6178V11.0508ZM31.9988 33.9079H35.8083V37.7174H31.9988V33.9079ZM39.6178 26.2889V30.0984H43.4274V26.2889H39.6178ZM43.4274 45.3365V41.527H47.2369V37.7174H39.6178V41.527H35.8083V45.3365H43.4274Z"
        fill="#47B5FF" />
</svg>