<svg width="24" height="24" viewBox="0 0 24 24" fill="none" xmlns="http://www.w3.org/2000/svg">
<path fill-rule="evenodd" clip-rule="evenodd" d="M9.57294 17.0188C9.83787 17.4397 10.6891 18.2674 11.9748 18.2109C13.2605 18.1543 13.7939 17.4573 13.8998 17.1159C13.9793 17.0482 14.2354 16.9022 14.6239 16.8598C15.1096 16.8068 19.5336 15.6059 19.984 14.5816C20.0193 14.5139 20.0193 14.3414 19.7367 14.1931C19.4541 14.0447 18.3003 12.7537 17.7587 12.1268C18.2914 10.4725 19.2175 6.93627 18.6594 6.02497C18.1093 5.12665 15.1742 6.97474 13.7149 8.05384C14.2835 8.34581 14.7608 8.73961 15.1736 9.15673C16.3036 8.1704 17.0682 8.08391 17.3159 8.16954C17.4862 8.90389 17.0742 10.3269 16.8059 11.0527C16.8174 11.0645 16.8288 11.0762 16.8403 11.0876C16.8283 11.0802 16.8154 11.0726 16.8015 11.0647C16.7967 11.0775 16.792 11.0901 16.7873 11.1025C16.7741 11.0812 16.7576 11.0571 16.7381 11.0306C16.2366 10.774 14.9089 10.3625 13.8277 10.7617C12.7576 11.1568 12.3293 13.0286 12.2226 14.2044C12.2075 14.3713 12.0699 14.5021 11.9024 14.5021C11.736 14.5021 11.5992 14.3721 11.5813 14.2066C11.4522 13.0196 10.998 12.0864 10.7707 11.6704C10.664 11.4322 10.2321 10.8782 9.35769 10.5676C8.55704 10.2833 7.58111 10.5095 7.18558 10.7484C7.17607 10.7755 7.17105 10.7994 7.17105 10.8199C7.16491 10.8036 7.15864 10.7868 7.15225 10.7695C7.12959 10.7845 7.1093 10.7995 7.09158 10.8144C7.10464 10.7833 7.11882 10.7517 7.13408 10.7197C6.89052 10.0463 6.50238 8.72019 6.65006 8.08247C6.87155 8.0058 7.55653 8.08363 8.56868 8.97084C9.03053 8.56538 9.55454 8.19759 10.0857 7.94C8.84823 7.1207 6.52037 5.77793 5.47566 5.91017C4.3595 6.05146 5.42857 9.93681 6.10262 11.8618C6.12617 11.9266 6.14854 12.0685 6.04964 12.1179C5.92601 12.1797 4.08047 14.1048 4.00099 14.5286C3.92152 14.9525 8.62811 17.1424 9.1491 16.8422C9.2374 16.8068 9.44578 16.7927 9.57294 17.0188ZM12.8498 7.71785C12.8244 7.48518 12.9481 7.10426 13.1934 6.97865C12.955 6.87268 12.3863 6.8197 12.019 7.45548C11.9218 7.23179 11.8742 6.63251 12.4605 6.02497C11.999 5.9457 11.0136 6.18395 10.631 7.71727C10.8898 7.63239 11.1457 7.57975 11.3925 7.56778C11.9292 7.54174 12.4123 7.59937 12.8498 7.71785ZM11.1707 15.3057C11.1129 15.0947 11.258 14.9425 11.42 14.9205C11.582 14.8985 12.0943 14.9113 12.395 14.9205C12.5269 14.9236 12.7668 15.0049 12.6711 15.3057C12.5937 15.5489 12.3277 15.7525 12.1557 15.8653C12.1234 15.8864 12.0884 15.9021 12.0517 15.9127C12.0525 15.9182 12.0529 15.9237 12.0529 15.9294V16.2048C12.0529 16.207 12.0529 16.2093 12.0529 16.2115V16.2151C12.054 16.365 12.0788 16.4756 12.1531 16.5356C12.2271 16.5955 12.3431 16.6506 12.5148 16.6506C12.6498 16.6506 12.7276 16.5872 12.777 16.5031C12.83 16.4126 12.8482 16.2989 12.8471 16.2228C12.8461 16.1602 12.8962 16.1086 12.9588 16.1077C13.0215 16.1068 13.073 16.1568 13.0739 16.2194C13.0755 16.3244 13.0523 16.4821 12.9727 16.6179C12.8893 16.76 12.7428 16.8775 12.5148 16.8775C12.2905 16.8775 12.1243 16.8041 12.0104 16.7121C11.9829 16.6898 11.9595 16.6653 11.9395 16.6391C11.9195 16.6653 11.896 16.6898 11.8685 16.7121C11.7547 16.8041 11.5885 16.8775 11.3641 16.8775C11.1361 16.8775 10.9897 16.76 10.9063 16.6179C10.8266 16.4821 10.8035 16.3244 10.805 16.2194C10.806 16.1568 10.8575 16.1068 10.9202 16.1077C10.9828 16.1086 11.0328 16.1602 11.0319 16.2228C11.0308 16.2989 11.0489 16.4126 11.102 16.5031C11.1514 16.5872 11.2291 16.6506 11.3641 16.6506C11.5358 16.6506 11.6518 16.5955 11.7259 16.5356C11.8001 16.4756 11.825 16.365 11.826 16.215C11.826 16.2116 11.826 16.2082 11.826 16.2048V15.9294C11.826 15.925 11.8262 15.9208 11.8267 15.9165C11.7893 15.9069 11.7535 15.8916 11.7209 15.87C11.5226 15.7386 11.2805 15.52 11.1707 15.3057ZM9.42278 14.1842C9.87148 14.1842 10.2352 14.0222 10.2352 13.8222C10.2352 13.6223 9.87148 13.4601 9.42278 13.4601C8.97412 13.4601 8.61039 13.6223 8.61039 13.8222C8.61039 14.0222 8.97412 14.1842 9.42278 14.1842ZM9.42278 15.4029C9.42278 15.793 8.94048 16.1093 8.3455 16.1093C7.75053 16.1093 7.26819 15.793 7.26819 15.4029C7.26819 15.0127 7.75053 14.6964 8.3455 14.6964C8.94048 14.6964 9.42278 15.0127 9.42278 15.4029ZM15.4981 16.1093C16.0931 16.1093 16.5754 15.793 16.5754 15.4029C16.5754 15.0127 16.0931 14.6964 15.4981 14.6964C14.9031 14.6964 14.4208 15.0127 14.4208 15.4029C14.4208 15.793 14.9031 16.1093 15.4981 16.1093ZM15.2332 13.8222C15.2332 14.0221 14.8695 14.1842 14.4208 14.1842C13.9721 14.1842 13.6084 14.0221 13.6084 13.8222C13.6084 13.6223 13.9721 13.4601 14.4208 13.4601C14.8695 13.4601 15.2332 13.6223 15.2332 13.8222Z" fill="black"/>
</svg>
