<svg width="24" height="24" viewBox="0 0 24 24" fill="none" xmlns="http://www.w3.org/2000/svg">
<path d="M6.5998 6.60005H8.3998V8.40005H6.5998V6.60005Z" fill="black"/>
<path d="M8.3998 6.60005H10.1998V8.40005H8.3998V6.60005Z" fill="black"/>
<path d="M8.3998 4.80005H10.1998V6.60005H8.3998V4.80005Z" fill="black"/>
<path d="M10.1998 6.60005H11.9998V8.40005H10.1998V6.60005Z" fill="black"/>
<path d="M11.9998 6.60005H13.7998V8.40005H11.9998V6.60005Z" fill="black"/>
<path d="M8.3998 13.8H10.1998V15.6H8.3998V13.8Z" fill="black"/>
<path d="M13.7998 13.8H15.5998V15.6H13.7998V13.8Z" fill="black"/>
<path d="M4.7998 12H6.5998V13.8H4.7998V12Z" fill="black"/>
<path d="M17.3998 13.8H19.1998V15.6H17.3998V13.8Z" fill="black"/>
<path d="M17.3998 12H19.1998V13.8H17.3998V12Z" fill="black"/>
<path d="M4.7998 13.8H6.5998V15.6H4.7998V13.8Z" fill="black"/>
<path d="M10.1998 17.4H11.9998V19.2H10.1998V17.4Z" fill="black"/>
<path d="M10.1998 15.6H11.9998V17.4H10.1998V15.6Z" fill="black"/>
<path d="M11.9998 17.4H13.7998V19.2H11.9998V17.4Z" fill="black"/>
<path d="M11.9998 15.6H13.7998V17.4H11.9998V15.6Z" fill="black"/>
<path d="M10.1998 10.2H11.9998V12H10.1998V10.2Z" fill="black"/>
<path d="M11.9998 10.2H13.7998V12H11.9998V10.2Z" fill="black"/>
<path d="M13.7998 6.60005H15.5998V8.40005H13.7998V6.60005Z" fill="black"/>
<path d="M13.7998 4.80005H15.5998V6.60005H13.7998V4.80005Z" fill="black"/>
<path d="M8.3998 8.40005H10.1998V10.2H8.3998V8.40005Z" fill="black"/>
<path d="M13.7998 8.40005H15.5998V10.2H13.7998V8.40005Z" fill="black"/>
<path d="M15.5998 6.60005H17.3998V8.40005H15.5998V6.60005Z" fill="black"/>
</svg>
