<svg width="24" height="24" viewBox="0 0 24 24" fill="none" xmlns="http://www.w3.org/2000/svg">
<path d="M13.7123 13.8379L12.5968 12.352L11.4544 13.1136L12.5035 14.5019C12.3447 14.5321 12.178 14.5472 12.0032 14.5472C11.5253 14.5472 11.1035 14.4352 10.7376 14.2112C10.3717 13.9797 10.0843 13.6661 9.8752 13.2704C9.66613 12.8672 9.5616 12.408 9.5616 11.8928C9.5616 11.5045 9.62133 11.1499 9.7408 10.8288C9.86028 10.5077 10.0283 10.2277 10.2448 9.9888C10.4688 9.74987 10.7264 9.56693 11.0176 9.44C11.3163 9.3056 11.6448 9.2384 12.0032 9.2384C12.3616 9.2384 12.6864 9.3056 12.9776 9.44C13.2763 9.56693 13.5339 9.74987 13.7504 9.9888C13.9669 10.2277 14.1349 10.5115 14.2544 10.84C14.3813 11.1611 14.4448 11.512 14.4448 11.8928C14.4448 12.2736 14.3813 12.6283 14.2544 12.9568C14.1349 13.2779 13.9669 13.5579 13.7504 13.7968C13.7378 13.8107 13.7251 13.8244 13.7123 13.8379Z" fill="black"/>
<path fill-rule="evenodd" clip-rule="evenodd" d="M20 12C20 16.4183 16.4183 20 12 20C7.58172 20 4 16.4183 4 12C4 7.58172 7.58172 4 12 4C16.4183 4 20 7.58172 20 12ZM13.405 15.6949L14.4336 17.056L15.5312 16.2608L14.5813 14.9954C14.6579 14.9278 14.7318 14.8568 14.8032 14.7824C15.1541 14.4165 15.4267 13.9909 15.6208 13.5056C15.8149 13.0128 15.912 12.4752 15.912 11.8928C15.912 11.3179 15.8149 10.784 15.6208 10.2912C15.4267 9.7984 15.1541 9.36907 14.8032 9.0032C14.4523 8.63733 14.0379 8.3536 13.56 8.152C13.0821 7.9504 12.5632 7.8496 12.0032 7.8496C11.4357 7.8496 10.9131 7.9504 10.4352 8.152C9.9648 8.3536 9.5504 8.63733 9.192 9.0032C8.84108 9.3616 8.56853 9.7872 8.3744 10.28C8.18027 10.7728 8.0832 11.3104 8.0832 11.8928C8.0832 12.4752 8.18027 13.0128 8.3744 13.5056C8.56853 13.9984 8.84108 14.4277 9.192 14.7936C9.5504 15.152 9.9648 15.432 10.4352 15.6336C10.9131 15.8352 11.4357 15.936 12.0032 15.936C12.5032 15.936 12.9705 15.8556 13.405 15.6949Z" fill="black"/>
</svg>
