<svg width="24" height="24" viewBox="0 0 24 24" fill="none" xmlns="http://www.w3.org/2000/svg">
<path d="M18.3609 8.23983C18.3711 8.38201 18.3711 8.52422 18.3711 8.6664C18.3711 13.0031 15.0703 18 9.0375 18C7.1789 18 5.45235 17.4617 4 16.5274C4.26407 16.5578 4.51795 16.568 4.79219 16.568C6.32576 16.568 7.7375 16.05 8.86484 15.1664C7.42265 15.1359 6.21405 14.1914 5.79764 12.8914C6.00078 12.9219 6.20389 12.9422 6.4172 12.9422C6.71172 12.9422 7.00627 12.9015 7.28047 12.8305C5.77735 12.5258 4.64997 11.2055 4.64997 9.61093V9.57032C5.08668 9.81407 5.59453 9.96641 6.13277 9.9867C5.24918 9.39763 4.67029 8.39217 4.67029 7.25466C4.67029 6.6453 4.83276 6.08671 5.11716 5.5992C6.73201 7.58983 9.15937 8.88981 11.8812 9.03202C11.8304 8.78827 11.8 8.53438 11.8 8.28047C11.8 6.47264 13.2625 5 15.0804 5C16.025 5 16.8781 5.39609 17.4773 6.03594C18.2187 5.89376 18.9296 5.61952 19.5593 5.24375C19.3156 6.00549 18.7976 6.64533 18.1172 7.05155C18.7773 6.98049 19.4172 6.79764 20.0062 6.54376C19.5594 7.19373 19.0008 7.77262 18.3609 8.23983Z" fill="black"/>
</svg>
