<svg width="64" height="64" viewBox="-4 -4 64 64" fill="none" xmlns="http://www.w3.org/2000/svg">
  <path
    d="M28 56C43.4642 56 56 43.4642 56 28C56 12.5358 43.4642 0 28 0C12.5358 0 0 12.5358 0 28C0 43.4642 12.5358 56 28 56Z"
    fill="#19cfff"/>
  <path fill-rule="evenodd" clip-rule="evenodd"
        d="M21.21 29.04L15.9577 25.72C15.4122 25.3733 14.6689 25.4222 14.1733 25.9178L11.5966 28.4955C11.4477 28.6434 11.4477 28.8422 11.5966 28.9411L14.1233 31.4689C15.5611 32.9056 17.9399 32.9555 19.4266 31.5178L21.26 29.7344C21.4578 29.5356 21.4088 29.1889 21.21 29.04ZM34.7889 29.04L40.0422 25.72C40.5877 25.3733 41.331 25.4222 41.8266 25.9178L44.4033 28.4955C44.5522 28.6434 44.5522 28.8422 44.4033 28.9411L41.8756 31.4689C40.4388 32.9056 38.06 32.9555 36.5733 31.5178L34.69 29.7344C34.4922 29.5356 34.5411 29.1889 34.7889 29.04ZM28.2967 34.4922L30.23 32.3611C30.4777 32.1133 30.2789 31.7166 29.9322 31.7166H26.0667C25.72 31.7166 25.5212 32.1133 25.7699 32.3611L27.7022 34.4922C27.8511 34.641 28.0989 34.641 28.2967 34.4922ZM28.4955 22.35L40.1911 14.8177C40.9344 14.3721 41.4789 13.6288 41.6777 12.7855L42.4211 10.2588L44.6011 13.381C45.0477 14.0244 45.2955 14.8177 45.2955 15.611V22.8955C45.2955 23.3411 45.4933 23.7378 45.7911 24.0844L48.6155 26.9099C49.1111 27.4055 49.1111 28.2477 48.6155 28.7932L46.7322 30.6756C46.3855 31.0232 46.2367 31.6177 46.4355 32.0633L47.1289 33.8477C47.3267 34.2933 47.2278 34.7889 46.9311 35.1855L36.0278 48.071C35.3344 48.9133 34.0456 48.9622 33.3022 48.1699L32.3111 47.1788C31.5678 46.4355 30.3788 46.4355 29.6845 47.1788C28.7922 48.071 27.3555 48.071 26.5133 47.1788C25.7699 46.4355 24.58 46.4355 23.8866 47.1788L22.8955 48.1699C22.1022 48.9622 20.8633 48.9133 20.1699 48.071L9.26668 35.1855C8.96995 34.8388 8.87104 34.2933 9.06886 33.8477L9.76224 32.0633C9.96106 31.5678 9.8122 31.0232 9.46551 30.6756L7.38436 28.7433C6.88881 28.2477 6.88881 27.4055 7.38436 26.86L10.2088 24.0355C10.5066 23.7378 10.7044 23.2922 10.7044 22.8455V15.611C10.7044 14.8177 10.9522 14.0744 11.3978 13.381L13.5289 10.2588L14.2722 12.7855C14.52 13.6288 15.0655 14.3222 15.7589 14.8177L27.4544 22.35C27.8011 22.5488 28.1978 22.5488 28.4955 22.35ZM18.6833 37.1678C18.3855 37.1678 18.1877 37.4655 18.2866 37.7133C19.5255 40.9844 22.6477 43.1145 26.1666 43.1145H29.8333C33.3522 43.1145 36.4744 40.9344 37.6633 37.7133C37.7632 37.4655 37.5644 37.1678 37.2677 37.1678H18.6833Z"
        fill="white"/>
</svg>
