<svg width="72" height="72" viewBox="0 0 72 72" fill="none" xmlns="http://www.w3.org/2000/svg">
<path d="M24.9836 31.1794H46.7869V25.6716H24.9891C24.9891 26.2343 24.9836 31.2312 24.9836 31.1794Z" fill="#FBCB4A"/>
<path d="M61.8942 19.8336L48.5715 14.2107C47.6958 13.783 46.7406 13.5436 45.7671 13.5078H26.2329C25.2589 13.5436 24.303 13.783 23.4267 14.2107L10.1058 19.8336C9.46132 20.1623 8.92215 20.6662 8.54988 21.2877C8.17762 21.9092 7.98729 22.6231 8.00066 23.3479V45.8431C8.00066 46.546 8.00065 47.2488 8.70175 47.9517L12.9102 52.1689C13.6113 52.8717 14.1376 52.8717 15.0135 52.8717H24.6504C24.6504 53.476 24.6504 58.5457 24.6504 58.491H47.4316V52.8644H24.6686V47.2488H14.3124C13.6113 47.2488 13.6113 46.546 13.6113 46.546V19.8336C13.6113 19.8336 13.6113 19.1307 14.3124 19.1307H57.6895C58.3906 19.1307 58.3906 19.8336 58.3906 19.8336V46.546C58.3906 46.546 58.3906 47.2488 57.6895 47.2488H47.437V52.8717H56.9884C57.8643 52.8717 58.3906 52.8717 59.0917 52.1689L63.2983 47.9517C63.9994 47.2488 63.9994 46.546 63.9994 45.8431V23.3479C64.0125 22.6231 63.8221 21.9093 63.4498 21.2879C63.0776 20.6664 62.5386 20.1625 61.8942 19.8336Z" fill="#FBCB4A"/>
</svg>
