<svg width="80" height="80" viewBox="0 0 80 80" fill="none" xmlns="http://www.w3.org/2000/svg">
    <path d="M37.9626 23.6198H42.0377V28.31H37.9626V23.6198Z" fill="#FBCB4A" />
    <path
        d="M32.0366 52.3695H24.437C23.9361 52.3695 23.9361 51.8659 23.9361 51.8659V32.8189C23.9361 32.8189 23.9361 32.3199 24.437 32.3199H37.9626L37.9626 28.31H32.9899C32.9899 28.31 31.9834 28.31 30.9769 28.8089L21.4176 32.8189C20.4111 33.3178 19.9102 34.3249 19.9102 35.3227V51.3623C19.9102 51.8659 19.9102 52.3648 20.4111 52.8684L23.4305 55.8758C23.9315 56.3794 24.3106 56.3794 24.9379 56.3794H32.0378C32.0383 55.1606 32.0388 53.7207 32.0393 52.3973H47.7829V56.3794H55.0626C55.6899 56.3794 56.0691 56.3794 56.57 55.8758L59.5894 52.8684C60.0903 52.3695 60.0903 51.8659 60.0903 51.3623V35.3227C60.0903 34.3202 59.5894 33.3178 58.5829 32.8189L49.0236 28.8089C48.0171 28.31 47.0106 28.31 47.0106 28.31H42.0377L42.0377 32.3199H55.5681C56.0691 32.3199 56.0691 32.8189 56.0691 32.8189V51.8659C56.0691 51.8659 56.0691 52.3695 55.5681 52.3695H47.798V48.4157H32.0406C32.0406 48.7994 32.037 52.034 32.0366 52.3695Z"
        fill="#FBCB4A" />
    <path
        d="M32.0366 42.2617H47.798V38.2802H32.0406C32.0406 38.687 32.0366 42.2992 32.0366 42.2617Z"
        fill="#FBCB4A" />
</svg>